<?xml version="1.0" encoding="UTF-8" standalone="no"?>
<!DOCTYPE svg PUBLIC "-//W3C//DTD SVG 1.1//EN"
 "http://www.w3.org/Graphics/SVG/1.1/DTD/svg11.dtd">
<!-- Generated by graphviz version 2.44.1 (20200629.0800)
 -->
<!-- Title: include/satella/blocking_queue.hpp Pages: 1 -->
<svg width="772pt" height="375pt"
 viewBox="0.00 0.00 771.50 375.00" xmlns="http://www.w3.org/2000/svg" xmlns:xlink="http://www.w3.org/1999/xlink">
<g id="graph0" class="graph" transform="scale(1 1) rotate(0) translate(4 371)">
<title>include/satella/blocking_queue.hpp</title>
<polygon fill="white" stroke="transparent" points="-4,4 -4,-371 767.5,-371 767.5,4 -4,4"/>
<!-- Node1 -->
<g id="node1" class="node">
<title>Node1</title>
<g id="a_node1"><a xlink:title=" ">
<polygon fill="#bfbfbf" stroke="black" points="295.5,-336.5 295.5,-366.5 413.5,-366.5 413.5,-336.5 295.5,-336.5"/>
<text text-anchor="start" x="303.5" y="-354.5" font-family="Helvetica,sans-Serif" font-size="10.00">include/satella/blocking</text>
<text text-anchor="middle" x="354.5" y="-343.5" font-family="Helvetica,sans-Serif" font-size="10.00">_queue.hpp</text>
</a>
</g>
</g>
<!-- Node2 -->
<g id="node2" class="node">
<title>Node2</title>
<g id="a_node2"><a xlink:title=" ">
<polygon fill="white" stroke="#bfbfbf" points="0,-56.5 0,-75.5 93,-75.5 93,-56.5 0,-56.5"/>
<text text-anchor="middle" x="46.5" y="-63.5" font-family="Helvetica,sans-Serif" font-size="10.00">condition_variable</text>
</a>
</g>
</g>
<!-- Node1&#45;&gt;Node2 -->
<g id="edge1" class="edge">
<title>Node1&#45;&gt;Node2</title>
<path fill="none" stroke="midnightblue" d="M295.25,-351.12C212.81,-348.52 73.5,-330.07 73.5,-235 73.5,-235 73.5,-235 73.5,-177 73.5,-143.86 61.8,-106.68 53.8,-85.14"/>
<polygon fill="midnightblue" stroke="midnightblue" points="57.01,-83.73 50.14,-75.66 50.48,-86.25 57.01,-83.73"/>
</g>
<!-- Node3 -->
<g id="node3" class="node">
<title>Node3</title>
<g id="a_node3"><a xlink:title=" ">
<polygon fill="white" stroke="#bfbfbf" points="111.5,-56.5 111.5,-75.5 155.5,-75.5 155.5,-56.5 111.5,-56.5"/>
<text text-anchor="middle" x="133.5" y="-63.5" font-family="Helvetica,sans-Serif" font-size="10.00">mutex</text>
</a>
</g>
</g>
<!-- Node1&#45;&gt;Node3 -->
<g id="edge2" class="edge">
<title>Node1&#45;&gt;Node3</title>
<path fill="none" stroke="midnightblue" d="M295.31,-341.89C236.33,-329.58 154.5,-300.66 154.5,-235 154.5,-235 154.5,-235 154.5,-177 154.5,-144.38 145.48,-107.28 139.27,-85.57"/>
<polygon fill="midnightblue" stroke="midnightblue" points="142.54,-84.32 136.33,-75.73 135.83,-86.32 142.54,-84.32"/>
</g>
<!-- Node4 -->
<g id="node4" class="node">
<title>Node4</title>
<g id="a_node4"><a xlink:title=" ">
<polygon fill="white" stroke="#bfbfbf" points="292,-280.5 292,-299.5 335,-299.5 335,-280.5 292,-280.5"/>
<text text-anchor="middle" x="313.5" y="-287.5" font-family="Helvetica,sans-Serif" font-size="10.00">queue</text>
</a>
</g>
</g>
<!-- Node1&#45;&gt;Node4 -->
<g id="edge3" class="edge">
<title>Node1&#45;&gt;Node4</title>
<path fill="none" stroke="midnightblue" d="M344.78,-336.4C338.95,-327.93 331.48,-317.1 325.31,-308.14"/>
<polygon fill="midnightblue" stroke="midnightblue" points="328.02,-305.91 319.47,-299.66 322.26,-309.88 328.02,-305.91"/>
</g>
<!-- Node5 -->
<g id="node5" class="node">
<title>Node5</title>
<g id="a_node5"><a xlink:href="cancellation_8hpp.html" target="_top" xlink:title=" ">
<polygon fill="white" stroke="black" points="353,-280.5 353,-299.5 440,-299.5 440,-280.5 353,-280.5"/>
<text text-anchor="middle" x="396.5" y="-287.5" font-family="Helvetica,sans-Serif" font-size="10.00">cancellation.hpp</text>
</a>
</g>
</g>
<!-- Node1&#45;&gt;Node5 -->
<g id="edge4" class="edge">
<title>Node1&#45;&gt;Node5</title>
<path fill="none" stroke="midnightblue" d="M364.45,-336.4C370.49,-327.84 378.24,-316.87 384.6,-307.86"/>
<polygon fill="midnightblue" stroke="midnightblue" points="387.48,-309.85 390.39,-299.66 381.76,-305.81 387.48,-309.85"/>
</g>
<!-- Node14 -->
<g id="node14" class="node">
<title>Node14</title>
<g id="a_node14"><a xlink:href="optional_8hpp.html" target="_top" xlink:title=" ">
<polygon fill="white" stroke="black" points="544,-56.5 544,-75.5 613,-75.5 613,-56.5 544,-56.5"/>
<text text-anchor="middle" x="578.5" y="-63.5" font-family="Helvetica,sans-Serif" font-size="10.00">optional.hpp</text>
</a>
</g>
</g>
<!-- Node1&#45;&gt;Node14 -->
<g id="edge35" class="edge">
<title>Node1&#45;&gt;Node14</title>
<path fill="none" stroke="midnightblue" d="M386.4,-336.35C405.3,-327.25 429.24,-314.45 448.5,-300 476.4,-279.06 484.13,-273.01 503.5,-244 538.79,-191.13 563.09,-118.95 573.21,-85.46"/>
<polygon fill="midnightblue" stroke="midnightblue" points="576.63,-86.26 576.1,-75.67 569.91,-84.28 576.63,-86.26"/>
</g>
<!-- Node16 -->
<g id="node16" class="node">
<title>Node16</title>
<g id="a_node16"><a xlink:href="util_8hpp.html" target="_top" xlink:title=" ">
<polygon fill="white" stroke="black" points="631.5,-56.5 631.5,-75.5 679.5,-75.5 679.5,-56.5 631.5,-56.5"/>
<text text-anchor="middle" x="655.5" y="-63.5" font-family="Helvetica,sans-Serif" font-size="10.00">util.hpp</text>
</a>
</g>
</g>
<!-- Node1&#45;&gt;Node16 -->
<g id="edge36" class="edge">
<title>Node1&#45;&gt;Node16</title>
<path fill="none" stroke="midnightblue" d="M382.52,-336.49C401.45,-326.77 426.85,-313.24 448.5,-300 516.48,-258.42 534.52,-246.62 588.5,-188 610.13,-164.51 618.15,-160 633.5,-132 641.56,-117.31 647.4,-99.15 651.03,-85.76"/>
<polygon fill="midnightblue" stroke="midnightblue" points="654.49,-86.37 653.56,-75.81 647.7,-84.64 654.49,-86.37"/>
</g>
<!-- Node6 -->
<g id="node6" class="node">
<title>Node6</title>
<g id="a_node6"><a xlink:href="functional_8hpp.html" target="_top" xlink:title=" ">
<polygon fill="white" stroke="black" points="174,-56.5 174,-75.5 251,-75.5 251,-56.5 174,-56.5"/>
<text text-anchor="middle" x="212.5" y="-63.5" font-family="Helvetica,sans-Serif" font-size="10.00">functional.hpp</text>
</a>
</g>
</g>
<!-- Node5&#45;&gt;Node6 -->
<g id="edge5" class="edge">
<title>Node5&#45;&gt;Node6</title>
<path fill="none" stroke="midnightblue" d="M360.03,-280.45C326.07,-271.81 278.75,-257.79 265.5,-244 222.77,-199.53 214.33,-122.02 212.77,-86.18"/>
<polygon fill="midnightblue" stroke="midnightblue" points="216.26,-85.63 212.47,-75.73 209.26,-85.83 216.26,-85.63"/>
</g>
<!-- Node8 -->
<g id="node8" class="node">
<title>Node8</title>
<g id="a_node8"><a xlink:href="future_8hpp.html" target="_top" xlink:title=" ">
<polygon fill="white" stroke="black" points="368,-168.5 368,-187.5 427,-187.5 427,-168.5 368,-168.5"/>
<text text-anchor="middle" x="397.5" y="-175.5" font-family="Helvetica,sans-Serif" font-size="10.00">future.hpp</text>
</a>
</g>
</g>
<!-- Node5&#45;&gt;Node8 -->
<g id="edge7" class="edge">
<title>Node5&#45;&gt;Node8</title>
<path fill="none" stroke="midnightblue" d="M396.58,-280.37C396.74,-262.62 397.11,-221.67 397.33,-197.6"/>
<polygon fill="midnightblue" stroke="midnightblue" points="400.83,-197.62 397.42,-187.59 393.83,-197.56 400.83,-197.62"/>
</g>
<!-- Node5&#45;&gt;Node16 -->
<g id="edge34" class="edge">
<title>Node5&#45;&gt;Node16</title>
<path fill="none" stroke="midnightblue" d="M425.94,-280.47C448.48,-273.06 479.63,-260.86 503.5,-244 568.21,-198.28 622.77,-119.09 644.92,-84.27"/>
<polygon fill="midnightblue" stroke="midnightblue" points="647.95,-86.02 650.29,-75.69 642.01,-82.31 647.95,-86.02"/>
</g>
<!-- Node21 -->
<g id="node21" class="node">
<title>Node21</title>
<g id="a_node21"><a xlink:href="promise_8hpp.html" target="_top" xlink:title=" ">
<polygon fill="white" stroke="black" points="424.5,-224.5 424.5,-243.5 494.5,-243.5 494.5,-224.5 424.5,-224.5"/>
<text text-anchor="middle" x="459.5" y="-231.5" font-family="Helvetica,sans-Serif" font-size="10.00">promise.hpp</text>
</a>
</g>
</g>
<!-- Node5&#45;&gt;Node21 -->
<g id="edge25" class="edge">
<title>Node5&#45;&gt;Node21</title>
<path fill="none" stroke="midnightblue" d="M406.62,-280.32C416.03,-272.26 430.24,-260.08 441.57,-250.37"/>
<polygon fill="midnightblue" stroke="midnightblue" points="443.88,-253 449.19,-243.83 439.32,-247.68 443.88,-253"/>
</g>
<!-- Node22 -->
<g id="node22" class="node">
<title>Node22</title>
<g id="a_node22"><a xlink:href="shared__future_8hpp.html" target="_top" xlink:title=" ">
<polygon fill="white" stroke="black" points="274.5,-224.5 274.5,-243.5 368.5,-243.5 368.5,-224.5 274.5,-224.5"/>
<text text-anchor="middle" x="321.5" y="-231.5" font-family="Helvetica,sans-Serif" font-size="10.00">shared_future.hpp</text>
</a>
</g>
</g>
<!-- Node5&#45;&gt;Node22 -->
<g id="edge31" class="edge">
<title>Node5&#45;&gt;Node22</title>
<path fill="none" stroke="midnightblue" d="M384.45,-280.32C373.04,-272.11 355.67,-259.6 342.07,-249.81"/>
<polygon fill="midnightblue" stroke="midnightblue" points="343.93,-246.84 333.77,-243.83 339.84,-252.52 343.93,-246.84"/>
</g>
<!-- Node7 -->
<g id="node7" class="node">
<title>Node7</title>
<g id="a_node7"><a xlink:title=" ">
<polygon fill="white" stroke="#bfbfbf" points="154.5,-0.5 154.5,-19.5 270.5,-19.5 270.5,-0.5 154.5,-0.5"/>
<text text-anchor="middle" x="212.5" y="-7.5" font-family="Helvetica,sans-Serif" font-size="10.00">function2/function2.hpp</text>
</a>
</g>
</g>
<!-- Node6&#45;&gt;Node7 -->
<g id="edge6" class="edge">
<title>Node6&#45;&gt;Node7</title>
<path fill="none" stroke="midnightblue" d="M212.5,-56.08C212.5,-49.01 212.5,-38.86 212.5,-29.99"/>
<polygon fill="midnightblue" stroke="midnightblue" points="216,-29.75 212.5,-19.75 209,-29.75 216,-29.75"/>
</g>
<!-- Node9 -->
<g id="node9" class="node">
<title>Node9</title>
<g id="a_node9"><a xlink:title=" ">
<polygon fill="white" stroke="#bfbfbf" points="485,-56.5 485,-75.5 526,-75.5 526,-56.5 485,-56.5"/>
<text text-anchor="middle" x="505.5" y="-63.5" font-family="Helvetica,sans-Serif" font-size="10.00">future</text>
</a>
</g>
</g>
<!-- Node8&#45;&gt;Node9 -->
<g id="edge8" class="edge">
<title>Node8&#45;&gt;Node9</title>
<path fill="none" stroke="midnightblue" d="M391.66,-168.17C383.63,-154.82 371.49,-129.24 383.5,-112 386.26,-108.04 439.84,-89.27 475.06,-77.26"/>
<polygon fill="midnightblue" stroke="midnightblue" points="476.55,-80.45 484.89,-73.92 474.3,-73.82 476.55,-80.45"/>
</g>
<!-- Node10 -->
<g id="node10" class="node">
<title>Node10</title>
<g id="a_node10"><a xlink:title=" ">
<polygon fill="white" stroke="#bfbfbf" points="425.5,-112.5 425.5,-131.5 477.5,-131.5 477.5,-112.5 425.5,-112.5"/>
<text text-anchor="middle" x="451.5" y="-119.5" font-family="Helvetica,sans-Serif" font-size="10.00">memory</text>
</a>
</g>
</g>
<!-- Node8&#45;&gt;Node10 -->
<g id="edge9" class="edge">
<title>Node8&#45;&gt;Node10</title>
<path fill="none" stroke="midnightblue" d="M406.42,-168.08C414.28,-160.22 425.93,-148.57 435.42,-139.08"/>
<polygon fill="midnightblue" stroke="midnightblue" points="438.15,-141.3 442.75,-131.75 433.2,-136.35 438.15,-141.3"/>
</g>
<!-- Node11 -->
<g id="node11" class="node">
<title>Node11</title>
<g id="a_node11"><a xlink:href="state_8hpp.html" target="_top" xlink:title=" ">
<polygon fill="white" stroke="black" points="274,-112.5 274,-131.5 331,-131.5 331,-112.5 274,-112.5"/>
<text text-anchor="middle" x="302.5" y="-119.5" font-family="Helvetica,sans-Serif" font-size="10.00">state.hpp</text>
</a>
</g>
</g>
<!-- Node8&#45;&gt;Node11 -->
<g id="edge10" class="edge">
<title>Node8&#45;&gt;Node11</title>
<path fill="none" stroke="midnightblue" d="M382.24,-168.32C367.28,-159.82 344.25,-146.73 326.77,-136.8"/>
<polygon fill="midnightblue" stroke="midnightblue" points="328.15,-133.55 317.73,-131.65 324.69,-139.64 328.15,-133.55"/>
</g>
<!-- Node8&#45;&gt;Node16 -->
<g id="edge24" class="edge">
<title>Node8&#45;&gt;Node16</title>
<path fill="none" stroke="midnightblue" d="M397.33,-168.35C397.56,-154.29 400.2,-126.58 416.5,-112 483.41,-52.16 528.62,-93.22 621.38,-75.91"/>
<polygon fill="midnightblue" stroke="midnightblue" points="622.32,-79.29 631.41,-73.85 620.91,-72.43 622.32,-79.29"/>
</g>
<!-- Node11&#45;&gt;Node2 -->
<g id="edge12" class="edge">
<title>Node11&#45;&gt;Node2</title>
<path fill="none" stroke="midnightblue" d="M273.63,-114.91C230.76,-105.87 149.65,-88.76 96.86,-77.62"/>
<polygon fill="midnightblue" stroke="midnightblue" points="97.53,-74.19 87.03,-75.55 96.09,-81.04 97.53,-74.19"/>
</g>
<!-- Node11&#45;&gt;Node3 -->
<g id="edge14" class="edge">
<title>Node11&#45;&gt;Node3</title>
<path fill="none" stroke="midnightblue" d="M275.72,-112.44C245.74,-102.86 197.19,-87.35 165.3,-77.16"/>
<polygon fill="midnightblue" stroke="midnightblue" points="166.17,-73.76 155.58,-74.05 164.04,-80.43 166.17,-73.76"/>
</g>
<!-- Node11&#45;&gt;Node6 -->
<g id="edge16" class="edge">
<title>Node11&#45;&gt;Node6</title>
<path fill="none" stroke="midnightblue" d="M288.04,-112.32C274,-103.9 252.45,-90.97 235.96,-81.07"/>
<polygon fill="midnightblue" stroke="midnightblue" points="237.3,-77.8 226.92,-75.65 233.7,-83.8 237.3,-77.8"/>
</g>
<!-- Node11&#45;&gt;Node9 -->
<g id="edge13" class="edge">
<title>Node11&#45;&gt;Node9</title>
<path fill="none" stroke="midnightblue" d="M331.25,-114.01C363.95,-105.97 419.16,-92.09 475.21,-76.28"/>
<polygon fill="midnightblue" stroke="midnightblue" points="476.28,-79.61 484.94,-73.51 474.37,-72.88 476.28,-79.61"/>
</g>
<!-- Node12 -->
<g id="node12" class="node">
<title>Node12</title>
<g id="a_node12"><a xlink:title=" ">
<polygon fill="white" stroke="#bfbfbf" points="269.5,-56.5 269.5,-75.5 325.5,-75.5 325.5,-56.5 269.5,-56.5"/>
<text text-anchor="middle" x="297.5" y="-63.5" font-family="Helvetica,sans-Serif" font-size="10.00">algorithm</text>
</a>
</g>
</g>
<!-- Node11&#45;&gt;Node12 -->
<g id="edge11" class="edge">
<title>Node11&#45;&gt;Node12</title>
<path fill="none" stroke="midnightblue" d="M301.67,-112.08C301.02,-105.01 300.08,-94.86 299.26,-85.99"/>
<polygon fill="midnightblue" stroke="midnightblue" points="302.72,-85.39 298.31,-75.75 295.75,-86.03 302.72,-85.39"/>
</g>
<!-- Node13 -->
<g id="node13" class="node">
<title>Node13</title>
<g id="a_node13"><a xlink:title=" ">
<polygon fill="white" stroke="#bfbfbf" points="343.5,-56.5 343.5,-75.5 385.5,-75.5 385.5,-56.5 343.5,-56.5"/>
<text text-anchor="middle" x="364.5" y="-63.5" font-family="Helvetica,sans-Serif" font-size="10.00">vector</text>
</a>
</g>
</g>
<!-- Node11&#45;&gt;Node13 -->
<g id="edge15" class="edge">
<title>Node11&#45;&gt;Node13</title>
<path fill="none" stroke="midnightblue" d="M312.46,-112.32C321.63,-104.34 335.44,-92.31 346.53,-82.65"/>
<polygon fill="midnightblue" stroke="midnightblue" points="349.12,-85.04 354.36,-75.83 344.52,-79.76 349.12,-85.04"/>
</g>
<!-- Node11&#45;&gt;Node14 -->
<g id="edge17" class="edge">
<title>Node11&#45;&gt;Node14</title>
<path fill="none" stroke="midnightblue" d="M331.22,-115.6C373.43,-107.64 454.95,-92.13 533.69,-76.34"/>
<polygon fill="midnightblue" stroke="midnightblue" points="534.66,-79.72 543.78,-74.32 533.28,-72.86 534.66,-79.72"/>
</g>
<!-- Node11&#45;&gt;Node16 -->
<g id="edge19" class="edge">
<title>Node11&#45;&gt;Node16</title>
<path fill="none" stroke="midnightblue" d="M331.3,-117.43C395.71,-109.36 550.71,-89.52 621.26,-75.97"/>
<polygon fill="midnightblue" stroke="midnightblue" points="622.31,-79.33 631.43,-73.94 620.94,-72.47 622.31,-79.33"/>
</g>
<!-- Node19 -->
<g id="node19" class="node">
<title>Node19</title>
<g id="a_node19"><a xlink:href="variant_8hpp.html" target="_top" xlink:title=" ">
<polygon fill="white" stroke="black" points="404,-56.5 404,-75.5 467,-75.5 467,-56.5 404,-56.5"/>
<text text-anchor="middle" x="435.5" y="-63.5" font-family="Helvetica,sans-Serif" font-size="10.00">variant.hpp</text>
</a>
</g>
</g>
<!-- Node11&#45;&gt;Node19 -->
<g id="edge22" class="edge">
<title>Node11&#45;&gt;Node19</title>
<path fill="none" stroke="midnightblue" d="M323.57,-112.44C345.56,-103.52 380.23,-89.44 405.16,-79.32"/>
<polygon fill="midnightblue" stroke="midnightblue" points="406.58,-82.52 414.52,-75.52 403.94,-76.04 406.58,-82.52"/>
</g>
<!-- Node15 -->
<g id="node15" class="node">
<title>Node15</title>
<g id="a_node15"><a xlink:title=" ">
<polygon fill="white" stroke="#bfbfbf" points="553.5,-0.5 553.5,-19.5 603.5,-19.5 603.5,-0.5 553.5,-0.5"/>
<text text-anchor="middle" x="578.5" y="-7.5" font-family="Helvetica,sans-Serif" font-size="10.00">optional</text>
</a>
</g>
</g>
<!-- Node14&#45;&gt;Node15 -->
<g id="edge18" class="edge">
<title>Node14&#45;&gt;Node15</title>
<path fill="none" stroke="midnightblue" d="M578.5,-56.08C578.5,-49.01 578.5,-38.86 578.5,-29.99"/>
<polygon fill="midnightblue" stroke="midnightblue" points="582,-29.75 578.5,-19.75 575,-29.75 582,-29.75"/>
</g>
<!-- Node17 -->
<g id="node17" class="node">
<title>Node17</title>
<g id="a_node17"><a xlink:title=" ">
<polygon fill="white" stroke="#bfbfbf" points="624,-0.5 624,-19.5 683,-19.5 683,-0.5 624,-0.5"/>
<text text-anchor="middle" x="653.5" y="-7.5" font-family="Helvetica,sans-Serif" font-size="10.00">stdexcept</text>
</a>
</g>
</g>
<!-- Node16&#45;&gt;Node17 -->
<g id="edge20" class="edge">
<title>Node16&#45;&gt;Node17</title>
<path fill="none" stroke="midnightblue" d="M655.17,-56.08C654.91,-49.01 654.53,-38.86 654.2,-29.99"/>
<polygon fill="midnightblue" stroke="midnightblue" points="657.69,-29.61 653.82,-19.75 650.7,-29.87 657.69,-29.61"/>
</g>
<!-- Node18 -->
<g id="node18" class="node">
<title>Node18</title>
<g id="a_node18"><a xlink:title=" ">
<polygon fill="white" stroke="#bfbfbf" points="701.5,-0.5 701.5,-19.5 763.5,-19.5 763.5,-0.5 701.5,-0.5"/>
<text text-anchor="middle" x="732.5" y="-7.5" font-family="Helvetica,sans-Serif" font-size="10.00">type_traits</text>
</a>
</g>
</g>
<!-- Node16&#45;&gt;Node18 -->
<g id="edge21" class="edge">
<title>Node16&#45;&gt;Node18</title>
<path fill="none" stroke="midnightblue" d="M667.87,-56.32C679.66,-48.06 697.63,-35.45 711.64,-25.63"/>
<polygon fill="midnightblue" stroke="midnightblue" points="713.98,-28.26 720.16,-19.65 709.96,-22.53 713.98,-28.26"/>
</g>
<!-- Node20 -->
<g id="node20" class="node">
<title>Node20</title>
<g id="a_node20"><a xlink:title=" ">
<polygon fill="white" stroke="#bfbfbf" points="413.5,-0.5 413.5,-19.5 457.5,-19.5 457.5,-0.5 413.5,-0.5"/>
<text text-anchor="middle" x="435.5" y="-7.5" font-family="Helvetica,sans-Serif" font-size="10.00">variant</text>
</a>
</g>
</g>
<!-- Node19&#45;&gt;Node20 -->
<g id="edge23" class="edge">
<title>Node19&#45;&gt;Node20</title>
<path fill="none" stroke="midnightblue" d="M435.5,-56.08C435.5,-49.01 435.5,-38.86 435.5,-29.99"/>
<polygon fill="midnightblue" stroke="midnightblue" points="439,-29.75 435.5,-19.75 432,-29.75 439,-29.75"/>
</g>
<!-- Node21&#45;&gt;Node8 -->
<g id="edge28" class="edge">
<title>Node21&#45;&gt;Node8</title>
<path fill="none" stroke="midnightblue" d="M449.54,-224.32C440.37,-216.34 426.56,-204.31 415.47,-194.65"/>
<polygon fill="midnightblue" stroke="midnightblue" points="417.48,-191.76 407.64,-187.83 412.88,-197.04 417.48,-191.76"/>
</g>
<!-- Node21&#45;&gt;Node9 -->
<g id="edge26" class="edge">
<title>Node21&#45;&gt;Node9</title>
<path fill="none" stroke="midnightblue" d="M461.97,-224.08C469.21,-197.95 490.48,-121.21 500.35,-85.58"/>
<polygon fill="midnightblue" stroke="midnightblue" points="503.83,-86.14 503.13,-75.57 497.08,-84.27 503.83,-86.14"/>
</g>
<!-- Node21&#45;&gt;Node10 -->
<g id="edge27" class="edge">
<title>Node21&#45;&gt;Node10</title>
<path fill="none" stroke="midnightblue" d="M458.87,-224.37C457.58,-206.62 454.6,-165.67 452.85,-141.6"/>
<polygon fill="midnightblue" stroke="midnightblue" points="456.34,-141.31 452.12,-131.59 449.36,-141.82 456.34,-141.31"/>
</g>
<!-- Node21&#45;&gt;Node11 -->
<g id="edge29" class="edge">
<title>Node21&#45;&gt;Node11</title>
<path fill="none" stroke="midnightblue" d="M432.04,-224.48C410.68,-217.01 380.99,-204.72 358.5,-188 340.46,-174.58 324.22,-154.39 313.94,-140.08"/>
<polygon fill="midnightblue" stroke="midnightblue" points="316.66,-137.86 308.08,-131.65 310.91,-141.86 316.66,-137.86"/>
</g>
<!-- Node21&#45;&gt;Node16 -->
<g id="edge30" class="edge">
<title>Node21&#45;&gt;Node16</title>
<path fill="none" stroke="midnightblue" d="M469.76,-224.31C501.38,-197.53 597.6,-116.03 637.68,-82.09"/>
<polygon fill="midnightblue" stroke="midnightblue" points="639.97,-84.74 645.34,-75.61 635.45,-79.4 639.97,-84.74"/>
</g>
<!-- Node22&#45;&gt;Node8 -->
<g id="edge32" class="edge">
<title>Node22&#45;&gt;Node8</title>
<path fill="none" stroke="midnightblue" d="M333.71,-224.32C345.28,-216.11 362.88,-203.6 376.66,-193.81"/>
<polygon fill="midnightblue" stroke="midnightblue" points="378.94,-196.48 385.07,-187.83 374.89,-190.77 378.94,-196.48"/>
</g>
<!-- Node22&#45;&gt;Node11 -->
<g id="edge33" class="edge">
<title>Node22&#45;&gt;Node11</title>
<path fill="none" stroke="midnightblue" d="M320.01,-224.37C316.94,-206.62 309.87,-165.67 305.71,-141.6"/>
<polygon fill="midnightblue" stroke="midnightblue" points="309.14,-140.85 303.98,-131.59 302.24,-142.04 309.14,-140.85"/>
</g>
</g>
</svg>
