<?xml version="1.0" encoding="UTF-8" standalone="no"?>
<!DOCTYPE svg PUBLIC "-//W3C//DTD SVG 1.1//EN"
 "http://www.w3.org/Graphics/SVG/1.1/DTD/svg11.dtd">
<!-- Generated by graphviz version 2.44.1 (20200629.0800)
 -->
<!-- Title: satella::impl::PromiseBase::get_future Pages: 1 -->
<svg width="297pt" height="176pt"
 viewBox="0.00 0.00 297.00 175.50" xmlns="http://www.w3.org/2000/svg" xmlns:xlink="http://www.w3.org/1999/xlink">
<g id="graph0" class="graph" transform="scale(1 1) rotate(0) translate(4 171.5)">
<title>satella::impl::PromiseBase::get_future</title>
<polygon fill="white" stroke="transparent" points="-4,4 -4,-171.5 293,-171.5 293,4 -4,4"/>
<!-- Node1 -->
<g id="node1" class="node">
<title>Node1</title>
<g id="a_node1"><a xlink:title=" ">
<polygon fill="#bfbfbf" stroke="black" points="155,-73.5 155,-103.5 289,-103.5 289,-73.5 155,-73.5"/>
<text text-anchor="start" x="163" y="-91.5" font-family="Helvetica,sans-Serif" font-size="10.00">satella::impl::PromiseBase</text>
<text text-anchor="middle" x="222" y="-80.5" font-family="Helvetica,sans-Serif" font-size="10.00">::get_future</text>
</a>
</g>
</g>
<!-- Node2 -->
<g id="node2" class="node">
<title>Node2</title>
<g id="a_node2"><a xlink:href="namespacesatella.html#a4dde3b2dc3f3f09d7edb36918f05f3c7" target="_top" xlink:title=" ">
<polygon fill="white" stroke="black" points="10,-148 10,-167 109,-167 109,-148 10,-148"/>
<text text-anchor="middle" x="59.5" y="-155" font-family="Helvetica,sans-Serif" font-size="10.00">satella::make_task</text>
</a>
</g>
</g>
<!-- Node1&#45;&gt;Node2 -->
<g id="edge1" class="edge">
<title>Node1&#45;&gt;Node2</title>
<path fill="none" stroke="midnightblue" d="M183.95,-108.24C164.84,-118.01 140.99,-129.59 119,-138.5 110.59,-141.91 101.31,-145.15 92.67,-147.95"/>
<polygon fill="midnightblue" stroke="midnightblue" points="185.63,-111.31 192.91,-103.61 182.42,-105.09 185.63,-111.31"/>
</g>
<!-- Node3 -->
<g id="node3" class="node">
<title>Node3</title>
<g id="a_node3"><a xlink:href="classsatella_1_1impl_1_1_task.html#a4fef0884b7118f5db504d464177dd11e" target="_top" xlink:title=" ">
<polygon fill="white" stroke="black" points="11.5,-98.5 11.5,-128.5 107.5,-128.5 107.5,-98.5 11.5,-98.5"/>
<text text-anchor="start" x="19.5" y="-116.5" font-family="Helvetica,sans-Serif" font-size="10.00">satella::impl::Task</text>
<text text-anchor="middle" x="59.5" y="-105.5" font-family="Helvetica,sans-Serif" font-size="10.00">::then</text>
</a>
</g>
</g>
<!-- Node1&#45;&gt;Node3 -->
<g id="edge2" class="edge">
<title>Node1&#45;&gt;Node3</title>
<path fill="none" stroke="midnightblue" d="M144.77,-100.37C132.21,-102.33 119.52,-104.31 107.93,-106.11"/>
<polygon fill="midnightblue" stroke="midnightblue" points="145.45,-103.81 154.79,-98.81 144.37,-96.89 145.45,-103.81"/>
</g>
<!-- Node4 -->
<g id="node4" class="node">
<title>Node4</title>
<g id="a_node4"><a xlink:href="classsatella_1_1impl_1_1_task_3_01void_01_4.html#a2ace4ee1ed24c5dc94986d493e399feb" target="_top" xlink:title=" ">
<polygon fill="white" stroke="black" points="11.5,-49.5 11.5,-79.5 107.5,-79.5 107.5,-49.5 11.5,-49.5"/>
<text text-anchor="start" x="19.5" y="-67.5" font-family="Helvetica,sans-Serif" font-size="10.00">satella::impl::Task</text>
<text text-anchor="middle" x="59.5" y="-56.5" font-family="Helvetica,sans-Serif" font-size="10.00">&lt; void &gt;::then</text>
</a>
</g>
</g>
<!-- Node1&#45;&gt;Node4 -->
<g id="edge3" class="edge">
<title>Node1&#45;&gt;Node4</title>
<path fill="none" stroke="midnightblue" d="M144.77,-77.1C132.21,-75.22 119.52,-73.33 107.93,-71.59"/>
<polygon fill="midnightblue" stroke="midnightblue" points="144.38,-80.58 154.79,-78.6 145.42,-73.66 144.38,-80.58"/>
</g>
<!-- Node5 -->
<g id="node5" class="node">
<title>Node5</title>
<g id="a_node5"><a xlink:href="classsatella_1_1impl_1_1_task_base.html#a28756511e1c4ae7b68a5f1b38ccc5b56" target="_top" xlink:title=" ">
<polygon fill="white" stroke="black" points="0,-0.5 0,-30.5 119,-30.5 119,-0.5 0,-0.5"/>
<text text-anchor="start" x="8" y="-18.5" font-family="Helvetica,sans-Serif" font-size="10.00">satella::impl::TaskBase</text>
<text text-anchor="middle" x="59.5" y="-7.5" font-family="Helvetica,sans-Serif" font-size="10.00">&lt; void &gt;::then_catch</text>
</a>
</g>
</g>
<!-- Node1&#45;&gt;Node5 -->
<g id="edge4" class="edge">
<title>Node1&#45;&gt;Node5</title>
<path fill="none" stroke="midnightblue" d="M180.35,-68.96C161.72,-60.11 139.32,-49.62 119,-40.5 111.74,-37.24 103.94,-33.84 96.48,-30.63"/>
<polygon fill="midnightblue" stroke="midnightblue" points="178.9,-72.15 189.43,-73.29 181.91,-65.83 178.9,-72.15"/>
</g>
</g>
</svg>
