<?xml version="1.0" encoding="UTF-8" standalone="no"?>
<!DOCTYPE svg PUBLIC "-//W3C//DTD SVG 1.1//EN"
 "http://www.w3.org/Graphics/SVG/1.1/DTD/svg11.dtd">
<!-- Generated by graphviz version 2.44.1 (20200629.0800)
 -->
<!-- Title: satella::impl::State&lt; void &gt;::get_value Pages: 1 -->
<svg width="285pt" height="110pt"
 viewBox="0.00 0.00 285.00 110.00" xmlns="http://www.w3.org/2000/svg" xmlns:xlink="http://www.w3.org/1999/xlink">
<g id="graph0" class="graph" transform="scale(1 1) rotate(0) translate(4 106)">
<title>satella::impl::State&lt; void &gt;::get_value</title>
<polygon fill="white" stroke="transparent" points="-4,4 -4,-106 281,-106 281,4 -4,4"/>
<!-- Node1 -->
<g id="node1" class="node">
<title>Node1</title>
<g id="a_node1"><a xlink:title=" ">
<polygon fill="#bfbfbf" stroke="black" points="0,-36 0,-66 98,-66 98,-36 0,-36"/>
<text text-anchor="start" x="8" y="-54" font-family="Helvetica,sans-Serif" font-size="10.00">satella::impl::State</text>
<text text-anchor="middle" x="49" y="-43" font-family="Helvetica,sans-Serif" font-size="10.00">&lt; void &gt;::get_value</text>
</a>
</g>
</g>
<!-- Node2 -->
<g id="node2" class="node">
<title>Node2</title>
<g id="a_node2"><a xlink:href="classsatella_1_1impl_1_1_state_base.html#ab8a777502402a2d5ddfa01eb2f81ab71" target="_top" xlink:title=" ">
<polygon fill="white" stroke="black" points="143.5,-60.5 143.5,-101.5 267.5,-101.5 267.5,-60.5 143.5,-60.5"/>
<text text-anchor="start" x="151.5" y="-89.5" font-family="Helvetica,sans-Serif" font-size="10.00">satella::impl::StateBase</text>
<text text-anchor="start" x="151.5" y="-78.5" font-family="Helvetica,sans-Serif" font-size="10.00">&lt; variant&lt; std::exception</text>
<text text-anchor="middle" x="205.5" y="-67.5" font-family="Helvetica,sans-Serif" font-size="10.00">_ptr, T &gt; &gt;::get_lock</text>
</a>
</g>
</g>
<!-- Node1&#45;&gt;Node2 -->
<g id="edge1" class="edge">
<title>Node1&#45;&gt;Node2</title>
<path fill="none" stroke="midnightblue" d="M98.04,-60.33C109.25,-62.5 121.42,-64.87 133.4,-67.19"/>
<polygon fill="midnightblue" stroke="midnightblue" points="132.9,-70.66 143.39,-69.13 134.24,-63.79 132.9,-70.66"/>
</g>
<!-- Node3 -->
<g id="node3" class="node">
<title>Node3</title>
<g id="a_node3"><a xlink:href="classsatella_1_1impl_1_1_state_base.html#af657f25544cb5f1c7e2c55ba5b184c00" target="_top" xlink:title=" ">
<polygon fill="white" stroke="black" points="134,-0.5 134,-41.5 277,-41.5 277,-0.5 134,-0.5"/>
<text text-anchor="start" x="142" y="-29.5" font-family="Helvetica,sans-Serif" font-size="10.00">satella::impl::StateBase</text>
<text text-anchor="start" x="142" y="-18.5" font-family="Helvetica,sans-Serif" font-size="10.00">&lt; variant&lt; std::exception</text>
<text text-anchor="middle" x="205.5" y="-7.5" font-family="Helvetica,sans-Serif" font-size="10.00">_ptr, T &gt; &gt;::unsafe_get_value</text>
</a>
</g>
</g>
<!-- Node1&#45;&gt;Node3 -->
<g id="edge2" class="edge">
<title>Node1&#45;&gt;Node3</title>
<path fill="none" stroke="midnightblue" d="M98.04,-41.67C106.28,-40.07 115.03,-38.37 123.85,-36.66"/>
<polygon fill="midnightblue" stroke="midnightblue" points="124.66,-40.07 133.81,-34.73 123.32,-33.2 124.66,-40.07"/>
</g>
</g>
</svg>
