<?xml version="1.0" encoding="UTF-8" standalone="no"?>
<!DOCTYPE svg PUBLIC "-//W3C//DTD SVG 1.1//EN"
 "http://www.w3.org/Graphics/SVG/1.1/DTD/svg11.dtd">
<!-- Generated by graphviz version 2.44.1 (20200629.0800)
 -->
<!-- Title: satella::impl::Task&lt; void &gt;::then Pages: 1 -->
<svg width="430pt" height="116pt"
 viewBox="0.00 0.00 430.00 115.50" xmlns="http://www.w3.org/2000/svg" xmlns:xlink="http://www.w3.org/1999/xlink">
<g id="graph0" class="graph" transform="scale(1 1) rotate(0) translate(4 111.5)">
<title>satella::impl::Task&lt; void &gt;::then</title>
<polygon fill="white" stroke="transparent" points="-4,4 -4,-111.5 426,-111.5 426,4 -4,4"/>
<!-- Node1 -->
<g id="node1" class="node">
<title>Node1</title>
<g id="a_node1"><a xlink:title=" ">
<polygon fill="#bfbfbf" stroke="black" points="0,-33 0,-63 96,-63 96,-33 0,-33"/>
<text text-anchor="start" x="8" y="-51" font-family="Helvetica,sans-Serif" font-size="10.00">satella::impl::Task</text>
<text text-anchor="middle" x="48" y="-40" font-family="Helvetica,sans-Serif" font-size="10.00">&lt; void &gt;::then</text>
</a>
</g>
</g>
<!-- Node2 -->
<g id="node2" class="node">
<title>Node2</title>
<g id="a_node2"><a xlink:href="classsatella_1_1impl_1_1_promise_base.html#ade6148b11d0786db95d31332bd33c441" target="_top" xlink:title=" ">
<polygon fill="white" stroke="black" points="132,-77 132,-107 266,-107 266,-77 132,-77"/>
<text text-anchor="start" x="140" y="-95" font-family="Helvetica,sans-Serif" font-size="10.00">satella::impl::PromiseBase</text>
<text text-anchor="middle" x="199" y="-84" font-family="Helvetica,sans-Serif" font-size="10.00">::get_future</text>
</a>
</g>
</g>
<!-- Node1&#45;&gt;Node2 -->
<g id="edge1" class="edge">
<title>Node1&#45;&gt;Node2</title>
<path fill="none" stroke="midnightblue" d="M96.14,-61.92C109.18,-65.77 123.51,-70 137.21,-74.05"/>
<polygon fill="midnightblue" stroke="midnightblue" points="136.45,-77.47 147.04,-76.95 138.44,-70.76 136.45,-77.47"/>
</g>
<!-- Node3 -->
<g id="node3" class="node">
<title>Node3</title>
<g id="a_node3"><a xlink:href="namespacesatella_1_1impl.html#afc3393dcf93c3ea9474a283bbbf6158d" target="_top" xlink:title=" ">
<polygon fill="white" stroke="black" points="302,-19.5 302,-38.5 422,-38.5 422,-19.5 302,-19.5"/>
<text text-anchor="middle" x="362" y="-26.5" font-family="Helvetica,sans-Serif" font-size="10.00">satella::impl::invoke_job</text>
</a>
</g>
</g>
<!-- Node1&#45;&gt;Node3 -->
<g id="edge2" class="edge">
<title>Node1&#45;&gt;Node3</title>
<path fill="none" stroke="midnightblue" d="M96.05,-45.13C148.03,-41.97 232.24,-36.84 291.75,-33.22"/>
<polygon fill="midnightblue" stroke="midnightblue" points="292.05,-36.71 301.82,-32.6 291.63,-29.72 292.05,-36.71"/>
</g>
<!-- Node4 -->
<g id="node4" class="node">
<title>Node4</title>
<g id="a_node4"><a xlink:href="namespacesatella_1_1impl.html#a03c185f51ed2422daa87faf6340ff077" target="_top" xlink:title=" ">
<polygon fill="white" stroke="black" points="143,-0.5 143,-19.5 255,-19.5 255,-0.5 143,-0.5"/>
<text text-anchor="middle" x="199" y="-7.5" font-family="Helvetica,sans-Serif" font-size="10.00">satella::impl::post_job</text>
</a>
</g>
</g>
<!-- Node1&#45;&gt;Node4 -->
<g id="edge3" class="edge">
<title>Node1&#45;&gt;Node4</title>
<path fill="none" stroke="midnightblue" d="M96.14,-35.98C113.53,-31.54 133.23,-26.52 150.64,-22.08"/>
<polygon fill="midnightblue" stroke="midnightblue" points="151.77,-25.4 160.59,-19.54 150.04,-18.62 151.77,-25.4"/>
</g>
<!-- Node4&#45;&gt;Node3 -->
<g id="edge4" class="edge">
<title>Node4&#45;&gt;Node3</title>
<path fill="none" stroke="midnightblue" d="M255.41,-16.54C267.13,-17.92 279.65,-19.4 291.81,-20.83"/>
<polygon fill="midnightblue" stroke="midnightblue" points="291.58,-24.33 301.92,-22.03 292.4,-17.38 291.58,-24.33"/>
</g>
</g>
</svg>
