<?xml version="1.0" encoding="UTF-8" standalone="no"?>
<!DOCTYPE svg PUBLIC "-//W3C//DTD SVG 1.1//EN"
 "http://www.w3.org/Graphics/SVG/1.1/DTD/svg11.dtd">
<!-- Generated by graphviz version 2.44.1 (20200629.0800)
 -->
<!-- Title: satella::impl::CancellationToken::unset_callback Pages: 1 -->
<svg width="306pt" height="39pt"
 viewBox="0.00 0.00 306.00 39.00" xmlns="http://www.w3.org/2000/svg" xmlns:xlink="http://www.w3.org/1999/xlink">
<g id="graph0" class="graph" transform="scale(1 1) rotate(0) translate(4 35)">
<title>satella::impl::CancellationToken::unset_callback</title>
<polygon fill="white" stroke="transparent" points="-4,4 -4,-35 302,-35 302,4 -4,4"/>
<!-- Node1 -->
<g id="node1" class="node">
<title>Node1</title>
<g id="a_node1"><a xlink:title=" ">
<polygon fill="#bfbfbf" stroke="black" points="0,-0.5 0,-30.5 128,-30.5 128,-0.5 0,-0.5"/>
<text text-anchor="start" x="8" y="-18.5" font-family="Helvetica,sans-Serif" font-size="10.00">satella::impl::Cancellation</text>
<text text-anchor="middle" x="64" y="-7.5" font-family="Helvetica,sans-Serif" font-size="10.00">Token::unset_callback</text>
</a>
</g>
</g>
<!-- Node2 -->
<g id="node2" class="node">
<title>Node2</title>
<g id="a_node2"><a xlink:href="classsatella_1_1impl_1_1_shared_future.html#a4d3db2661420d35e4bc2722564a3471c" target="_top" xlink:title=" ">
<polygon fill="white" stroke="black" points="164,-0.5 164,-30.5 298,-30.5 298,-0.5 164,-0.5"/>
<text text-anchor="start" x="172" y="-18.5" font-family="Helvetica,sans-Serif" font-size="10.00">satella::impl::SharedFuture</text>
<text text-anchor="middle" x="231" y="-7.5" font-family="Helvetica,sans-Serif" font-size="10.00">::unset_callback</text>
</a>
</g>
</g>
<!-- Node1&#45;&gt;Node2 -->
<g id="edge1" class="edge">
<title>Node1&#45;&gt;Node2</title>
<path fill="none" stroke="midnightblue" d="M128.32,-15.5C136.59,-15.5 145.13,-15.5 153.59,-15.5"/>
<polygon fill="midnightblue" stroke="midnightblue" points="153.84,-19 163.84,-15.5 153.84,-12 153.84,-19"/>
</g>
</g>
</svg>
