<?xml version="1.0" encoding="UTF-8" standalone="no"?>
<!DOCTYPE svg PUBLIC "-//W3C//DTD SVG 1.1//EN"
 "http://www.w3.org/Graphics/SVG/1.1/DTD/svg11.dtd">
<!-- Generated by graphviz version 2.44.1 (20200629.0800)
 -->
<!-- Title: satella::impl::State&lt; void &gt;::unsafe_get_value Pages: 1 -->
<svg width="318pt" height="110pt"
 viewBox="0.00 0.00 318.00 110.00" xmlns="http://www.w3.org/2000/svg" xmlns:xlink="http://www.w3.org/1999/xlink">
<g id="graph0" class="graph" transform="scale(1 1) rotate(0) translate(4 106)">
<title>satella::impl::State&lt; void &gt;::unsafe_get_value</title>
<polygon fill="white" stroke="transparent" points="-4,4 -4,-106 314,-106 314,4 -4,4"/>
<!-- Node1 -->
<g id="node1" class="node">
<title>Node1</title>
<g id="a_node1"><a xlink:title=" ">
<polygon fill="#bfbfbf" stroke="black" points="0,-36 0,-66 131,-66 131,-36 0,-36"/>
<text text-anchor="start" x="8" y="-54" font-family="Helvetica,sans-Serif" font-size="10.00">satella::impl::State</text>
<text text-anchor="middle" x="65.5" y="-43" font-family="Helvetica,sans-Serif" font-size="10.00">&lt; void &gt;::unsafe_get_value</text>
</a>
</g>
</g>
<!-- Node2 -->
<g id="node2" class="node">
<title>Node2</title>
<g id="a_node2"><a xlink:href="classsatella_1_1impl_1_1_state_base.html#ab8a777502402a2d5ddfa01eb2f81ab71" target="_top" xlink:title=" ">
<polygon fill="white" stroke="black" points="176.5,-60.5 176.5,-101.5 300.5,-101.5 300.5,-60.5 176.5,-60.5"/>
<text text-anchor="start" x="184.5" y="-89.5" font-family="Helvetica,sans-Serif" font-size="10.00">satella::impl::StateBase</text>
<text text-anchor="start" x="184.5" y="-78.5" font-family="Helvetica,sans-Serif" font-size="10.00">&lt; variant&lt; std::exception</text>
<text text-anchor="middle" x="238.5" y="-67.5" font-family="Helvetica,sans-Serif" font-size="10.00">_ptr, T &gt; &gt;::get_lock</text>
</a>
</g>
</g>
<!-- Node1&#45;&gt;Node2 -->
<g id="edge1" class="edge">
<title>Node1&#45;&gt;Node2</title>
<path fill="none" stroke="midnightblue" d="M131.15,-62.34C142.63,-64.36 154.65,-66.47 166.31,-68.51"/>
<polygon fill="midnightblue" stroke="midnightblue" points="165.98,-72.01 176.43,-70.29 167.19,-65.11 165.98,-72.01"/>
</g>
<!-- Node3 -->
<g id="node3" class="node">
<title>Node3</title>
<g id="a_node3"><a xlink:href="classsatella_1_1impl_1_1_state_base.html#af657f25544cb5f1c7e2c55ba5b184c00" target="_top" xlink:title=" ">
<polygon fill="white" stroke="black" points="167,-0.5 167,-41.5 310,-41.5 310,-0.5 167,-0.5"/>
<text text-anchor="start" x="175" y="-29.5" font-family="Helvetica,sans-Serif" font-size="10.00">satella::impl::StateBase</text>
<text text-anchor="start" x="175" y="-18.5" font-family="Helvetica,sans-Serif" font-size="10.00">&lt; variant&lt; std::exception</text>
<text text-anchor="middle" x="238.5" y="-7.5" font-family="Helvetica,sans-Serif" font-size="10.00">_ptr, T &gt; &gt;::unsafe_get_value</text>
</a>
</g>
</g>
<!-- Node1&#45;&gt;Node3 -->
<g id="edge2" class="edge">
<title>Node1&#45;&gt;Node3</title>
<path fill="none" stroke="midnightblue" d="M131.15,-39.66C139.51,-38.19 148.15,-36.67 156.73,-35.17"/>
<polygon fill="midnightblue" stroke="midnightblue" points="157.51,-38.59 166.76,-33.41 156.3,-31.69 157.51,-38.59"/>
</g>
</g>
</svg>
