<?xml version="1.0" encoding="UTF-8" standalone="no"?>
<!DOCTYPE svg PUBLIC "-//W3C//DTD SVG 1.1//EN"
 "http://www.w3.org/Graphics/SVG/1.1/DTD/svg11.dtd">
<!-- Generated by graphviz version 2.44.1 (20200629.0800)
 -->
<!-- Title: satella::impl::Task::then Pages: 1 -->
<svg width="430pt" height="154pt"
 viewBox="0.00 0.00 430.00 153.50" xmlns="http://www.w3.org/2000/svg" xmlns:xlink="http://www.w3.org/1999/xlink">
<g id="graph0" class="graph" transform="scale(1 1) rotate(0) translate(4 149.5)">
<title>satella::impl::Task::then</title>
<polygon fill="white" stroke="transparent" points="-4,4 -4,-149.5 426,-149.5 426,4 -4,4"/>
<!-- Node1 -->
<g id="node1" class="node">
<title>Node1</title>
<g id="a_node1"><a xlink:title=" ">
<polygon fill="#bfbfbf" stroke="black" points="0,-52 0,-82 96,-82 96,-52 0,-52"/>
<text text-anchor="start" x="8" y="-70" font-family="Helvetica,sans-Serif" font-size="10.00">satella::impl::Task</text>
<text text-anchor="middle" x="48" y="-59" font-family="Helvetica,sans-Serif" font-size="10.00">::then</text>
</a>
</g>
</g>
<!-- Node2 -->
<g id="node2" class="node">
<title>Node2</title>
<g id="a_node2"><a xlink:href="classsatella_1_1impl_1_1_promise_base.html#ade6148b11d0786db95d31332bd33c441" target="_top" xlink:title=" ">
<polygon fill="white" stroke="black" points="132,-115 132,-145 266,-145 266,-115 132,-115"/>
<text text-anchor="start" x="140" y="-133" font-family="Helvetica,sans-Serif" font-size="10.00">satella::impl::PromiseBase</text>
<text text-anchor="middle" x="199" y="-122" font-family="Helvetica,sans-Serif" font-size="10.00">::get_future</text>
</a>
</g>
</g>
<!-- Node1&#45;&gt;Node2 -->
<g id="edge1" class="edge">
<title>Node1&#45;&gt;Node2</title>
<path fill="none" stroke="midnightblue" d="M80.7,-82.12C96.08,-89.3 114.89,-97.85 132,-105 137.02,-107.1 142.28,-109.22 147.55,-111.29"/>
<polygon fill="midnightblue" stroke="midnightblue" points="146.4,-114.6 156.99,-114.96 148.93,-108.07 146.4,-114.6"/>
</g>
<!-- Node3 -->
<g id="node3" class="node">
<title>Node3</title>
<g id="a_node3"><a xlink:href="namespacesatella.html#a29e939a48de9d2e3472fbfcc5de87aba" target="_top" xlink:title=" ">
<polygon fill="white" stroke="black" points="162,-76.5 162,-95.5 236,-95.5 236,-76.5 162,-76.5"/>
<text text-anchor="middle" x="199" y="-83.5" font-family="Helvetica,sans-Serif" font-size="10.00">satella::index</text>
</a>
</g>
</g>
<!-- Node1&#45;&gt;Node3 -->
<g id="edge2" class="edge">
<title>Node1&#45;&gt;Node3</title>
<path fill="none" stroke="midnightblue" d="M96.14,-73.01C113.82,-75.27 133.88,-77.82 151.5,-80.07"/>
<polygon fill="midnightblue" stroke="midnightblue" points="151.19,-83.56 161.55,-81.35 152.07,-76.62 151.19,-83.56"/>
</g>
<!-- Node4 -->
<g id="node4" class="node">
<title>Node4</title>
<g id="a_node4"><a xlink:href="namespacesatella_1_1impl.html#afc3393dcf93c3ea9474a283bbbf6158d" target="_top" xlink:title=" ">
<polygon fill="white" stroke="black" points="302,-19.5 302,-38.5 422,-38.5 422,-19.5 302,-19.5"/>
<text text-anchor="middle" x="362" y="-26.5" font-family="Helvetica,sans-Serif" font-size="10.00">satella::impl::invoke_job</text>
</a>
</g>
</g>
<!-- Node1&#45;&gt;Node4 -->
<g id="edge3" class="edge">
<title>Node1&#45;&gt;Node4</title>
<path fill="none" stroke="midnightblue" d="M96.05,-61.27C148.03,-54.94 232.24,-44.68 291.75,-37.43"/>
<polygon fill="midnightblue" stroke="midnightblue" points="292.32,-40.89 301.82,-36.21 291.47,-33.94 292.32,-40.89"/>
</g>
<!-- Node5 -->
<g id="node5" class="node">
<title>Node5</title>
<g id="a_node5"><a xlink:href="namespacesatella_1_1impl.html#a03c185f51ed2422daa87faf6340ff077" target="_top" xlink:title=" ">
<polygon fill="white" stroke="black" points="143,-0.5 143,-19.5 255,-19.5 255,-0.5 143,-0.5"/>
<text text-anchor="middle" x="199" y="-7.5" font-family="Helvetica,sans-Serif" font-size="10.00">satella::impl::post_job</text>
</a>
</g>
</g>
<!-- Node1&#45;&gt;Node5 -->
<g id="edge4" class="edge">
<title>Node1&#45;&gt;Node5</title>
<path fill="none" stroke="midnightblue" d="M86.09,-51.98C100.4,-46.26 116.93,-39.74 132,-34 141.66,-30.33 152.15,-26.45 161.88,-22.92"/>
<polygon fill="midnightblue" stroke="midnightblue" points="163.07,-26.21 171.28,-19.51 160.69,-19.63 163.07,-26.21"/>
</g>
<!-- Node5&#45;&gt;Node4 -->
<g id="edge5" class="edge">
<title>Node5&#45;&gt;Node4</title>
<path fill="none" stroke="midnightblue" d="M255.41,-16.54C267.13,-17.92 279.65,-19.4 291.81,-20.83"/>
<polygon fill="midnightblue" stroke="midnightblue" points="291.58,-24.33 301.92,-22.03 292.4,-17.38 291.58,-24.33"/>
</g>
</g>
</svg>
