<?xml version="1.0" encoding="UTF-8" standalone="no"?>
<!DOCTYPE svg PUBLIC "-//W3C//DTD SVG 1.1//EN"
 "http://www.w3.org/Graphics/SVG/1.1/DTD/svg11.dtd">
<!-- Generated by graphviz version 2.44.1 (20200629.0800)
 -->
<!-- Title: satella::impl::State::unsafe_get_value Pages: 1 -->
<svg width="285pt" height="148pt"
 viewBox="0.00 0.00 285.00 148.00" xmlns="http://www.w3.org/2000/svg" xmlns:xlink="http://www.w3.org/1999/xlink">
<g id="graph0" class="graph" transform="scale(1 1) rotate(0) translate(4 144)">
<title>satella::impl::State::unsafe_get_value</title>
<polygon fill="white" stroke="transparent" points="-4,4 -4,-144 281,-144 281,4 -4,4"/>
<!-- Node1 -->
<g id="node1" class="node">
<title>Node1</title>
<g id="a_node1"><a xlink:title=" ">
<polygon fill="#bfbfbf" stroke="black" points="0,-55 0,-85 98,-85 98,-55 0,-55"/>
<text text-anchor="start" x="8" y="-73" font-family="Helvetica,sans-Serif" font-size="10.00">satella::impl::State</text>
<text text-anchor="middle" x="49" y="-62" font-family="Helvetica,sans-Serif" font-size="10.00">::unsafe_get_value</text>
</a>
</g>
</g>
<!-- Node2 -->
<g id="node2" class="node">
<title>Node2</title>
<g id="a_node2"><a xlink:href="classsatella_1_1impl_1_1_state_base.html#ab8a777502402a2d5ddfa01eb2f81ab71" target="_top" xlink:title=" ">
<polygon fill="white" stroke="black" points="143.5,-98.5 143.5,-139.5 267.5,-139.5 267.5,-98.5 143.5,-98.5"/>
<text text-anchor="start" x="151.5" y="-127.5" font-family="Helvetica,sans-Serif" font-size="10.00">satella::impl::StateBase</text>
<text text-anchor="start" x="151.5" y="-116.5" font-family="Helvetica,sans-Serif" font-size="10.00">&lt; variant&lt; std::exception</text>
<text text-anchor="middle" x="205.5" y="-105.5" font-family="Helvetica,sans-Serif" font-size="10.00">_ptr, T &gt; &gt;::get_lock</text>
</a>
</g>
</g>
<!-- Node1&#45;&gt;Node2 -->
<g id="edge1" class="edge">
<title>Node1&#45;&gt;Node2</title>
<path fill="none" stroke="midnightblue" d="M97.62,-85.1C109.02,-88.72 121.44,-92.66 133.64,-96.53"/>
<polygon fill="midnightblue" stroke="midnightblue" points="132.77,-99.92 143.36,-99.61 134.89,-93.25 132.77,-99.92"/>
</g>
<!-- Node3 -->
<g id="node3" class="node">
<title>Node3</title>
<g id="a_node3"><a xlink:href="namespacesatella.html#a29e939a48de9d2e3472fbfcc5de87aba" target="_top" xlink:title=" ">
<polygon fill="white" stroke="black" points="168.5,-60.5 168.5,-79.5 242.5,-79.5 242.5,-60.5 168.5,-60.5"/>
<text text-anchor="middle" x="205.5" y="-67.5" font-family="Helvetica,sans-Serif" font-size="10.00">satella::index</text>
</a>
</g>
</g>
<!-- Node1&#45;&gt;Node3 -->
<g id="edge2" class="edge">
<title>Node1&#45;&gt;Node3</title>
<path fill="none" stroke="midnightblue" d="M98.04,-70C117.17,-70 139.11,-70 158.08,-70"/>
<polygon fill="midnightblue" stroke="midnightblue" points="158.28,-73.5 168.28,-70 158.28,-66.5 158.28,-73.5"/>
</g>
<!-- Node4 -->
<g id="node4" class="node">
<title>Node4</title>
<g id="a_node4"><a xlink:href="classsatella_1_1impl_1_1_state_base.html#af657f25544cb5f1c7e2c55ba5b184c00" target="_top" xlink:title=" ">
<polygon fill="white" stroke="black" points="134,-0.5 134,-41.5 277,-41.5 277,-0.5 134,-0.5"/>
<text text-anchor="start" x="142" y="-29.5" font-family="Helvetica,sans-Serif" font-size="10.00">satella::impl::StateBase</text>
<text text-anchor="start" x="142" y="-18.5" font-family="Helvetica,sans-Serif" font-size="10.00">&lt; variant&lt; std::exception</text>
<text text-anchor="middle" x="205.5" y="-7.5" font-family="Helvetica,sans-Serif" font-size="10.00">_ptr, T &gt; &gt;::unsafe_get_value</text>
</a>
</g>
</g>
<!-- Node1&#45;&gt;Node4 -->
<g id="edge3" class="edge">
<title>Node1&#45;&gt;Node4</title>
<path fill="none" stroke="midnightblue" d="M97.62,-54.9C107.9,-51.64 119.01,-48.11 130.05,-44.61"/>
<polygon fill="midnightblue" stroke="midnightblue" points="131.23,-47.91 139.71,-41.55 129.12,-41.24 131.23,-47.91"/>
</g>
</g>
</svg>
