<?xml version="1.0" encoding="UTF-8" standalone="no"?>
<!DOCTYPE svg PUBLIC "-//W3C//DTD SVG 1.1//EN"
 "http://www.w3.org/Graphics/SVG/1.1/DTD/svg11.dtd">
<!-- Generated by graphviz version 2.44.1 (20200629.0800)
 -->
<!-- Title: satella::impl::StateBase::get_lock Pages: 1 -->
<svg width="318pt" height="203pt"
 viewBox="0.00 0.00 318.00 203.00" xmlns="http://www.w3.org/2000/svg" xmlns:xlink="http://www.w3.org/1999/xlink">
<g id="graph0" class="graph" transform="scale(1 1) rotate(0) translate(4 199)">
<title>satella::impl::StateBase::get_lock</title>
<polygon fill="white" stroke="transparent" points="-4,4 -4,-199 314,-199 314,4 -4,4"/>
<!-- Node1 -->
<g id="node1" class="node">
<title>Node1</title>
<g id="a_node1"><a xlink:title=" ">
<polygon fill="#bfbfbf" stroke="black" points="189,-82.5 189,-112.5 310,-112.5 310,-82.5 189,-82.5"/>
<text text-anchor="start" x="197" y="-100.5" font-family="Helvetica,sans-Serif" font-size="10.00">satella::impl::StateBase</text>
<text text-anchor="middle" x="249.5" y="-89.5" font-family="Helvetica,sans-Serif" font-size="10.00">::get_lock</text>
</a>
</g>
</g>
<!-- Node2 -->
<g id="node2" class="node">
<title>Node2</title>
<g id="a_node2"><a xlink:href="classsatella_1_1impl_1_1_state_base.html#a6bccbc2088a414405dc207874e2a6669" target="_top" xlink:title=" ">
<polygon fill="white" stroke="black" points="8,-142.5 8,-194.5 145,-194.5 145,-142.5 8,-142.5"/>
<text text-anchor="start" x="16" y="-182.5" font-family="Helvetica,sans-Serif" font-size="10.00">satella::impl::StateBase</text>
<text text-anchor="start" x="16" y="-171.5" font-family="Helvetica,sans-Serif" font-size="10.00">&lt; variant&lt; std::exception</text>
<text text-anchor="start" x="16" y="-160.5" font-family="Helvetica,sans-Serif" font-size="10.00">_ptr, std::reference_wrapper</text>
<text text-anchor="middle" x="76.5" y="-149.5" font-family="Helvetica,sans-Serif" font-size="10.00">&lt; T &gt; &gt; &gt;::set_callback</text>
</a>
</g>
</g>
<!-- Node1&#45;&gt;Node2 -->
<g id="edge1" class="edge">
<title>Node1&#45;&gt;Node2</title>
<path fill="none" stroke="midnightblue" d="M202.83,-116.46C183.65,-124.42 161.03,-133.82 140.32,-142.42"/>
<polygon fill="midnightblue" stroke="midnightblue" points="204.34,-119.62 212.24,-112.56 201.66,-113.16 204.34,-119.62"/>
</g>
<!-- Node3 -->
<g id="node3" class="node">
<title>Node3</title>
<g id="a_node3"><a xlink:href="classsatella_1_1impl_1_1_state_base.html#a24941f18fb25527b7cc54f20a4ebe7bb" target="_top" xlink:title=" ">
<polygon fill="white" stroke="black" points="0,-71.5 0,-123.5 153,-123.5 153,-71.5 0,-71.5"/>
<text text-anchor="start" x="8" y="-111.5" font-family="Helvetica,sans-Serif" font-size="10.00">satella::impl::StateBase</text>
<text text-anchor="start" x="8" y="-100.5" font-family="Helvetica,sans-Serif" font-size="10.00">&lt; variant&lt; std::exception</text>
<text text-anchor="start" x="8" y="-89.5" font-family="Helvetica,sans-Serif" font-size="10.00">_ptr, std::reference_wrapper</text>
<text text-anchor="middle" x="76.5" y="-78.5" font-family="Helvetica,sans-Serif" font-size="10.00">&lt; T &gt; &gt; &gt;::set_shared_callback</text>
</a>
</g>
</g>
<!-- Node1&#45;&gt;Node3 -->
<g id="edge2" class="edge">
<title>Node1&#45;&gt;Node3</title>
<path fill="none" stroke="midnightblue" d="M178.61,-97.5C170.23,-97.5 161.66,-97.5 153.21,-97.5"/>
<polygon fill="midnightblue" stroke="midnightblue" points="178.69,-101 188.69,-97.5 178.69,-94 178.69,-101"/>
</g>
<!-- Node4 -->
<g id="node4" class="node">
<title>Node4</title>
<g id="a_node4"><a xlink:href="classsatella_1_1impl_1_1_state_base.html#afbd5049e35aa3cef7b5bbaca10b1081e" target="_top" xlink:title=" ">
<polygon fill="white" stroke="black" points="8,-0.5 8,-52.5 145,-52.5 145,-0.5 8,-0.5"/>
<text text-anchor="start" x="16" y="-40.5" font-family="Helvetica,sans-Serif" font-size="10.00">satella::impl::StateBase</text>
<text text-anchor="start" x="16" y="-29.5" font-family="Helvetica,sans-Serif" font-size="10.00">&lt; variant&lt; std::exception</text>
<text text-anchor="start" x="16" y="-18.5" font-family="Helvetica,sans-Serif" font-size="10.00">_ptr, std::reference_wrapper</text>
<text text-anchor="middle" x="76.5" y="-7.5" font-family="Helvetica,sans-Serif" font-size="10.00">&lt; T &gt; &gt; &gt;::set_value</text>
</a>
</g>
</g>
<!-- Node1&#45;&gt;Node4 -->
<g id="edge3" class="edge">
<title>Node1&#45;&gt;Node4</title>
<path fill="none" stroke="midnightblue" d="M202.83,-78.54C183.65,-70.58 161.03,-61.18 140.32,-52.58"/>
<polygon fill="midnightblue" stroke="midnightblue" points="201.66,-81.84 212.24,-82.44 204.34,-75.38 201.66,-81.84"/>
</g>
</g>
</svg>
