<?xml version="1.0" encoding="UTF-8" standalone="no"?>
<!DOCTYPE svg PUBLIC "-//W3C//DTD SVG 1.1//EN"
 "http://www.w3.org/Graphics/SVG/1.1/DTD/svg11.dtd">
<!-- Generated by graphviz version 2.44.1 (20200629.0800)
 -->
<!-- Title: include/satella/functional.hpp Pages: 1 -->
<svg width="434pt" height="386pt"
 viewBox="0.00 0.00 433.95 386.00" xmlns="http://www.w3.org/2000/svg" xmlns:xlink="http://www.w3.org/1999/xlink">
<g id="graph0" class="graph" transform="scale(1 1) rotate(0) translate(4 382)">
<title>include/satella/functional.hpp</title>
<polygon fill="white" stroke="transparent" points="-4,4 -4,-382 429.95,-382 429.95,4 -4,4"/>
<!-- Node1 -->
<g id="node1" class="node">
<title>Node1</title>
<g id="a_node1"><a xlink:title=" ">
<polygon fill="#bfbfbf" stroke="black" points="122.45,-358.5 122.45,-377.5 264.45,-377.5 264.45,-358.5 122.45,-358.5"/>
<text text-anchor="middle" x="193.45" y="-365.5" font-family="Helvetica,sans-Serif" font-size="10.00">include/satella/functional.hpp</text>
</a>
</g>
</g>
<!-- Node2 -->
<g id="node2" class="node">
<title>Node2</title>
<g id="a_node2"><a xlink:href="cancellation_8hpp.html" target="_top" xlink:title=" ">
<polygon fill="white" stroke="black" points="11.45,-123.5 11.45,-142.5 163.45,-142.5 163.45,-123.5 11.45,-123.5"/>
<text text-anchor="middle" x="87.45" y="-130.5" font-family="Helvetica,sans-Serif" font-size="10.00">include/satella/cancellation.hpp</text>
</a>
</g>
</g>
<!-- Node1&#45;&gt;Node2 -->
<g id="edge1" class="edge">
<title>Node1&#45;&gt;Node2</title>
<path fill="none" stroke="midnightblue" d="M165,-353.92C120.7,-331.71 37.16,-281.91 6.45,-210 1.04,-197.33 -0.54,-190.87 6.45,-179 17.22,-160.7 38.42,-149.31 56.43,-142.56"/>
<polygon fill="midnightblue" stroke="midnightblue" points="163.56,-357.11 174.08,-358.36 166.63,-350.82 163.56,-357.11"/>
</g>
<!-- Node5 -->
<g id="node5" class="node">
<title>Node5</title>
<g id="a_node5"><a xlink:href="state_8hpp.html" target="_top" xlink:title=" ">
<polygon fill="white" stroke="black" points="132.45,-302.5 132.45,-321.5 254.45,-321.5 254.45,-302.5 132.45,-302.5"/>
<text text-anchor="middle" x="193.45" y="-309.5" font-family="Helvetica,sans-Serif" font-size="10.00">include/satella/state.hpp</text>
</a>
</g>
</g>
<!-- Node1&#45;&gt;Node5 -->
<g id="edge5" class="edge">
<title>Node1&#45;&gt;Node5</title>
<path fill="none" stroke="midnightblue" d="M193.45,-347.8C193.45,-338.91 193.45,-328.78 193.45,-321.75"/>
<polygon fill="midnightblue" stroke="midnightblue" points="189.95,-348.08 193.45,-358.08 196.95,-348.08 189.95,-348.08"/>
</g>
<!-- Node8 -->
<g id="node8" class="node">
<title>Node8</title>
<g id="a_node8"><a xlink:href="task_8hpp.html" target="_top" xlink:title=" ">
<polygon fill="white" stroke="black" points="306.95,-123.5 306.95,-142.5 425.95,-142.5 425.95,-123.5 306.95,-123.5"/>
<text text-anchor="middle" x="366.45" y="-130.5" font-family="Helvetica,sans-Serif" font-size="10.00">include/satella/task.hpp</text>
</a>
</g>
</g>
<!-- Node1&#45;&gt;Node8 -->
<g id="edge20" class="edge">
<title>Node1&#45;&gt;Node8</title>
<path fill="none" stroke="midnightblue" d="M222.43,-354.07C267.56,-332.07 352.74,-282.55 384.45,-210 394.55,-186.89 380.47,-157.24 372.01,-142.76"/>
<polygon fill="midnightblue" stroke="midnightblue" points="220.71,-351.01 213.18,-358.47 223.71,-357.33 220.71,-351.01"/>
</g>
<!-- Node3 -->
<g id="node3" class="node">
<title>Node3</title>
<g id="a_node3"><a xlink:href="blocking__queue_8hpp.html" target="_top" xlink:title=" ">
<polygon fill="white" stroke="black" points="47.45,-56.5 47.45,-86.5 165.45,-86.5 165.45,-56.5 47.45,-56.5"/>
<text text-anchor="start" x="55.45" y="-74.5" font-family="Helvetica,sans-Serif" font-size="10.00">include/satella/blocking</text>
<text text-anchor="middle" x="106.45" y="-63.5" font-family="Helvetica,sans-Serif" font-size="10.00">_queue.hpp</text>
</a>
</g>
</g>
<!-- Node2&#45;&gt;Node3 -->
<g id="edge2" class="edge">
<title>Node2&#45;&gt;Node3</title>
<path fill="none" stroke="midnightblue" d="M93.25,-113.82C96.06,-105.04 99.37,-94.68 101.97,-86.52"/>
<polygon fill="midnightblue" stroke="midnightblue" points="89.88,-112.88 90.17,-123.48 96.55,-115.01 89.88,-112.88"/>
</g>
<!-- Node4 -->
<g id="node4" class="node">
<title>Node4</title>
<g id="a_node4"><a xlink:href="satella_8hpp.html" target="_top" xlink:title=" ">
<polygon fill="white" stroke="black" points="84.95,-0.5 84.95,-19.5 213.95,-19.5 213.95,-0.5 84.95,-0.5"/>
<text text-anchor="middle" x="149.45" y="-7.5" font-family="Helvetica,sans-Serif" font-size="10.00">include/satella/satella.hpp</text>
</a>
</g>
</g>
<!-- Node2&#45;&gt;Node4 -->
<g id="edge4" class="edge">
<title>Node2&#45;&gt;Node4</title>
<path fill="none" stroke="midnightblue" d="M64.35,-117.35C54.41,-109.66 43.84,-99.27 38.45,-87 32.91,-74.39 30.75,-67.43 38.45,-56 51.34,-36.86 73.92,-25.85 95.37,-19.53"/>
<polygon fill="midnightblue" stroke="midnightblue" points="62.62,-120.42 72.79,-123.4 66.7,-114.73 62.62,-120.42"/>
</g>
<!-- Node3&#45;&gt;Node4 -->
<g id="edge3" class="edge">
<title>Node3&#45;&gt;Node4</title>
<path fill="none" stroke="midnightblue" d="M122.63,-48.1C129.8,-38.19 137.81,-27.11 143.19,-19.66"/>
<polygon fill="midnightblue" stroke="midnightblue" points="119.66,-46.24 116.64,-56.4 125.33,-50.34 119.66,-46.24"/>
</g>
<!-- Node6 -->
<g id="node6" class="node">
<title>Node6</title>
<g id="a_node6"><a xlink:href="future_8hpp.html" target="_top" xlink:title=" ">
<polygon fill="white" stroke="black" points="130.95,-246.5 130.95,-265.5 255.95,-265.5 255.95,-246.5 130.95,-246.5"/>
<text text-anchor="middle" x="193.45" y="-253.5" font-family="Helvetica,sans-Serif" font-size="10.00">include/satella/future.hpp</text>
</a>
</g>
</g>
<!-- Node5&#45;&gt;Node6 -->
<g id="edge6" class="edge">
<title>Node5&#45;&gt;Node6</title>
<path fill="none" stroke="midnightblue" d="M193.45,-291.8C193.45,-282.91 193.45,-272.78 193.45,-265.75"/>
<polygon fill="midnightblue" stroke="midnightblue" points="189.95,-292.08 193.45,-302.08 196.95,-292.08 189.95,-292.08"/>
</g>
<!-- Node7 -->
<g id="node7" class="node">
<title>Node7</title>
<g id="a_node7"><a xlink:href="promise_8hpp.html" target="_top" xlink:title=" ">
<polygon fill="white" stroke="black" points="221.95,-185 221.95,-204 356.95,-204 356.95,-185 221.95,-185"/>
<text text-anchor="middle" x="289.45" y="-192" font-family="Helvetica,sans-Serif" font-size="10.00">include/satella/promise.hpp</text>
</a>
</g>
</g>
<!-- Node5&#45;&gt;Node7 -->
<g id="edge18" class="edge">
<title>Node5&#45;&gt;Node7</title>
<path fill="none" stroke="midnightblue" d="M223.9,-297.93C238.24,-290.43 254.56,-279.74 265.45,-266 280.38,-247.15 286.29,-218.48 288.4,-204.2"/>
<polygon fill="midnightblue" stroke="midnightblue" points="222.25,-294.84 214.83,-302.4 225.35,-301.12 222.25,-294.84"/>
</g>
<!-- Node9 -->
<g id="node9" class="node">
<title>Node9</title>
<g id="a_node9"><a xlink:href="shared__future_8hpp.html" target="_top" xlink:title=" ">
<polygon fill="white" stroke="black" points="15.95,-179.5 15.95,-209.5 126.95,-209.5 126.95,-179.5 15.95,-179.5"/>
<text text-anchor="start" x="23.95" y="-197.5" font-family="Helvetica,sans-Serif" font-size="10.00">include/satella/shared</text>
<text text-anchor="middle" x="71.45" y="-186.5" font-family="Helvetica,sans-Serif" font-size="10.00">_future.hpp</text>
</a>
</g>
</g>
<!-- Node5&#45;&gt;Node9 -->
<g id="edge19" class="edge">
<title>Node5&#45;&gt;Node9</title>
<path fill="none" stroke="midnightblue" d="M167.31,-297.62C153.12,-289.61 135.79,-278.55 122.45,-266 104.4,-249.03 88.55,-224.87 79.48,-209.69"/>
<polygon fill="midnightblue" stroke="midnightblue" points="165.66,-300.71 176.12,-302.44 169.02,-294.57 165.66,-300.71"/>
</g>
<!-- Node6&#45;&gt;Node2 -->
<g id="edge7" class="edge">
<title>Node6&#45;&gt;Node2</title>
<path fill="none" stroke="midnightblue" d="M181.95,-237.84C170.99,-221.96 153.66,-198.01 136.45,-179 124.2,-165.47 108.41,-151.5 98.11,-142.79"/>
<polygon fill="midnightblue" stroke="midnightblue" points="179.09,-239.87 187.61,-246.16 184.87,-235.93 179.09,-239.87"/>
</g>
<!-- Node6&#45;&gt;Node4 -->
<g id="edge13" class="edge">
<title>Node6&#45;&gt;Node4</title>
<path fill="none" stroke="midnightblue" d="M194.18,-235.99C195.02,-199.98 194.24,-119.72 174.45,-56 170.26,-42.51 161.72,-28.53 155.79,-19.81"/>
<polygon fill="midnightblue" stroke="midnightblue" points="190.67,-236.31 193.86,-246.42 197.67,-236.53 190.67,-236.31"/>
</g>
<!-- Node6&#45;&gt;Node7 -->
<g id="edge8" class="edge">
<title>Node6&#45;&gt;Node7</title>
<path fill="none" stroke="midnightblue" d="M215.9,-241.09C234.42,-229.6 260.12,-213.68 275.72,-204.01"/>
<polygon fill="midnightblue" stroke="midnightblue" points="213.86,-238.23 207.2,-246.48 217.55,-244.18 213.86,-238.23"/>
</g>
<!-- Node6&#45;&gt;Node8 -->
<g id="edge17" class="edge">
<title>Node6&#45;&gt;Node8</title>
<path fill="none" stroke="midnightblue" d="M265.85,-245.18C307.41,-237.89 353.79,-226.37 366.45,-210 381.78,-190.17 374.35,-157.91 369.51,-142.6"/>
<polygon fill="midnightblue" stroke="midnightblue" points="265.24,-241.73 255.97,-246.85 266.41,-248.63 265.24,-241.73"/>
</g>
<!-- Node6&#45;&gt;Node9 -->
<g id="edge14" class="edge">
<title>Node6&#45;&gt;Node9</title>
<path fill="none" stroke="midnightblue" d="M166.94,-242.07C147.24,-232.47 120.41,-219.38 100.2,-209.52"/>
<polygon fill="midnightblue" stroke="midnightblue" points="165.45,-245.24 175.97,-246.48 168.51,-238.95 165.45,-245.24"/>
</g>
<!-- Node7&#45;&gt;Node2 -->
<g id="edge9" class="edge">
<title>Node7&#45;&gt;Node2</title>
<path fill="none" stroke="midnightblue" d="M250.75,-182.1C211.5,-170.54 151.64,-152.91 116.34,-142.51"/>
<polygon fill="midnightblue" stroke="midnightblue" points="249.92,-185.51 260.51,-184.98 251.9,-178.79 249.92,-185.51"/>
</g>
<!-- Node7&#45;&gt;Node4 -->
<g id="edge10" class="edge">
<title>Node7&#45;&gt;Node4</title>
<path fill="none" stroke="midnightblue" d="M281.4,-175.47C268.47,-147.79 241.09,-94.02 207.45,-56 194.44,-41.3 176.1,-28 163.54,-19.74"/>
<polygon fill="midnightblue" stroke="midnightblue" points="278.28,-177.08 285.63,-184.72 284.65,-174.17 278.28,-177.08"/>
</g>
<!-- Node7&#45;&gt;Node8 -->
<g id="edge11" class="edge">
<title>Node7&#45;&gt;Node8</title>
<path fill="none" stroke="midnightblue" d="M308.48,-178.79C323.25,-167.38 343.21,-151.96 355.44,-142.51"/>
<polygon fill="midnightblue" stroke="midnightblue" points="306.25,-176.09 300.48,-184.98 310.53,-181.63 306.25,-176.09"/>
</g>
<!-- Node8&#45;&gt;Node4 -->
<g id="edge12" class="edge">
<title>Node8&#45;&gt;Node4</title>
<path fill="none" stroke="midnightblue" d="M350.55,-115.9C333.16,-99.05 303.84,-72.75 274.45,-56 245.19,-39.33 208.65,-27.03 182.65,-19.55"/>
<polygon fill="midnightblue" stroke="midnightblue" points="348.5,-118.8 358.08,-123.34 353.42,-113.82 348.5,-118.8"/>
</g>
<!-- Node9&#45;&gt;Node2 -->
<g id="edge15" class="edge">
<title>Node9&#45;&gt;Node2</title>
<path fill="none" stroke="midnightblue" d="M77.88,-169.59C80.44,-160.08 83.22,-149.73 85.12,-142.66"/>
<polygon fill="midnightblue" stroke="midnightblue" points="74.46,-168.83 75.24,-179.4 81.22,-170.65 74.46,-168.83"/>
</g>
<!-- Node9&#45;&gt;Node4 -->
<g id="edge16" class="edge">
<title>Node9&#45;&gt;Node4</title>
<path fill="none" stroke="midnightblue" d="M32.04,-174.01C20.34,-166.11 8.93,-155.78 2.45,-143 -1.57,-135.07 0.7,-131.72 2.45,-123 8.79,-91.36 7.24,-78.43 30.45,-56 49.99,-37.12 78.22,-26 102.28,-19.53"/>
<polygon fill="midnightblue" stroke="midnightblue" points="30.21,-176.99 40.54,-179.34 33.93,-171.06 30.21,-176.99"/>
</g>
</g>
</svg>
