<?xml version="1.0" encoding="UTF-8" standalone="no"?>
<!DOCTYPE svg PUBLIC "-//W3C//DTD SVG 1.1//EN"
 "http://www.w3.org/Graphics/SVG/1.1/DTD/svg11.dtd">
<!-- Generated by graphviz version 2.44.1 (20200629.0800)
 -->
<!-- Title: include/satella/future.hpp Pages: 1 -->
<svg width="443pt" height="274pt"
 viewBox="0.00 0.00 443.09 274.00" xmlns="http://www.w3.org/2000/svg" xmlns:xlink="http://www.w3.org/1999/xlink">
<g id="graph0" class="graph" transform="scale(1 1) rotate(0) translate(4 270)">
<title>include/satella/future.hpp</title>
<polygon fill="white" stroke="transparent" points="-4,4 -4,-270 439.09,-270 439.09,4 -4,4"/>
<!-- Node1 -->
<g id="node1" class="node">
<title>Node1</title>
<g id="a_node1"><a xlink:title=" ">
<polygon fill="#bfbfbf" stroke="black" points="137.09,-246.5 137.09,-265.5 262.09,-265.5 262.09,-246.5 137.09,-246.5"/>
<text text-anchor="middle" x="199.59" y="-253.5" font-family="Helvetica,sans-Serif" font-size="10.00">include/satella/future.hpp</text>
</a>
</g>
</g>
<!-- Node2 -->
<g id="node2" class="node">
<title>Node2</title>
<g id="a_node2"><a xlink:href="cancellation_8hpp.html" target="_top" xlink:title=" ">
<polygon fill="white" stroke="black" points="27.59,-123.5 27.59,-142.5 179.59,-142.5 179.59,-123.5 27.59,-123.5"/>
<text text-anchor="middle" x="103.59" y="-130.5" font-family="Helvetica,sans-Serif" font-size="10.00">include/satella/cancellation.hpp</text>
</a>
</g>
</g>
<!-- Node1&#45;&gt;Node2 -->
<g id="edge1" class="edge">
<title>Node1&#45;&gt;Node2</title>
<path fill="none" stroke="midnightblue" d="M165.66,-242.38C150.41,-235.1 133.44,-224.46 122.59,-210 107.25,-189.54 104.2,-158.15 103.65,-142.91"/>
<polygon fill="midnightblue" stroke="midnightblue" points="164.31,-245.61 174.87,-246.49 167.16,-239.22 164.31,-245.61"/>
</g>
<!-- Node4 -->
<g id="node4" class="node">
<title>Node4</title>
<g id="a_node4"><a xlink:href="satella_8hpp.html" target="_top" xlink:title=" ">
<polygon fill="white" stroke="black" points="124.09,-0.5 124.09,-19.5 253.09,-19.5 253.09,-0.5 124.09,-0.5"/>
<text text-anchor="middle" x="188.59" y="-7.5" font-family="Helvetica,sans-Serif" font-size="10.00">include/satella/satella.hpp</text>
</a>
</g>
</g>
<!-- Node1&#45;&gt;Node4 -->
<g id="edge10" class="edge">
<title>Node1&#45;&gt;Node4</title>
<path fill="none" stroke="midnightblue" d="M158.93,-243.23C115.07,-228.07 47.61,-197.02 18.59,-143 0.27,-108.9 -9.11,-86.61 14.59,-56 28.15,-38.48 80.21,-26.55 123.88,-19.4"/>
<polygon fill="midnightblue" stroke="midnightblue" points="157.86,-246.56 168.45,-246.4 160.07,-239.92 157.86,-246.56"/>
</g>
<!-- Node5 -->
<g id="node5" class="node">
<title>Node5</title>
<g id="a_node5"><a xlink:href="promise_8hpp.html" target="_top" xlink:title=" ">
<polygon fill="white" stroke="black" points="132.09,-185 132.09,-204 267.09,-204 267.09,-185 132.09,-185"/>
<text text-anchor="middle" x="199.59" y="-192" font-family="Helvetica,sans-Serif" font-size="10.00">include/satella/promise.hpp</text>
</a>
</g>
</g>
<!-- Node1&#45;&gt;Node5 -->
<g id="edge5" class="edge">
<title>Node1&#45;&gt;Node5</title>
<path fill="none" stroke="midnightblue" d="M199.59,-236.32C199.59,-225.5 199.59,-212.4 199.59,-204.01"/>
<polygon fill="midnightblue" stroke="midnightblue" points="196.09,-236.48 199.59,-246.48 203.09,-236.48 196.09,-236.48"/>
</g>
<!-- Node6 -->
<g id="node6" class="node">
<title>Node6</title>
<g id="a_node6"><a xlink:href="task_8hpp.html" target="_top" xlink:title=" ">
<polygon fill="white" stroke="black" points="236.09,-123.5 236.09,-142.5 355.09,-142.5 355.09,-123.5 236.09,-123.5"/>
<text text-anchor="middle" x="295.59" y="-130.5" font-family="Helvetica,sans-Serif" font-size="10.00">include/satella/task.hpp</text>
</a>
</g>
</g>
<!-- Node1&#45;&gt;Node6 -->
<g id="edge14" class="edge">
<title>Node1&#45;&gt;Node6</title>
<path fill="none" stroke="midnightblue" d="M233.52,-242.38C248.77,-235.1 265.74,-224.46 276.59,-210 291.93,-189.54 294.99,-158.15 295.53,-142.91"/>
<polygon fill="midnightblue" stroke="midnightblue" points="232.02,-239.22 224.32,-246.49 234.88,-245.61 232.02,-239.22"/>
</g>
<!-- Node7 -->
<g id="node7" class="node">
<title>Node7</title>
<g id="a_node7"><a xlink:href="shared__future_8hpp.html" target="_top" xlink:title=" ">
<polygon fill="white" stroke="black" points="324.09,-179.5 324.09,-209.5 435.09,-209.5 435.09,-179.5 324.09,-179.5"/>
<text text-anchor="start" x="332.09" y="-197.5" font-family="Helvetica,sans-Serif" font-size="10.00">include/satella/shared</text>
<text text-anchor="middle" x="379.59" y="-186.5" font-family="Helvetica,sans-Serif" font-size="10.00">_future.hpp</text>
</a>
</g>
</g>
<!-- Node1&#45;&gt;Node7 -->
<g id="edge11" class="edge">
<title>Node1&#45;&gt;Node7</title>
<path fill="none" stroke="midnightblue" d="M235.2,-243.23C264.51,-233.54 306.13,-219.78 337.17,-209.52"/>
<polygon fill="midnightblue" stroke="midnightblue" points="233.78,-240.01 225.38,-246.48 235.97,-246.66 233.78,-240.01"/>
</g>
<!-- Node3 -->
<g id="node3" class="node">
<title>Node3</title>
<g id="a_node3"><a xlink:href="blocking__queue_8hpp.html" target="_top" xlink:title=" ">
<polygon fill="white" stroke="black" points="23.59,-56.5 23.59,-86.5 141.59,-86.5 141.59,-56.5 23.59,-56.5"/>
<text text-anchor="start" x="31.59" y="-74.5" font-family="Helvetica,sans-Serif" font-size="10.00">include/satella/blocking</text>
<text text-anchor="middle" x="82.59" y="-63.5" font-family="Helvetica,sans-Serif" font-size="10.00">_queue.hpp</text>
</a>
</g>
</g>
<!-- Node2&#45;&gt;Node3 -->
<g id="edge2" class="edge">
<title>Node2&#45;&gt;Node3</title>
<path fill="none" stroke="midnightblue" d="M97.17,-113.82C94.08,-105.04 90.42,-94.68 87.54,-86.52"/>
<polygon fill="midnightblue" stroke="midnightblue" points="93.95,-115.21 100.58,-123.48 100.55,-112.88 93.95,-115.21"/>
</g>
<!-- Node2&#45;&gt;Node4 -->
<g id="edge4" class="edge">
<title>Node2&#45;&gt;Node4</title>
<path fill="none" stroke="midnightblue" d="M122.33,-116.76C131.6,-108.6 142.5,-97.97 150.59,-87 167.05,-64.68 179.83,-34.15 185.46,-19.51"/>
<polygon fill="midnightblue" stroke="midnightblue" points="120.05,-114.11 114.72,-123.26 124.6,-119.43 120.05,-114.11"/>
</g>
<!-- Node3&#45;&gt;Node4 -->
<g id="edge3" class="edge">
<title>Node3&#45;&gt;Node4</title>
<path fill="none" stroke="midnightblue" d="M116.69,-51.36C135.69,-40.69 158.42,-27.93 173.17,-19.66"/>
<polygon fill="midnightblue" stroke="midnightblue" points="114.72,-48.45 107.71,-56.4 118.15,-54.56 114.72,-48.45"/>
</g>
<!-- Node5&#45;&gt;Node2 -->
<g id="edge6" class="edge">
<title>Node5&#45;&gt;Node2</title>
<path fill="none" stroke="midnightblue" d="M177.14,-179.59C158.62,-168.1 132.92,-152.18 117.32,-142.51"/>
<polygon fill="midnightblue" stroke="midnightblue" points="175.49,-182.68 185.84,-184.98 179.18,-176.73 175.49,-182.68"/>
</g>
<!-- Node5&#45;&gt;Node4 -->
<g id="edge7" class="edge">
<title>Node5&#45;&gt;Node4</title>
<path fill="none" stroke="midnightblue" d="M198.43,-174.22C196.07,-135.06 190.8,-47.59 189.12,-19.71"/>
<polygon fill="midnightblue" stroke="midnightblue" points="194.97,-174.93 199.06,-184.7 201.95,-174.51 194.97,-174.93"/>
</g>
<!-- Node5&#45;&gt;Node6 -->
<g id="edge8" class="edge">
<title>Node5&#45;&gt;Node6</title>
<path fill="none" stroke="midnightblue" d="M222.04,-179.59C240.57,-168.1 266.26,-152.18 281.86,-142.51"/>
<polygon fill="midnightblue" stroke="midnightblue" points="220,-176.73 213.35,-184.98 223.69,-182.68 220,-176.73"/>
</g>
<!-- Node6&#45;&gt;Node4 -->
<g id="edge9" class="edge">
<title>Node6&#45;&gt;Node4</title>
<path fill="none" stroke="midnightblue" d="M281.24,-115.77C258.26,-89.78 213.96,-39.69 196.22,-19.62"/>
<polygon fill="midnightblue" stroke="midnightblue" points="278.65,-118.13 287.9,-123.3 283.89,-113.49 278.65,-118.13"/>
</g>
<!-- Node7&#45;&gt;Node2 -->
<g id="edge12" class="edge">
<title>Node7&#45;&gt;Node2</title>
<path fill="none" stroke="midnightblue" d="M314.07,-179.38C261.02,-167.94 188.01,-152.2 143.4,-142.58"/>
<polygon fill="midnightblue" stroke="midnightblue" points="313.56,-182.84 324.07,-181.53 315.03,-176 313.56,-182.84"/>
</g>
<!-- Node7&#45;&gt;Node4 -->
<g id="edge13" class="edge">
<title>Node7&#45;&gt;Node4</title>
<path fill="none" stroke="midnightblue" d="M379.03,-169.02C377.63,-154.52 373.92,-136.43 364.59,-123 326.59,-68.26 252.29,-34.35 213.51,-19.6"/>
<polygon fill="midnightblue" stroke="midnightblue" points="375.56,-169.51 379.71,-179.26 382.54,-169.05 375.56,-169.51"/>
</g>
</g>
</svg>
