<?xml version="1.0" encoding="UTF-8" standalone="no"?>
<!DOCTYPE svg PUBLIC "-//W3C//DTD SVG 1.1//EN"
 "http://www.w3.org/Graphics/SVG/1.1/DTD/svg11.dtd">
<!-- Generated by graphviz version 2.44.1 (20200629.0800)
 -->
<!-- Title: include/satella/future.hpp Pages: 1 -->
<svg width="732pt" height="196pt"
 viewBox="0.00 0.00 732.00 196.00" xmlns="http://www.w3.org/2000/svg" xmlns:xlink="http://www.w3.org/1999/xlink">
<g id="graph0" class="graph" transform="scale(1 1) rotate(0) translate(4 192)">
<title>include/satella/future.hpp</title>
<polygon fill="white" stroke="transparent" points="-4,4 -4,-192 728,-192 728,4 -4,4"/>
<!-- Node1 -->
<g id="node1" class="node">
<title>Node1</title>
<g id="a_node1"><a xlink:title=" ">
<polygon fill="#bfbfbf" stroke="black" points="212,-168.5 212,-187.5 337,-187.5 337,-168.5 212,-168.5"/>
<text text-anchor="middle" x="274.5" y="-175.5" font-family="Helvetica,sans-Serif" font-size="10.00">include/satella/future.hpp</text>
</a>
</g>
</g>
<!-- Node2 -->
<g id="node2" class="node">
<title>Node2</title>
<g id="a_node2"><a xlink:title=" ">
<polygon fill="white" stroke="#bfbfbf" points="0,-56.5 0,-75.5 41,-75.5 41,-56.5 0,-56.5"/>
<text text-anchor="middle" x="20.5" y="-63.5" font-family="Helvetica,sans-Serif" font-size="10.00">future</text>
</a>
</g>
</g>
<!-- Node1&#45;&gt;Node2 -->
<g id="edge1" class="edge">
<title>Node1&#45;&gt;Node2</title>
<path fill="none" stroke="midnightblue" d="M254.57,-168.37C209.96,-149.05 101.92,-102.26 49.71,-79.65"/>
<polygon fill="midnightblue" stroke="midnightblue" points="50.91,-76.35 40.34,-75.59 48.12,-82.78 50.91,-76.35"/>
</g>
<!-- Node3 -->
<g id="node3" class="node">
<title>Node3</title>
<g id="a_node3"><a xlink:title=" ">
<polygon fill="white" stroke="#bfbfbf" points="212.5,-112.5 212.5,-131.5 264.5,-131.5 264.5,-112.5 212.5,-112.5"/>
<text text-anchor="middle" x="238.5" y="-119.5" font-family="Helvetica,sans-Serif" font-size="10.00">memory</text>
</a>
</g>
</g>
<!-- Node1&#45;&gt;Node3 -->
<g id="edge2" class="edge">
<title>Node1&#45;&gt;Node3</title>
<path fill="none" stroke="midnightblue" d="M268.56,-168.08C263.52,-160.53 256.16,-149.49 249.99,-140.23"/>
<polygon fill="midnightblue" stroke="midnightblue" points="252.79,-138.13 244.33,-131.75 246.97,-142.01 252.79,-138.13"/>
</g>
<!-- Node4 -->
<g id="node4" class="node">
<title>Node4</title>
<g id="a_node4"><a xlink:href="state_8hpp.html" target="_top" xlink:title=" ">
<polygon fill="white" stroke="black" points="283,-112.5 283,-131.5 340,-131.5 340,-112.5 283,-112.5"/>
<text text-anchor="middle" x="311.5" y="-119.5" font-family="Helvetica,sans-Serif" font-size="10.00">state.hpp</text>
</a>
</g>
</g>
<!-- Node1&#45;&gt;Node4 -->
<g id="edge3" class="edge">
<title>Node1&#45;&gt;Node4</title>
<path fill="none" stroke="midnightblue" d="M280.61,-168.08C285.78,-160.53 293.35,-149.49 299.69,-140.23"/>
<polygon fill="midnightblue" stroke="midnightblue" points="302.74,-141.98 305.5,-131.75 296.96,-138.02 302.74,-141.98"/>
</g>
<!-- Node13 -->
<g id="node13" class="node">
<title>Node13</title>
<g id="a_node13"><a xlink:href="util_8hpp.html" target="_top" xlink:title=" ">
<polygon fill="white" stroke="black" points="631.5,-56.5 631.5,-75.5 679.5,-75.5 679.5,-56.5 631.5,-56.5"/>
<text text-anchor="middle" x="655.5" y="-63.5" font-family="Helvetica,sans-Serif" font-size="10.00">util.hpp</text>
</a>
</g>
</g>
<!-- Node1&#45;&gt;Node13 -->
<g id="edge18" class="edge">
<title>Node1&#45;&gt;Node13</title>
<path fill="none" stroke="midnightblue" d="M304.08,-168.46C373.71,-148.36 547.65,-98.14 621.49,-76.82"/>
<polygon fill="midnightblue" stroke="midnightblue" points="622.59,-80.15 631.22,-74.01 620.65,-73.42 622.59,-80.15"/>
</g>
<!-- Node4&#45;&gt;Node2 -->
<g id="edge6" class="edge">
<title>Node4&#45;&gt;Node2</title>
<path fill="none" stroke="midnightblue" d="M282.91,-114C279.75,-113.29 276.56,-112.61 273.5,-112 178.11,-93.03 150.08,-98.12 50.89,-75.8"/>
<polygon fill="midnightblue" stroke="midnightblue" points="51.59,-72.37 41.06,-73.56 50.03,-79.2 51.59,-72.37"/>
</g>
<!-- Node5 -->
<g id="node5" class="node">
<title>Node5</title>
<g id="a_node5"><a xlink:title=" ">
<polygon fill="white" stroke="#bfbfbf" points="364.5,-56.5 364.5,-75.5 420.5,-75.5 420.5,-56.5 364.5,-56.5"/>
<text text-anchor="middle" x="392.5" y="-63.5" font-family="Helvetica,sans-Serif" font-size="10.00">algorithm</text>
</a>
</g>
</g>
<!-- Node4&#45;&gt;Node5 -->
<g id="edge4" class="edge">
<title>Node4&#45;&gt;Node5</title>
<path fill="none" stroke="midnightblue" d="M324.51,-112.32C337.03,-103.98 356.18,-91.21 370.97,-81.35"/>
<polygon fill="midnightblue" stroke="midnightblue" points="373.14,-84.11 379.52,-75.65 369.26,-78.29 373.14,-84.11"/>
</g>
<!-- Node6 -->
<g id="node6" class="node">
<title>Node6</title>
<g id="a_node6"><a xlink:title=" ">
<polygon fill="white" stroke="#bfbfbf" points="520,-56.5 520,-75.5 613,-75.5 613,-56.5 520,-56.5"/>
<text text-anchor="middle" x="566.5" y="-63.5" font-family="Helvetica,sans-Serif" font-size="10.00">condition_variable</text>
</a>
</g>
</g>
<!-- Node4&#45;&gt;Node6 -->
<g id="edge5" class="edge">
<title>Node4&#45;&gt;Node6</title>
<path fill="none" stroke="midnightblue" d="M340.26,-114.91C382.96,-105.87 463.75,-88.76 516.33,-77.62"/>
<polygon fill="midnightblue" stroke="midnightblue" points="517.07,-81.04 526.13,-75.55 515.62,-74.2 517.07,-81.04"/>
</g>
<!-- Node7 -->
<g id="node7" class="node">
<title>Node7</title>
<g id="a_node7"><a xlink:title=" ">
<polygon fill="white" stroke="#bfbfbf" points="59.5,-56.5 59.5,-75.5 103.5,-75.5 103.5,-56.5 59.5,-56.5"/>
<text text-anchor="middle" x="81.5" y="-63.5" font-family="Helvetica,sans-Serif" font-size="10.00">mutex</text>
</a>
</g>
</g>
<!-- Node4&#45;&gt;Node7 -->
<g id="edge7" class="edge">
<title>Node4&#45;&gt;Node7</title>
<path fill="none" stroke="midnightblue" d="M282.88,-114.18C279.71,-113.44 276.54,-112.7 273.5,-112 205.12,-96.26 185.21,-94.37 113.75,-76.2"/>
<polygon fill="midnightblue" stroke="midnightblue" points="114.36,-72.75 103.81,-73.66 112.62,-79.53 114.36,-72.75"/>
</g>
<!-- Node8 -->
<g id="node8" class="node">
<title>Node8</title>
<g id="a_node8"><a xlink:title=" ">
<polygon fill="white" stroke="#bfbfbf" points="121.5,-56.5 121.5,-75.5 163.5,-75.5 163.5,-56.5 121.5,-56.5"/>
<text text-anchor="middle" x="142.5" y="-63.5" font-family="Helvetica,sans-Serif" font-size="10.00">vector</text>
</a>
</g>
</g>
<!-- Node4&#45;&gt;Node8 -->
<g id="edge8" class="edge">
<title>Node4&#45;&gt;Node8</title>
<path fill="none" stroke="midnightblue" d="M284.72,-112.44C254.4,-102.76 205.09,-87 173.23,-76.82"/>
<polygon fill="midnightblue" stroke="midnightblue" points="174.14,-73.43 163.55,-73.73 172.01,-80.1 174.14,-73.43"/>
</g>
<!-- Node9 -->
<g id="node9" class="node">
<title>Node9</title>
<g id="a_node9"><a xlink:href="functional_8hpp.html" target="_top" xlink:title=" ">
<polygon fill="white" stroke="black" points="182,-56.5 182,-75.5 259,-75.5 259,-56.5 182,-56.5"/>
<text text-anchor="middle" x="220.5" y="-63.5" font-family="Helvetica,sans-Serif" font-size="10.00">functional.hpp</text>
</a>
</g>
</g>
<!-- Node4&#45;&gt;Node9 -->
<g id="edge9" class="edge">
<title>Node4&#45;&gt;Node9</title>
<path fill="none" stroke="midnightblue" d="M296.88,-112.32C282.55,-103.82 260.49,-90.73 243.75,-80.8"/>
<polygon fill="midnightblue" stroke="midnightblue" points="245.47,-77.75 235.08,-75.65 241.9,-83.77 245.47,-77.75"/>
</g>
<!-- Node11 -->
<g id="node11" class="node">
<title>Node11</title>
<g id="a_node11"><a xlink:href="optional_8hpp.html" target="_top" xlink:title=" ">
<polygon fill="white" stroke="black" points="277,-56.5 277,-75.5 346,-75.5 346,-56.5 277,-56.5"/>
<text text-anchor="middle" x="311.5" y="-63.5" font-family="Helvetica,sans-Serif" font-size="10.00">optional.hpp</text>
</a>
</g>
</g>
<!-- Node4&#45;&gt;Node11 -->
<g id="edge11" class="edge">
<title>Node4&#45;&gt;Node11</title>
<path fill="none" stroke="midnightblue" d="M311.5,-112.08C311.5,-105.01 311.5,-94.86 311.5,-85.99"/>
<polygon fill="midnightblue" stroke="midnightblue" points="315,-85.75 311.5,-75.75 308,-85.75 315,-85.75"/>
</g>
<!-- Node4&#45;&gt;Node13 -->
<g id="edge13" class="edge">
<title>Node4&#45;&gt;Node13</title>
<path fill="none" stroke="midnightblue" d="M340,-118.06C393.39,-112.3 512.18,-98.28 621.56,-75.97"/>
<polygon fill="midnightblue" stroke="midnightblue" points="622.35,-79.38 631.43,-73.93 620.93,-72.53 622.35,-79.38"/>
</g>
<!-- Node16 -->
<g id="node16" class="node">
<title>Node16</title>
<g id="a_node16"><a xlink:href="variant_8hpp.html" target="_top" xlink:title=" ">
<polygon fill="white" stroke="black" points="439,-56.5 439,-75.5 502,-75.5 502,-56.5 439,-56.5"/>
<text text-anchor="middle" x="470.5" y="-63.5" font-family="Helvetica,sans-Serif" font-size="10.00">variant.hpp</text>
</a>
</g>
</g>
<!-- Node4&#45;&gt;Node16 -->
<g id="edge16" class="edge">
<title>Node4&#45;&gt;Node16</title>
<path fill="none" stroke="midnightblue" d="M336.69,-112.44C363.44,-103.36 405.9,-88.94 435.81,-78.78"/>
<polygon fill="midnightblue" stroke="midnightblue" points="437.08,-82.05 445.42,-75.52 434.83,-75.42 437.08,-82.05"/>
</g>
<!-- Node10 -->
<g id="node10" class="node">
<title>Node10</title>
<g id="a_node10"><a xlink:title=" ">
<polygon fill="white" stroke="#bfbfbf" points="157.5,-0.5 157.5,-19.5 273.5,-19.5 273.5,-0.5 157.5,-0.5"/>
<text text-anchor="middle" x="215.5" y="-7.5" font-family="Helvetica,sans-Serif" font-size="10.00">function2/function2.hpp</text>
</a>
</g>
</g>
<!-- Node9&#45;&gt;Node10 -->
<g id="edge10" class="edge">
<title>Node9&#45;&gt;Node10</title>
<path fill="none" stroke="midnightblue" d="M219.67,-56.08C219.02,-49.01 218.08,-38.86 217.26,-29.99"/>
<polygon fill="midnightblue" stroke="midnightblue" points="220.72,-29.39 216.31,-19.75 213.75,-30.03 220.72,-29.39"/>
</g>
<!-- Node12 -->
<g id="node12" class="node">
<title>Node12</title>
<g id="a_node12"><a xlink:title=" ">
<polygon fill="white" stroke="#bfbfbf" points="291.5,-0.5 291.5,-19.5 341.5,-19.5 341.5,-0.5 291.5,-0.5"/>
<text text-anchor="middle" x="316.5" y="-7.5" font-family="Helvetica,sans-Serif" font-size="10.00">optional</text>
</a>
</g>
</g>
<!-- Node11&#45;&gt;Node12 -->
<g id="edge12" class="edge">
<title>Node11&#45;&gt;Node12</title>
<path fill="none" stroke="midnightblue" d="M312.33,-56.08C312.98,-49.01 313.92,-38.86 314.74,-29.99"/>
<polygon fill="midnightblue" stroke="midnightblue" points="318.25,-30.03 315.69,-19.75 311.28,-29.39 318.25,-30.03"/>
</g>
<!-- Node14 -->
<g id="node14" class="node">
<title>Node14</title>
<g id="a_node14"><a xlink:title=" ">
<polygon fill="white" stroke="#bfbfbf" points="665,-0.5 665,-19.5 724,-19.5 724,-0.5 665,-0.5"/>
<text text-anchor="middle" x="694.5" y="-7.5" font-family="Helvetica,sans-Serif" font-size="10.00">stdexcept</text>
</a>
</g>
</g>
<!-- Node13&#45;&gt;Node14 -->
<g id="edge14" class="edge">
<title>Node13&#45;&gt;Node14</title>
<path fill="none" stroke="midnightblue" d="M661.94,-56.08C667.45,-48.46 675.53,-37.26 682.26,-27.94"/>
<polygon fill="midnightblue" stroke="midnightblue" points="685.16,-29.91 688.18,-19.75 679.49,-25.81 685.16,-29.91"/>
</g>
<!-- Node15 -->
<g id="node15" class="node">
<title>Node15</title>
<g id="a_node15"><a xlink:title=" ">
<polygon fill="white" stroke="#bfbfbf" points="584.5,-0.5 584.5,-19.5 646.5,-19.5 646.5,-0.5 584.5,-0.5"/>
<text text-anchor="middle" x="615.5" y="-7.5" font-family="Helvetica,sans-Serif" font-size="10.00">type_traits</text>
</a>
</g>
</g>
<!-- Node13&#45;&gt;Node15 -->
<g id="edge15" class="edge">
<title>Node13&#45;&gt;Node15</title>
<path fill="none" stroke="midnightblue" d="M648.89,-56.08C643.24,-48.46 634.96,-37.26 628.05,-27.94"/>
<polygon fill="midnightblue" stroke="midnightblue" points="630.75,-25.7 621.98,-19.75 625.12,-29.87 630.75,-25.7"/>
</g>
<!-- Node17 -->
<g id="node17" class="node">
<title>Node17</title>
<g id="a_node17"><a xlink:title=" ">
<polygon fill="white" stroke="#bfbfbf" points="448.5,-0.5 448.5,-19.5 492.5,-19.5 492.5,-0.5 448.5,-0.5"/>
<text text-anchor="middle" x="470.5" y="-7.5" font-family="Helvetica,sans-Serif" font-size="10.00">variant</text>
</a>
</g>
</g>
<!-- Node16&#45;&gt;Node17 -->
<g id="edge17" class="edge">
<title>Node16&#45;&gt;Node17</title>
<path fill="none" stroke="midnightblue" d="M470.5,-56.08C470.5,-49.01 470.5,-38.86 470.5,-29.99"/>
<polygon fill="midnightblue" stroke="midnightblue" points="474,-29.75 470.5,-19.75 467,-29.75 474,-29.75"/>
</g>
</g>
</svg>
