<?xml version="1.0" encoding="UTF-8" standalone="no"?>
<!DOCTYPE svg PUBLIC "-//W3C//DTD SVG 1.1//EN"
 "http://www.w3.org/Graphics/SVG/1.1/DTD/svg11.dtd">
<!-- Generated by graphviz version 2.44.1 (20200629.0800)
 -->
<!-- Title: Graphical Class Hierarchy Pages: 1 -->
<svg width="279pt" height="61pt"
 viewBox="0.00 0.00 279.00 61.00" xmlns="http://www.w3.org/2000/svg" xmlns:xlink="http://www.w3.org/1999/xlink">
<g id="graph0" class="graph" transform="scale(1 1) rotate(0) translate(4 57)">
<title>Graphical Class Hierarchy</title>
<polygon fill="white" stroke="transparent" points="-4,4 -4,-57 275,-57 275,4 -4,4"/>
<!-- Node0 -->
<g id="node1" class="node">
<title>Node0</title>
<g id="a_node1"><a xlink:href="classsatella_1_1impl_1_1_state_base.html" target="_top" xlink:title=" ">
<polygon fill="white" stroke="black" points="0,-0.5 0,-52.5 137,-52.5 137,-0.5 0,-0.5"/>
<text text-anchor="start" x="8" y="-40.5" font-family="Helvetica,sans-Serif" font-size="10.00">satella::impl::StateBase</text>
<text text-anchor="start" x="8" y="-29.5" font-family="Helvetica,sans-Serif" font-size="10.00">&lt; variant&lt; std::exception</text>
<text text-anchor="start" x="8" y="-18.5" font-family="Helvetica,sans-Serif" font-size="10.00">_ptr, std::reference_wrapper</text>
<text text-anchor="middle" x="68.5" y="-7.5" font-family="Helvetica,sans-Serif" font-size="10.00">&lt; T &gt; &gt; &gt;</text>
</a>
</g>
</g>
<!-- Node1 -->
<g id="node2" class="node">
<title>Node1</title>
<g id="a_node2"><a xlink:href="classsatella_1_1impl_1_1_state_3_01_t_01_6_01_4.html" target="_top" xlink:title=" ">
<polygon fill="white" stroke="black" points="173,-11.5 173,-41.5 271,-41.5 271,-11.5 173,-11.5"/>
<text text-anchor="start" x="181" y="-29.5" font-family="Helvetica,sans-Serif" font-size="10.00">satella::impl::State</text>
<text text-anchor="middle" x="222" y="-18.5" font-family="Helvetica,sans-Serif" font-size="10.00">&lt; T &amp; &gt;</text>
</a>
</g>
</g>
<!-- Node0&#45;&gt;Node1 -->
<g id="edge1" class="edge">
<title>Node0&#45;&gt;Node1</title>
<path fill="none" stroke="midnightblue" d="M147.41,-26.5C156.06,-26.5 164.67,-26.5 172.79,-26.5"/>
<polygon fill="midnightblue" stroke="midnightblue" points="147.27,-23 137.27,-26.5 147.27,-30 147.27,-23"/>
</g>
</g>
</svg>
