<?xml version="1.0" encoding="UTF-8" standalone="no"?>
<!DOCTYPE svg PUBLIC "-//W3C//DTD SVG 1.1//EN"
 "http://www.w3.org/Graphics/SVG/1.1/DTD/svg11.dtd">
<!-- Generated by graphviz version 2.44.1 (20200629.0800)
 -->
<!-- Title: satella::impl::post_job Pages: 1 -->
<svg width="275pt" height="176pt"
 viewBox="0.00 0.00 275.00 175.50" xmlns="http://www.w3.org/2000/svg" xmlns:xlink="http://www.w3.org/1999/xlink">
<g id="graph0" class="graph" transform="scale(1 1) rotate(0) translate(4 171.5)">
<title>satella::impl::post_job</title>
<polygon fill="white" stroke="transparent" points="-4,4 -4,-171.5 271,-171.5 271,4 -4,4"/>
<!-- Node1 -->
<g id="node1" class="node">
<title>Node1</title>
<g id="a_node1"><a xlink:title=" ">
<polygon fill="#bfbfbf" stroke="black" points="155,-79 155,-98 267,-98 267,-79 155,-79"/>
<text text-anchor="middle" x="211" y="-86" font-family="Helvetica,sans-Serif" font-size="10.00">satella::impl::post_job</text>
</a>
</g>
</g>
<!-- Node2 -->
<g id="node2" class="node">
<title>Node2</title>
<g id="a_node2"><a xlink:href="namespacesatella.html#a4dde3b2dc3f3f09d7edb36918f05f3c7" target="_top" xlink:title=" ">
<polygon fill="white" stroke="black" points="10,-148 10,-167 109,-167 109,-148 10,-148"/>
<text text-anchor="middle" x="59.5" y="-155" font-family="Helvetica,sans-Serif" font-size="10.00">satella::make_task</text>
</a>
</g>
</g>
<!-- Node1&#45;&gt;Node2 -->
<g id="edge1" class="edge">
<title>Node1&#45;&gt;Node2</title>
<path fill="none" stroke="midnightblue" d="M185.99,-103.32C168,-114.02 142.53,-128.32 119,-138.5 110.96,-141.98 102.07,-145.17 93.7,-147.92"/>
<polygon fill="midnightblue" stroke="midnightblue" points="187.91,-106.25 194.67,-98.09 184.3,-100.26 187.91,-106.25"/>
</g>
<!-- Node3 -->
<g id="node3" class="node">
<title>Node3</title>
<g id="a_node3"><a xlink:href="classsatella_1_1impl_1_1_task.html#a4fef0884b7118f5db504d464177dd11e" target="_top" xlink:title=" ">
<polygon fill="white" stroke="black" points="11.5,-98.5 11.5,-128.5 107.5,-128.5 107.5,-98.5 11.5,-98.5"/>
<text text-anchor="start" x="19.5" y="-116.5" font-family="Helvetica,sans-Serif" font-size="10.00">satella::impl::Task</text>
<text text-anchor="middle" x="59.5" y="-105.5" font-family="Helvetica,sans-Serif" font-size="10.00">::then</text>
</a>
</g>
</g>
<!-- Node1&#45;&gt;Node3 -->
<g id="edge2" class="edge">
<title>Node1&#45;&gt;Node3</title>
<path fill="none" stroke="midnightblue" d="M144.83,-99.4C132.33,-101.49 119.46,-103.64 107.66,-105.61"/>
<polygon fill="midnightblue" stroke="midnightblue" points="145.47,-102.84 154.76,-97.74 144.32,-95.94 145.47,-102.84"/>
</g>
<!-- Node4 -->
<g id="node4" class="node">
<title>Node4</title>
<g id="a_node4"><a xlink:href="classsatella_1_1impl_1_1_task_3_01void_01_4.html#a2ace4ee1ed24c5dc94986d493e399feb" target="_top" xlink:title=" ">
<polygon fill="white" stroke="black" points="11.5,-49.5 11.5,-79.5 107.5,-79.5 107.5,-49.5 11.5,-49.5"/>
<text text-anchor="start" x="19.5" y="-67.5" font-family="Helvetica,sans-Serif" font-size="10.00">satella::impl::Task</text>
<text text-anchor="middle" x="59.5" y="-56.5" font-family="Helvetica,sans-Serif" font-size="10.00">&lt; void &gt;::then</text>
</a>
</g>
</g>
<!-- Node1&#45;&gt;Node4 -->
<g id="edge3" class="edge">
<title>Node1&#45;&gt;Node4</title>
<path fill="none" stroke="midnightblue" d="M144.83,-78.04C132.33,-76.03 119.46,-73.97 107.66,-72.07"/>
<polygon fill="midnightblue" stroke="midnightblue" points="144.33,-81.5 154.76,-79.63 145.44,-74.59 144.33,-81.5"/>
</g>
<!-- Node5 -->
<g id="node5" class="node">
<title>Node5</title>
<g id="a_node5"><a xlink:href="classsatella_1_1impl_1_1_task_base.html#a28756511e1c4ae7b68a5f1b38ccc5b56" target="_top" xlink:title=" ">
<polygon fill="white" stroke="black" points="0,-0.5 0,-30.5 119,-30.5 119,-0.5 0,-0.5"/>
<text text-anchor="start" x="8" y="-18.5" font-family="Helvetica,sans-Serif" font-size="10.00">satella::impl::TaskBase</text>
<text text-anchor="middle" x="59.5" y="-7.5" font-family="Helvetica,sans-Serif" font-size="10.00">&lt; void &gt;::then_catch</text>
</a>
</g>
</g>
<!-- Node1&#45;&gt;Node5 -->
<g id="edge4" class="edge">
<title>Node1&#45;&gt;Node5</title>
<path fill="none" stroke="midnightblue" d="M183.99,-74.05C165.94,-64.21 141.25,-51.1 119,-40.5 111.92,-37.13 104.27,-33.7 96.91,-30.51"/>
<polygon fill="midnightblue" stroke="midnightblue" points="182.32,-77.13 192.77,-78.87 185.68,-70.99 182.32,-77.13"/>
</g>
</g>
</svg>
