<?xml version="1.0" encoding="UTF-8" standalone="no"?>
<!DOCTYPE svg PUBLIC "-//W3C//DTD SVG 1.1//EN"
 "http://www.w3.org/Graphics/SVG/1.1/DTD/svg11.dtd">
<!-- Generated by graphviz version 2.44.1 (20200629.0800)
 -->
<!-- Title: satella::make_task Pages: 1 -->
<svg width="433pt" height="78pt"
 viewBox="0.00 0.00 433.00 77.50" xmlns="http://www.w3.org/2000/svg" xmlns:xlink="http://www.w3.org/1999/xlink">
<g id="graph0" class="graph" transform="scale(1 1) rotate(0) translate(4 73.5)">
<title>satella::make_task</title>
<polygon fill="white" stroke="transparent" points="-4,4 -4,-73.5 429,-73.5 429,4 -4,4"/>
<!-- Node1 -->
<g id="node1" class="node">
<title>Node1</title>
<g id="a_node1"><a xlink:title=" ">
<polygon fill="#bfbfbf" stroke="black" points="0,-22.5 0,-41.5 99,-41.5 99,-22.5 0,-22.5"/>
<text text-anchor="middle" x="49.5" y="-29.5" font-family="Helvetica,sans-Serif" font-size="10.00">satella::make_task</text>
</a>
</g>
</g>
<!-- Node2 -->
<g id="node2" class="node">
<title>Node2</title>
<g id="a_node2"><a xlink:href="classsatella_1_1impl_1_1_promise_base.html#ade6148b11d0786db95d31332bd33c441" target="_top" xlink:title=" ">
<polygon fill="white" stroke="black" points="135,-39 135,-69 269,-69 269,-39 135,-39"/>
<text text-anchor="start" x="143" y="-57" font-family="Helvetica,sans-Serif" font-size="10.00">satella::impl::PromiseBase</text>
<text text-anchor="middle" x="202" y="-46" font-family="Helvetica,sans-Serif" font-size="10.00">::get_future</text>
</a>
</g>
</g>
<!-- Node1&#45;&gt;Node2 -->
<g id="edge1" class="edge">
<title>Node1&#45;&gt;Node2</title>
<path fill="none" stroke="midnightblue" d="M99.36,-39.14C107.51,-40.33 116.12,-41.59 124.75,-42.85"/>
<polygon fill="midnightblue" stroke="midnightblue" points="124.47,-46.35 134.87,-44.33 125.48,-39.42 124.47,-46.35"/>
</g>
<!-- Node3 -->
<g id="node3" class="node">
<title>Node3</title>
<g id="a_node3"><a xlink:href="namespacesatella_1_1impl.html#a03c185f51ed2422daa87faf6340ff077" target="_top" xlink:title=" ">
<polygon fill="white" stroke="black" points="146,-0.5 146,-19.5 258,-19.5 258,-0.5 146,-0.5"/>
<text text-anchor="middle" x="202" y="-7.5" font-family="Helvetica,sans-Serif" font-size="10.00">satella::impl::post_job</text>
</a>
</g>
</g>
<!-- Node1&#45;&gt;Node3 -->
<g id="edge2" class="edge">
<title>Node1&#45;&gt;Node3</title>
<path fill="none" stroke="midnightblue" d="M99.36,-24.86C110.96,-23.16 123.52,-21.33 135.72,-19.54"/>
<polygon fill="midnightblue" stroke="midnightblue" points="136.47,-22.97 145.86,-18.06 135.46,-16.04 136.47,-22.97"/>
</g>
<!-- Node4 -->
<g id="node4" class="node">
<title>Node4</title>
<g id="a_node4"><a xlink:href="namespacesatella_1_1impl.html#afc3393dcf93c3ea9474a283bbbf6158d" target="_top" xlink:title=" ">
<polygon fill="white" stroke="black" points="305,-0.5 305,-19.5 425,-19.5 425,-0.5 305,-0.5"/>
<text text-anchor="middle" x="365" y="-7.5" font-family="Helvetica,sans-Serif" font-size="10.00">satella::impl::invoke_job</text>
</a>
</g>
</g>
<!-- Node3&#45;&gt;Node4 -->
<g id="edge3" class="edge">
<title>Node3&#45;&gt;Node4</title>
<path fill="none" stroke="midnightblue" d="M258.41,-10C270.13,-10 282.65,-10 294.81,-10"/>
<polygon fill="midnightblue" stroke="midnightblue" points="294.92,-13.5 304.92,-10 294.92,-6.5 294.92,-13.5"/>
</g>
</g>
</svg>
