<?xml version="1.0" encoding="UTF-8" standalone="no"?>
<!DOCTYPE svg PUBLIC "-//W3C//DTD SVG 1.1//EN"
 "http://www.w3.org/Graphics/SVG/1.1/DTD/svg11.dtd">
<!-- Generated by graphviz version 2.44.1 (20200629.0800)
 -->
<!-- Title: satella::impl::invoke_job Pages: 1 -->
<svg width="431pt" height="176pt"
 viewBox="0.00 0.00 431.00 176.00" xmlns="http://www.w3.org/2000/svg" xmlns:xlink="http://www.w3.org/1999/xlink">
<g id="graph0" class="graph" transform="scale(1 1) rotate(0) translate(4 172)">
<title>satella::impl::invoke_job</title>
<polygon fill="white" stroke="transparent" points="-4,4 -4,-172 427,-172 427,4 -4,4"/>
<!-- Node1 -->
<g id="node1" class="node">
<title>Node1</title>
<g id="a_node1"><a xlink:title=" ">
<polygon fill="#bfbfbf" stroke="black" points="303,-74 303,-93 423,-93 423,-74 303,-74"/>
<text text-anchor="middle" x="363" y="-81" font-family="Helvetica,sans-Serif" font-size="10.00">satella::impl::invoke_job</text>
</a>
</g>
</g>
<!-- Node2 -->
<g id="node2" class="node">
<title>Node2</title>
<g id="a_node2"><a xlink:href="namespacesatella_1_1impl.html#a03c185f51ed2422daa87faf6340ff077" target="_top" xlink:title=" ">
<polygon fill="white" stroke="black" points="155,-93 155,-112 267,-112 267,-93 155,-93"/>
<text text-anchor="middle" x="211" y="-100" font-family="Helvetica,sans-Serif" font-size="10.00">satella::impl::post_job</text>
</a>
</g>
</g>
<!-- Node1&#45;&gt;Node2 -->
<g id="edge1" class="edge">
<title>Node1&#45;&gt;Node2</title>
<path fill="none" stroke="midnightblue" d="M292.53,-92.3C284.12,-93.37 275.61,-94.44 267.43,-95.48"/>
<polygon fill="midnightblue" stroke="midnightblue" points="293.24,-95.74 302.72,-91.01 292.36,-88.79 293.24,-95.74"/>
</g>
<!-- Node4 -->
<g id="node4" class="node">
<title>Node4</title>
<g id="a_node4"><a xlink:href="classsatella_1_1impl_1_1_task.html#a4fef0884b7118f5db504d464177dd11e" target="_top" xlink:title=" ">
<polygon fill="white" stroke="black" points="11.5,-137.5 11.5,-167.5 107.5,-167.5 107.5,-137.5 11.5,-137.5"/>
<text text-anchor="start" x="19.5" y="-155.5" font-family="Helvetica,sans-Serif" font-size="10.00">satella::impl::Task</text>
<text text-anchor="middle" x="59.5" y="-144.5" font-family="Helvetica,sans-Serif" font-size="10.00">::then</text>
</a>
</g>
</g>
<!-- Node1&#45;&gt;Node4 -->
<g id="edge6" class="edge">
<title>Node1&#45;&gt;Node4</title>
<path fill="none" stroke="midnightblue" d="M332.75,-97.25C314.27,-105.42 289.67,-115.35 267,-121.5 213.47,-136.01 150.16,-144.25 107.89,-148.53"/>
<polygon fill="midnightblue" stroke="midnightblue" points="334.4,-100.34 342.08,-93.05 331.53,-93.96 334.4,-100.34"/>
</g>
<!-- Node5 -->
<g id="node5" class="node">
<title>Node5</title>
<g id="a_node5"><a xlink:href="classsatella_1_1impl_1_1_task_3_01void_01_4.html#a2ace4ee1ed24c5dc94986d493e399feb" target="_top" xlink:title=" ">
<polygon fill="white" stroke="black" points="11.5,-49.5 11.5,-79.5 107.5,-79.5 107.5,-49.5 11.5,-49.5"/>
<text text-anchor="start" x="19.5" y="-67.5" font-family="Helvetica,sans-Serif" font-size="10.00">satella::impl::Task</text>
<text text-anchor="middle" x="59.5" y="-56.5" font-family="Helvetica,sans-Serif" font-size="10.00">&lt; void &gt;::then</text>
</a>
</g>
</g>
<!-- Node1&#45;&gt;Node5 -->
<g id="edge7" class="edge">
<title>Node1&#45;&gt;Node5</title>
<path fill="none" stroke="midnightblue" d="M292.48,-79.12C235.8,-75.55 157.28,-70.6 107.7,-67.47"/>
<polygon fill="midnightblue" stroke="midnightblue" points="292.59,-82.63 302.79,-79.77 293.03,-75.65 292.59,-82.63"/>
</g>
<!-- Node6 -->
<g id="node6" class="node">
<title>Node6</title>
<g id="a_node6"><a xlink:href="classsatella_1_1impl_1_1_task_base.html#a28756511e1c4ae7b68a5f1b38ccc5b56" target="_top" xlink:title=" ">
<polygon fill="white" stroke="black" points="0,-0.5 0,-30.5 119,-30.5 119,-0.5 0,-0.5"/>
<text text-anchor="start" x="8" y="-18.5" font-family="Helvetica,sans-Serif" font-size="10.00">satella::impl::TaskBase</text>
<text text-anchor="middle" x="59.5" y="-7.5" font-family="Helvetica,sans-Serif" font-size="10.00">&lt; void &gt;::then_catch</text>
</a>
</g>
</g>
<!-- Node1&#45;&gt;Node6 -->
<g id="edge8" class="edge">
<title>Node1&#45;&gt;Node6</title>
<path fill="none" stroke="midnightblue" d="M309.86,-71.74C256.69,-59.75 174.36,-41.18 119,-28.69"/>
<polygon fill="midnightblue" stroke="midnightblue" points="309.24,-75.19 319.76,-73.97 310.78,-68.36 309.24,-75.19"/>
</g>
<!-- Node3 -->
<g id="node3" class="node">
<title>Node3</title>
<g id="a_node3"><a xlink:href="namespacesatella.html#a4dde3b2dc3f3f09d7edb36918f05f3c7" target="_top" xlink:title=" ">
<polygon fill="white" stroke="black" points="10,-99 10,-118 109,-118 109,-99 10,-99"/>
<text text-anchor="middle" x="59.5" y="-106" font-family="Helvetica,sans-Serif" font-size="10.00">satella::make_task</text>
</a>
</g>
</g>
<!-- Node2&#45;&gt;Node3 -->
<g id="edge2" class="edge">
<title>Node2&#45;&gt;Node3</title>
<path fill="none" stroke="midnightblue" d="M144.44,-105.13C132.57,-105.61 120.39,-106.1 109.11,-106.55"/>
<polygon fill="midnightblue" stroke="midnightblue" points="144.9,-108.62 154.76,-104.72 144.62,-101.62 144.9,-108.62"/>
</g>
<!-- Node2&#45;&gt;Node4 -->
<g id="edge3" class="edge">
<title>Node2&#45;&gt;Node4</title>
<path fill="none" stroke="midnightblue" d="M172.03,-115.2C151.81,-121.96 126.82,-130.32 105.62,-137.41"/>
<polygon fill="midnightblue" stroke="midnightblue" points="173.15,-118.51 181.53,-112.02 170.93,-111.87 173.15,-118.51"/>
</g>
<!-- Node2&#45;&gt;Node5 -->
<g id="edge4" class="edge">
<title>Node2&#45;&gt;Node5</title>
<path fill="none" stroke="midnightblue" d="M162.28,-90.37C144.79,-85.92 125.02,-80.9 107.59,-76.47"/>
<polygon fill="midnightblue" stroke="midnightblue" points="161.72,-93.84 172.27,-92.91 163.45,-87.06 161.72,-93.84"/>
</g>
<!-- Node2&#45;&gt;Node6 -->
<g id="edge5" class="edge">
<title>Node2&#45;&gt;Node6</title>
<path fill="none" stroke="midnightblue" d="M189.89,-86.69C171.98,-73.06 144.69,-53.45 119,-39.5 113.21,-36.36 106.92,-33.37 100.69,-30.64"/>
<polygon fill="midnightblue" stroke="midnightblue" points="187.83,-89.51 197.89,-92.84 192.1,-83.97 187.83,-89.51"/>
</g>
</g>
</svg>
