<?xml version="1.0" encoding="UTF-8" standalone="no"?>
<!DOCTYPE svg PUBLIC "-//W3C//DTD SVG 1.1//EN"
 "http://www.w3.org/Graphics/SVG/1.1/DTD/svg11.dtd">
<!-- Generated by graphviz version 2.44.1 (20200629.0800)
 -->
<!-- Title: satella::index Pages: 1 -->
<!--zoomable 590 -->
<svg id="main" version="1.1" xmlns="http://www.w3.org/2000/svg" xmlns:xlink="http://www.w3.org/1999/xlink" xml:space="preserve" onload="init(evt)">
<style type="text/css"><![CDATA[
.edge:hover path { stroke: red; }
.edge:hover polygon { stroke: red; fill: red; }
]]></style>
<script type="text/javascript"><![CDATA[
var edges = document.getElementsByTagName('g');
if (edges && edges.length) {
  for (var i=0;i<edges.length;i++) {
    if (edges[i].id.substr(0,4)=='edge') {
      edges[i].setAttribute('class','edge');
    }
  }
}
]]></script>
        <defs>
                <circle id="rim" cx="0" cy="0" r="7"/>
                <circle id="rim2" cx="0" cy="0" r="3.5"/>
                <g id="zoomPlus">
                        <use xlink:href="#rim" fill="#404040">
                                <set attributeName="fill" to="#808080" begin="zoomplus.mouseover" end="zoomplus.mouseout"/>
                        </use>
                        <path d="M-4,0h8M0,-4v8" fill="none" stroke="white" stroke-width="1.5" pointer-events="none"/>
                </g>
                <g id="zoomMin">
                        <use xlink:href="#rim" fill="#404040">
                                <set attributeName="fill" to="#808080" begin="zoomminus.mouseover" end="zoomminus.mouseout"/>
                        </use>
                        <path d="M-4,0h8" fill="none" stroke="white" stroke-width="1.5" pointer-events="none"/>
                </g>
                <g id="dirArrow">
                        <path fill="none" stroke="white" stroke-width="1.5" d="M0,-3.0v7 M-2.5,-0.5L0,-3.0L2.5,-0.5"/>
                </g>
               <g id="resetDef">
                       <use xlink:href="#rim2" fill="#404040">
                               <set attributeName="fill" to="#808080" begin="reset.mouseover" end="reset.mouseout"/>
                       </use>
               </g>
        </defs>

<script type="text/javascript">
var viewWidth = 282;
var viewHeight = 590;
var sectionId = 'dynsection-0';
</script>
<script xlink:href="svgpan.js"/>
<svg id="graph" class="graph">
<g id="viewport">
<title>satella::index</title>
<polygon fill="white" stroke="transparent" points="-4,4 -4,-586 278,-586 278,4 -4,4"/>
<!-- Node1 -->
<g id="node1" class="node">
<title>Node1</title>
<g id="a_node1"><a xlink:title=" ">
<polygon fill="#bfbfbf" stroke="black" points="200,-276 200,-295 274,-295 274,-276 200,-276"/>
<text text-anchor="middle" x="237" y="-283" font-family="Helvetica,sans-Serif" font-size="10.00">satella::index</text>
</a>
</g>
</g>
<!-- Node2 -->
<g id="node2" class="node">
<title>Node2</title>
<g id="a_node2"><a xlink:href="classsatella_1_1impl_1_1_state.html#a5e4ed6dec1f1d66b1313c418ad6324b1" target="_top" xlink:title=" ">
<polygon fill="white" stroke="black" points="33,-551.5 33,-581.5 131,-581.5 131,-551.5 33,-551.5"/>
<text text-anchor="start" x="41" y="-569.5" font-family="Helvetica,sans-Serif" font-size="10.00">satella::impl::State</text>
<text text-anchor="middle" x="82" y="-558.5" font-family="Helvetica,sans-Serif" font-size="10.00">::get_value</text>
</a>
</g>
</g>
<!-- Node1&#45;&gt;Node2 -->
<g id="edge1" class="edge">
<title>Node1&#45;&gt;Node2</title>
<path fill="none" stroke="midnightblue" d="M236.51,-305.2C236.62,-352.86 230.09,-475.41 164,-542.5 155.15,-551.49 143.1,-557.14 131.01,-560.69"/>
<polygon fill="midnightblue" stroke="midnightblue" points="240.01,-304.96 236.37,-295.01 233.01,-305.05 240.01,-304.96"/>
</g>
<!-- Node3 -->
<g id="node3" class="node">
<title>Node3</title>
<g id="a_node3"><a xlink:href="classsatella_1_1impl_1_1_state_3_01_t_01_6_01_4.html#a7c487e2c750d7127c91f2d522227b687" target="_top" xlink:title=" ">
<polygon fill="white" stroke="black" points="33,-502.5 33,-532.5 131,-532.5 131,-502.5 33,-502.5"/>
<text text-anchor="start" x="41" y="-520.5" font-family="Helvetica,sans-Serif" font-size="10.00">satella::impl::State</text>
<text text-anchor="middle" x="82" y="-509.5" font-family="Helvetica,sans-Serif" font-size="10.00">&lt; T &amp; &gt;::get_value</text>
</a>
</g>
</g>
<!-- Node1&#45;&gt;Node3 -->
<g id="edge2" class="edge">
<title>Node1&#45;&gt;Node3</title>
<path fill="none" stroke="midnightblue" d="M234.94,-305.56C231.66,-346.81 218.29,-441.61 164,-493.5 154.99,-502.11 143.03,-507.65 131.08,-511.21"/>
<polygon fill="midnightblue" stroke="midnightblue" points="238.44,-305.64 235.62,-295.43 231.46,-305.17 238.44,-305.64"/>
</g>
<!-- Node4 -->
<g id="node4" class="node">
<title>Node4</title>
<g id="a_node4"><a xlink:href="classsatella_1_1impl_1_1_state_base.html#a6bccbc2088a414405dc207874e2a6669" target="_top" xlink:title=" ">
<polygon fill="white" stroke="black" points="13.5,-431.5 13.5,-483.5 150.5,-483.5 150.5,-431.5 13.5,-431.5"/>
<text text-anchor="start" x="21.5" y="-471.5" font-family="Helvetica,sans-Serif" font-size="10.00">satella::impl::StateBase</text>
<text text-anchor="start" x="21.5" y="-460.5" font-family="Helvetica,sans-Serif" font-size="10.00">&lt; variant&lt; std::exception</text>
<text text-anchor="start" x="21.5" y="-449.5" font-family="Helvetica,sans-Serif" font-size="10.00">_ptr, std::reference_wrapper</text>
<text text-anchor="middle" x="82" y="-438.5" font-family="Helvetica,sans-Serif" font-size="10.00">&lt; T &gt; &gt; &gt;::set_callback</text>
</a>
</g>
</g>
<!-- Node1&#45;&gt;Node4 -->
<g id="edge3" class="edge">
<title>Node1&#45;&gt;Node4</title>
<path fill="none" stroke="midnightblue" d="M230.39,-305C221.08,-334.17 199.82,-389.3 164,-422.5 159.96,-426.25 155.45,-429.64 150.68,-432.69"/>
<polygon fill="midnightblue" stroke="midnightblue" points="233.81,-305.77 233.38,-295.19 227.11,-303.73 233.81,-305.77"/>
</g>
<!-- Node5 -->
<g id="node5" class="node">
<title>Node5</title>
<g id="a_node5"><a xlink:href="classsatella_1_1impl_1_1_state_base.html#a24941f18fb25527b7cc54f20a4ebe7bb" target="_top" xlink:title=" ">
<polygon fill="white" stroke="black" points="5.5,-360.5 5.5,-412.5 158.5,-412.5 158.5,-360.5 5.5,-360.5"/>
<text text-anchor="start" x="13.5" y="-400.5" font-family="Helvetica,sans-Serif" font-size="10.00">satella::impl::StateBase</text>
<text text-anchor="start" x="13.5" y="-389.5" font-family="Helvetica,sans-Serif" font-size="10.00">&lt; variant&lt; std::exception</text>
<text text-anchor="start" x="13.5" y="-378.5" font-family="Helvetica,sans-Serif" font-size="10.00">_ptr, std::reference_wrapper</text>
<text text-anchor="middle" x="82" y="-367.5" font-family="Helvetica,sans-Serif" font-size="10.00">&lt; T &gt; &gt; &gt;::set_shared_callback</text>
</a>
</g>
</g>
<!-- Node1&#45;&gt;Node5 -->
<g id="edge4" class="edge">
<title>Node1&#45;&gt;Node5</title>
<path fill="none" stroke="midnightblue" d="M220.68,-302.42C206.92,-316.88 185.61,-337.5 164,-351.5 159.11,-354.67 153.89,-357.66 148.55,-360.47"/>
<polygon fill="midnightblue" stroke="midnightblue" points="223.24,-304.81 227.5,-295.11 218.12,-300.04 223.24,-304.81"/>
</g>
<!-- Node6 -->
<g id="node6" class="node">
<title>Node6</title>
<g id="a_node6"><a xlink:href="classsatella_1_1impl_1_1_state_base.html#afbd5049e35aa3cef7b5bbaca10b1081e" target="_top" xlink:title=" ">
<polygon fill="white" stroke="black" points="13.5,-289.5 13.5,-341.5 150.5,-341.5 150.5,-289.5 13.5,-289.5"/>
<text text-anchor="start" x="21.5" y="-329.5" font-family="Helvetica,sans-Serif" font-size="10.00">satella::impl::StateBase</text>
<text text-anchor="start" x="21.5" y="-318.5" font-family="Helvetica,sans-Serif" font-size="10.00">&lt; variant&lt; std::exception</text>
<text text-anchor="start" x="21.5" y="-307.5" font-family="Helvetica,sans-Serif" font-size="10.00">_ptr, std::reference_wrapper</text>
<text text-anchor="middle" x="82" y="-296.5" font-family="Helvetica,sans-Serif" font-size="10.00">&lt; T &gt; &gt; &gt;::set_value</text>
</a>
</g>
</g>
<!-- Node1&#45;&gt;Node6 -->
<g id="edge5" class="edge">
<title>Node1&#45;&gt;Node6</title>
<path fill="none" stroke="midnightblue" d="M189.75,-294.57C177.47,-296.98 163.96,-299.63 150.79,-302.21"/>
<polygon fill="midnightblue" stroke="midnightblue" points="190.6,-297.97 199.74,-292.61 189.25,-291.1 190.6,-297.97"/>
</g>
<!-- Node7 -->
<g id="node7" class="node">
<title>Node7</title>
<g id="a_node7"><a xlink:href="classsatella_1_1impl_1_1_task.html#a4fef0884b7118f5db504d464177dd11e" target="_top" xlink:title=" ">
<polygon fill="white" stroke="black" points="34,-240.5 34,-270.5 130,-270.5 130,-240.5 34,-240.5"/>
<text text-anchor="start" x="42" y="-258.5" font-family="Helvetica,sans-Serif" font-size="10.00">satella::impl::Task</text>
<text text-anchor="middle" x="82" y="-247.5" font-family="Helvetica,sans-Serif" font-size="10.00">::then</text>
</a>
</g>
</g>
<!-- Node1&#45;&gt;Node7 -->
<g id="edge6" class="edge">
<title>Node1&#45;&gt;Node7</title>
<path fill="none" stroke="midnightblue" d="M189.86,-276.45C170.93,-272.74 149.04,-268.45 130.02,-264.72"/>
<polygon fill="midnightblue" stroke="midnightblue" points="189.25,-279.9 199.74,-278.39 190.6,-273.03 189.25,-279.9"/>
</g>
<!-- Node8 -->
<g id="node8" class="node">
<title>Node8</title>
<g id="a_node8"><a xlink:href="classsatella_1_1impl_1_1_state.html#a4324e79096a0f3102019bf4b0c2224c8" target="_top" xlink:title=" ">
<polygon fill="white" stroke="black" points="33,-191.5 33,-221.5 131,-221.5 131,-191.5 33,-191.5"/>
<text text-anchor="start" x="41" y="-209.5" font-family="Helvetica,sans-Serif" font-size="10.00">satella::impl::State</text>
<text text-anchor="middle" x="82" y="-198.5" font-family="Helvetica,sans-Serif" font-size="10.00">::unsafe_get_value</text>
</a>
</g>
</g>
<!-- Node1&#45;&gt;Node8 -->
<g id="edge7" class="edge">
<title>Node1&#45;&gt;Node8</title>
<path fill="none" stroke="midnightblue" d="M217.77,-269.02C203.88,-257.18 183.83,-241.61 164,-231.5 153.77,-226.29 142.26,-221.93 131.19,-218.39"/>
<polygon fill="midnightblue" stroke="midnightblue" points="215.73,-271.88 225.57,-275.82 220.33,-266.6 215.73,-271.88"/>
</g>
<!-- Node9 -->
<g id="node9" class="node">
<title>Node9</title>
<g id="a_node9"><a xlink:href="classsatella_1_1impl_1_1_state_3_01_t_01_6_01_4.html#a75d61ae0f08f8b34a4e125e65b4e8359" target="_top" xlink:title=" ">
<polygon fill="white" stroke="black" points="17,-142.5 17,-172.5 147,-172.5 147,-142.5 17,-142.5"/>
<text text-anchor="start" x="25" y="-160.5" font-family="Helvetica,sans-Serif" font-size="10.00">satella::impl::State</text>
<text text-anchor="middle" x="82" y="-149.5" font-family="Helvetica,sans-Serif" font-size="10.00">&lt; T &amp; &gt;::unsafe_get_value</text>
</a>
</g>
</g>
<!-- Node1&#45;&gt;Node9 -->
<g id="edge8" class="edge">
<title>Node1&#45;&gt;Node9</title>
<path fill="none" stroke="midnightblue" d="M227.72,-266.84C216.52,-243.72 194.41,-204.67 164,-182.5 158.65,-178.6 152.68,-175.3 146.47,-172.5"/>
<polygon fill="midnightblue" stroke="midnightblue" points="224.57,-268.37 231.96,-275.95 230.91,-265.41 224.57,-268.37"/>
</g>
<!-- Node10 -->
<g id="node10" class="node">
<title>Node10</title>
<g id="a_node10"><a xlink:href="classsatella_1_1impl_1_1_state_base.html#a8b694f981533311d21e1b95322ee45f3" target="_top" xlink:title=" ">
<polygon fill="white" stroke="black" points="12,-71.5 12,-123.5 152,-123.5 152,-71.5 12,-71.5"/>
<text text-anchor="start" x="20" y="-111.5" font-family="Helvetica,sans-Serif" font-size="10.00">satella::impl::StateBase</text>
<text text-anchor="start" x="20" y="-100.5" font-family="Helvetica,sans-Serif" font-size="10.00">&lt; variant&lt; std::exception</text>
<text text-anchor="start" x="20" y="-89.5" font-family="Helvetica,sans-Serif" font-size="10.00">_ptr, std::reference_wrapper</text>
<text text-anchor="middle" x="82" y="-78.5" font-family="Helvetica,sans-Serif" font-size="10.00">&lt; T &gt; &gt; &gt;::unsafe_has_value</text>
</a>
</g>
</g>
<!-- Node1&#45;&gt;Node10 -->
<g id="edge9" class="edge">
<title>Node1&#45;&gt;Node10</title>
<path fill="none" stroke="midnightblue" d="M231.52,-266.16C223.28,-234.53 202.88,-171.45 164,-133.5 160.26,-129.85 156.08,-126.53 151.65,-123.52"/>
<polygon fill="midnightblue" stroke="midnightblue" points="228.14,-267.08 233.94,-275.95 234.94,-265.4 228.14,-267.08"/>
</g>
<!-- Node11 -->
<g id="node11" class="node">
<title>Node11</title>
<g id="a_node11"><a xlink:href="classsatella_1_1impl_1_1_state_base.html#a86a70bf760dba11a723d563c47d82cd3" target="_top" xlink:title=" ">
<polygon fill="white" stroke="black" points="0,-0.5 0,-52.5 164,-52.5 164,-0.5 0,-0.5"/>
<text text-anchor="start" x="8" y="-40.5" font-family="Helvetica,sans-Serif" font-size="10.00">satella::impl::StateBase</text>
<text text-anchor="start" x="8" y="-29.5" font-family="Helvetica,sans-Serif" font-size="10.00">&lt; variant&lt; std::exception</text>
<text text-anchor="start" x="8" y="-18.5" font-family="Helvetica,sans-Serif" font-size="10.00">_ptr, std::reference_wrapper</text>
<text text-anchor="middle" x="82" y="-7.5" font-family="Helvetica,sans-Serif" font-size="10.00">&lt; T &gt; &gt; &gt;::unset_shared_callback</text>
</a>
</g>
</g>
<!-- Node1&#45;&gt;Node11 -->
<g id="edge10" class="edge">
<title>Node1&#45;&gt;Node11</title>
<path fill="none" stroke="midnightblue" d="M234.87,-265.48C231.46,-222.9 217.83,-122.35 164,-62.5 160.71,-58.84 156.97,-55.53 152.96,-52.54"/>
<polygon fill="midnightblue" stroke="midnightblue" points="231.4,-265.92 235.58,-275.65 238.38,-265.44 231.4,-265.92"/>
</g>
</g>
</svg>
        <g id="navigator" transform="translate(0 0)" fill="#404254">
                <rect fill="#f2f5e9" fill-opacity="0.5" stroke="#606060" stroke-width=".5" x="0" y="0" width="60" height="60"/>
                <use id="zoomplus" xlink:href="#zoomPlus" x="17" y="9" onmousedown="handleZoom(evt,'in')"/>
                <use id="zoomminus" xlink:href="#zoomMin" x="42" y="9" onmousedown="handleZoom(evt,'out')"/>
                <use id="reset" xlink:href="#resetDef" x="30" y="36" onmousedown="handleReset()"/>
                <g id="arrowUp" xlink:href="#dirArrow" transform="translate(30 24)" onmousedown="handlePan(0,-1)">
                  <use xlink:href="#rim" fill="#404040">
                        <set attributeName="fill" to="#808080" begin="arrowUp.mouseover" end="arrowUp.mouseout"/>
                  </use>
                  <path fill="none" stroke="white" stroke-width="1.5" d="M0,-3.0v7 M-2.5,-0.5L0,-3.0L2.5,-0.5"/>
                </g>
                <g id="arrowRight" xlink:href="#dirArrow" transform="rotate(90) translate(36 -43)" onmousedown="handlePan(1,0)">
                  <use xlink:href="#rim" fill="#404040">
                        <set attributeName="fill" to="#808080" begin="arrowRight.mouseover" end="arrowRight.mouseout"/>
                  </use>
                  <path fill="none" stroke="white" stroke-width="1.5" d="M0,-3.0v7 M-2.5,-0.5L0,-3.0L2.5,-0.5"/>
                </g>
                <g id="arrowDown" xlink:href="#dirArrow" transform="rotate(180) translate(-30 -48)" onmousedown="handlePan(0,1)">
                  <use xlink:href="#rim" fill="#404040">
                        <set attributeName="fill" to="#808080" begin="arrowDown.mouseover" end="arrowDown.mouseout"/>
                  </use>
                  <path fill="none" stroke="white" stroke-width="1.5" d="M0,-3.0v7 M-2.5,-0.5L0,-3.0L2.5,-0.5"/>
                </g>
                <g id="arrowLeft" xlink:href="#dirArrow" transform="rotate(270) translate(-36 17)" onmousedown="handlePan(-1,0)">
                  <use xlink:href="#rim" fill="#404040">
                        <set attributeName="fill" to="#808080" begin="arrowLeft.mouseover" end="arrowLeft.mouseout"/>
                  </use>
                  <path fill="none" stroke="white" stroke-width="1.5" d="M0,-3.0v7 M-2.5,-0.5L0,-3.0L2.5,-0.5"/>
                </g>
        </g>
        <svg viewBox="0 0 15 15" width="100%" height="30px" preserveAspectRatio="xMaxYMin meet">
         <g id="arrow_out" transform="scale(0.3 0.3)">
          <a xlink:href="namespacesatella_a29e939a48de9d2e3472fbfcc5de87aba_icgraph_org.svg" target="_base">
           <rect id="button" ry="5" rx="5" y="6" x="6" height="38" width="38"
                fill="#f2f5e9" fill-opacity="0.5" stroke="#606060" stroke-width="1.0"/>
           <path id="arrow"
             d="M 11.500037,31.436501 C 11.940474,20.09759 22.043105,11.32322 32.158766,21.979434 L 37.068811,17.246167 C 37.068811,17.246167 37.088388,32 37.088388,32 L 22.160133,31.978069 C 22.160133,31.978069 26.997745,27.140456 26.997745,27.140456 C 18.528582,18.264221 13.291696,25.230495 11.500037,31.436501 z"
             style="fill:#404040;"/>
          </a>
         </g>
        </svg>
</svg>
