<?xml version="1.0" encoding="UTF-8" standalone="no"?>
<!DOCTYPE svg PUBLIC "-//W3C//DTD SVG 1.1//EN"
 "http://www.w3.org/Graphics/SVG/1.1/DTD/svg11.dtd">
<!-- Generated by graphviz version 2.44.1 (20200629.0800)
 -->
<!-- Title: satella::impl::const_off Pages: 1 -->
<!--zoomable 590 -->
<svg id="main" version="1.1" xmlns="http://www.w3.org/2000/svg" xmlns:xlink="http://www.w3.org/1999/xlink" xml:space="preserve" onload="init(evt)">
<style type="text/css"><![CDATA[
.edge:hover path { stroke: red; }
.edge:hover polygon { stroke: red; fill: red; }
]]></style>
<script type="text/javascript"><![CDATA[
var edges = document.getElementsByTagName('g');
if (edges && edges.length) {
  for (var i=0;i<edges.length;i++) {
    if (edges[i].id.substr(0,4)=='edge') {
      edges[i].setAttribute('class','edge');
    }
  }
}
]]></script>
        <defs>
                <circle id="rim" cx="0" cy="0" r="7"/>
                <circle id="rim2" cx="0" cy="0" r="3.5"/>
                <g id="zoomPlus">
                        <use xlink:href="#rim" fill="#404040">
                                <set attributeName="fill" to="#808080" begin="zoomplus.mouseover" end="zoomplus.mouseout"/>
                        </use>
                        <path d="M-4,0h8M0,-4v8" fill="none" stroke="white" stroke-width="1.5" pointer-events="none"/>
                </g>
                <g id="zoomMin">
                        <use xlink:href="#rim" fill="#404040">
                                <set attributeName="fill" to="#808080" begin="zoomminus.mouseover" end="zoomminus.mouseout"/>
                        </use>
                        <path d="M-4,0h8" fill="none" stroke="white" stroke-width="1.5" pointer-events="none"/>
                </g>
                <g id="dirArrow">
                        <path fill="none" stroke="white" stroke-width="1.5" d="M0,-3.0v7 M-2.5,-0.5L0,-3.0L2.5,-0.5"/>
                </g>
               <g id="resetDef">
                       <use xlink:href="#rim2" fill="#404040">
                               <set attributeName="fill" to="#808080" begin="reset.mouseover" end="reset.mouseout"/>
                       </use>
               </g>
        </defs>

<script type="text/javascript">
var viewWidth = 295;
var viewHeight = 590;
var sectionId = 'dynsection-0';
</script>
<script xlink:href="svgpan.js"/>
<svg id="graph" class="graph">
<g id="viewport">
<title>satella::impl::const_off</title>
<polygon fill="white" stroke="transparent" points="-4,4 -4,-586 291,-586 291,4 -4,4"/>
<!-- Node1 -->
<g id="node1" class="node">
<title>Node1</title>
<g id="a_node1"><a xlink:title=" ">
<polygon fill="#bfbfbf" stroke="black" points="173,-287 173,-306 287,-306 287,-287 173,-287"/>
<text text-anchor="middle" x="230" y="-294" font-family="Helvetica,sans-Serif" font-size="10.00">satella::impl::const_off</text>
</a>
</g>
</g>
<!-- Node2 -->
<g id="node2" class="node">
<title>Node2</title>
<g id="a_node2"><a xlink:href="classsatella_1_1blocking__queue.html#a4c9b820d7e87a0cbe718c949f859be50" target="_top" xlink:title=" ">
<polygon fill="white" stroke="black" points="9,-551.5 9,-581.5 128,-581.5 128,-551.5 9,-551.5"/>
<text text-anchor="start" x="17" y="-569.5" font-family="Helvetica,sans-Serif" font-size="10.00">satella::blocking_queue</text>
<text text-anchor="middle" x="68.5" y="-558.5" font-family="Helvetica,sans-Serif" font-size="10.00">::empty</text>
</a>
</g>
</g>
<!-- Node1&#45;&gt;Node2 -->
<g id="edge1" class="edge">
<title>Node1&#45;&gt;Node2</title>
<path fill="none" stroke="midnightblue" d="M227.2,-316.17C221.96,-362.21 202.62,-477.94 137,-542.5 133.54,-545.9 129.57,-548.82 125.32,-551.33"/>
<polygon fill="midnightblue" stroke="midnightblue" points="230.7,-316.35 228.25,-306.04 223.74,-315.63 230.7,-316.35"/>
</g>
<!-- Node3 -->
<g id="node3" class="node">
<title>Node3</title>
<g id="a_node3"><a xlink:href="classsatella_1_1impl_1_1_state_base.html#ab8a777502402a2d5ddfa01eb2f81ab71" target="_top" xlink:title=" ">
<polygon fill="white" stroke="black" points="0,-480.5 0,-532.5 137,-532.5 137,-480.5 0,-480.5"/>
<text text-anchor="start" x="8" y="-520.5" font-family="Helvetica,sans-Serif" font-size="10.00">satella::impl::StateBase</text>
<text text-anchor="start" x="8" y="-509.5" font-family="Helvetica,sans-Serif" font-size="10.00">&lt; variant&lt; std::exception</text>
<text text-anchor="start" x="8" y="-498.5" font-family="Helvetica,sans-Serif" font-size="10.00">_ptr, std::reference_wrapper</text>
<text text-anchor="middle" x="68.5" y="-487.5" font-family="Helvetica,sans-Serif" font-size="10.00">&lt; T &gt; &gt; &gt;::get_lock</text>
</a>
</g>
</g>
<!-- Node1&#45;&gt;Node3 -->
<g id="edge2" class="edge">
<title>Node1&#45;&gt;Node3</title>
<path fill="none" stroke="midnightblue" d="M223.1,-316.01C211.64,-351.08 183.34,-425.42 137,-471.5 133.82,-474.66 130.29,-477.61 126.56,-480.33"/>
<polygon fill="midnightblue" stroke="midnightblue" points="226.56,-316.68 226.23,-306.09 219.88,-314.57 226.56,-316.68"/>
</g>
<!-- Node4 -->
<g id="node4" class="node">
<title>Node4</title>
<g id="a_node4"><a xlink:href="classsatella_1_1impl_1_1_state_base.html#ad01f40c6693d458a3971f38ee9cd3224" target="_top" xlink:title=" ">
<polygon fill="white" stroke="black" points="0,-409.5 0,-461.5 137,-461.5 137,-409.5 0,-409.5"/>
<text text-anchor="start" x="8" y="-449.5" font-family="Helvetica,sans-Serif" font-size="10.00">satella::impl::StateBase</text>
<text text-anchor="start" x="8" y="-438.5" font-family="Helvetica,sans-Serif" font-size="10.00">&lt; variant&lt; std::exception</text>
<text text-anchor="start" x="8" y="-427.5" font-family="Helvetica,sans-Serif" font-size="10.00">_ptr, std::reference_wrapper</text>
<text text-anchor="middle" x="68.5" y="-416.5" font-family="Helvetica,sans-Serif" font-size="10.00">&lt; T &gt; &gt; &gt;::has_value</text>
</a>
</g>
</g>
<!-- Node1&#45;&gt;Node4 -->
<g id="edge3" class="edge">
<title>Node1&#45;&gt;Node4</title>
<path fill="none" stroke="midnightblue" d="M216.42,-314.4C200.08,-336.7 169.74,-374.96 137,-400.5 133.04,-403.59 128.78,-406.53 124.38,-409.3"/>
<polygon fill="midnightblue" stroke="midnightblue" points="219.34,-316.33 222.35,-306.17 213.66,-312.24 219.34,-316.33"/>
</g>
<!-- Node5 -->
<g id="node5" class="node">
<title>Node5</title>
<g id="a_node5"><a xlink:href="classsatella_1_1blocking__queue.html#ad99ab56753717072279fe2d699e549f9" target="_top" xlink:title=" ">
<polygon fill="white" stroke="black" points="9,-360.5 9,-390.5 128,-390.5 128,-360.5 9,-360.5"/>
<text text-anchor="start" x="17" y="-378.5" font-family="Helvetica,sans-Serif" font-size="10.00">satella::blocking_queue</text>
<text text-anchor="middle" x="68.5" y="-367.5" font-family="Helvetica,sans-Serif" font-size="10.00">::size</text>
</a>
</g>
</g>
<!-- Node1&#45;&gt;Node5 -->
<g id="edge4" class="edge">
<title>Node1&#45;&gt;Node5</title>
<path fill="none" stroke="midnightblue" d="M206.11,-311.92C187.91,-323.75 161.51,-339.95 137,-351.5 130.25,-354.68 122.95,-357.69 115.74,-360.43"/>
<polygon fill="midnightblue" stroke="midnightblue" points="208.4,-314.6 214.83,-306.18 204.55,-308.75 208.4,-314.6"/>
</g>
<!-- Node6 -->
<g id="node6" class="node">
<title>Node6</title>
<g id="a_node6"><a xlink:href="classsatella_1_1impl_1_1_cancellation_token.html#aada5d6a0e32fbd2fd6d0db61fede1603" target="_top" xlink:title=" ">
<polygon fill="white" stroke="black" points="4.5,-311.5 4.5,-341.5 132.5,-341.5 132.5,-311.5 4.5,-311.5"/>
<text text-anchor="start" x="12.5" y="-329.5" font-family="Helvetica,sans-Serif" font-size="10.00">satella::impl::Cancellation</text>
<text text-anchor="middle" x="68.5" y="-318.5" font-family="Helvetica,sans-Serif" font-size="10.00">Token::wait</text>
</a>
</g>
</g>
<!-- Node1&#45;&gt;Node6 -->
<g id="edge5" class="edge">
<title>Node1&#45;&gt;Node6</title>
<path fill="none" stroke="midnightblue" d="M168.04,-307.97C156.41,-310.15 144.21,-312.45 132.51,-314.65"/>
<polygon fill="midnightblue" stroke="midnightblue" points="168.91,-311.36 178.09,-306.07 167.62,-304.48 168.91,-311.36"/>
</g>
<!-- Node7 -->
<g id="node7" class="node">
<title>Node7</title>
<g id="a_node7"><a xlink:href="classsatella_1_1impl_1_1_state_base.html#a19898fcf52d2f0146c3b48807ca46a65" target="_top" xlink:title=" ">
<polygon fill="white" stroke="black" points="0,-240.5 0,-292.5 137,-292.5 137,-240.5 0,-240.5"/>
<text text-anchor="start" x="8" y="-280.5" font-family="Helvetica,sans-Serif" font-size="10.00">satella::impl::StateBase</text>
<text text-anchor="start" x="8" y="-269.5" font-family="Helvetica,sans-Serif" font-size="10.00">&lt; variant&lt; std::exception</text>
<text text-anchor="start" x="8" y="-258.5" font-family="Helvetica,sans-Serif" font-size="10.00">_ptr, std::reference_wrapper</text>
<text text-anchor="middle" x="68.5" y="-247.5" font-family="Helvetica,sans-Serif" font-size="10.00">&lt; T &gt; &gt; &gt;::wait</text>
</a>
</g>
</g>
<!-- Node1&#45;&gt;Node7 -->
<g id="edge6" class="edge">
<title>Node1&#45;&gt;Node7</title>
<path fill="none" stroke="midnightblue" d="M168.12,-285.05C157.98,-283.14 147.4,-281.15 137.1,-279.21"/>
<polygon fill="midnightblue" stroke="midnightblue" points="167.62,-288.52 178.09,-286.93 168.91,-281.64 167.62,-288.52"/>
</g>
<!-- Node8 -->
<g id="node8" class="node">
<title>Node8</title>
<g id="a_node8"><a xlink:href="classsatella_1_1impl_1_1_cancellation_token.html#aae9281ec2faa5182efd81dd251845304" target="_top" xlink:title=" ">
<polygon fill="white" stroke="black" points="4.5,-191.5 4.5,-221.5 132.5,-221.5 132.5,-191.5 4.5,-191.5"/>
<text text-anchor="start" x="12.5" y="-209.5" font-family="Helvetica,sans-Serif" font-size="10.00">satella::impl::Cancellation</text>
<text text-anchor="middle" x="68.5" y="-198.5" font-family="Helvetica,sans-Serif" font-size="10.00">Token::wait_for</text>
</a>
</g>
</g>
<!-- Node1&#45;&gt;Node8 -->
<g id="edge7" class="edge">
<title>Node1&#45;&gt;Node8</title>
<path fill="none" stroke="midnightblue" d="M209.45,-280.4C191.46,-266.16 163.62,-245.52 137,-231.5 130.15,-227.89 122.65,-224.56 115.23,-221.59"/>
<polygon fill="midnightblue" stroke="midnightblue" points="207.46,-283.29 217.44,-286.82 211.84,-277.83 207.46,-283.29"/>
</g>
<!-- Node9 -->
<g id="node9" class="node">
<title>Node9</title>
<g id="a_node9"><a xlink:href="classsatella_1_1impl_1_1_state_base.html#af129321b6e4e5ca32e94d96ffdd03940" target="_top" xlink:title=" ">
<polygon fill="white" stroke="black" points="0,-120.5 0,-172.5 137,-172.5 137,-120.5 0,-120.5"/>
<text text-anchor="start" x="8" y="-160.5" font-family="Helvetica,sans-Serif" font-size="10.00">satella::impl::StateBase</text>
<text text-anchor="start" x="8" y="-149.5" font-family="Helvetica,sans-Serif" font-size="10.00">&lt; variant&lt; std::exception</text>
<text text-anchor="start" x="8" y="-138.5" font-family="Helvetica,sans-Serif" font-size="10.00">_ptr, std::reference_wrapper</text>
<text text-anchor="middle" x="68.5" y="-127.5" font-family="Helvetica,sans-Serif" font-size="10.00">&lt; T &gt; &gt; &gt;::wait_for</text>
</a>
</g>
</g>
<!-- Node1&#45;&gt;Node9 -->
<g id="edge8" class="edge">
<title>Node1&#45;&gt;Node9</title>
<path fill="none" stroke="midnightblue" d="M217.68,-278.28C201.93,-254.05 171.43,-210.97 137,-182.5 132.8,-179.03 128.22,-175.75 123.48,-172.68"/>
<polygon fill="midnightblue" stroke="midnightblue" points="214.82,-280.31 223.15,-286.86 220.72,-276.54 214.82,-280.31"/>
</g>
<!-- Node10 -->
<g id="node10" class="node">
<title>Node10</title>
<g id="a_node10"><a xlink:href="classsatella_1_1impl_1_1_cancellation_token.html#a8fd25bd21e13913aace4b9b10c956f63" target="_top" xlink:title=" ">
<polygon fill="white" stroke="black" points="4.5,-71.5 4.5,-101.5 132.5,-101.5 132.5,-71.5 4.5,-71.5"/>
<text text-anchor="start" x="12.5" y="-89.5" font-family="Helvetica,sans-Serif" font-size="10.00">satella::impl::Cancellation</text>
<text text-anchor="middle" x="68.5" y="-78.5" font-family="Helvetica,sans-Serif" font-size="10.00">Token::wait_until</text>
</a>
</g>
</g>
<!-- Node1&#45;&gt;Node10 -->
<g id="edge9" class="edge">
<title>Node1&#45;&gt;Node10</title>
<path fill="none" stroke="midnightblue" d="M224.39,-276.83C214.64,-239.45 188.5,-157.78 137,-111.5 132.72,-107.66 127.81,-104.39 122.61,-101.61"/>
<polygon fill="midnightblue" stroke="midnightblue" points="221.09,-278.06 226.9,-286.92 227.88,-276.37 221.09,-278.06"/>
</g>
<!-- Node11 -->
<g id="node11" class="node">
<title>Node11</title>
<g id="a_node11"><a xlink:href="classsatella_1_1impl_1_1_state_base.html#a9b8af861a6f06fda32b57612c53cf682" target="_top" xlink:title=" ">
<polygon fill="white" stroke="black" points="0,-0.5 0,-52.5 137,-52.5 137,-0.5 0,-0.5"/>
<text text-anchor="start" x="8" y="-40.5" font-family="Helvetica,sans-Serif" font-size="10.00">satella::impl::StateBase</text>
<text text-anchor="start" x="8" y="-29.5" font-family="Helvetica,sans-Serif" font-size="10.00">&lt; variant&lt; std::exception</text>
<text text-anchor="start" x="8" y="-18.5" font-family="Helvetica,sans-Serif" font-size="10.00">_ptr, std::reference_wrapper</text>
<text text-anchor="middle" x="68.5" y="-7.5" font-family="Helvetica,sans-Serif" font-size="10.00">&lt; T &gt; &gt; &gt;::wait_until</text>
</a>
</g>
</g>
<!-- Node1&#45;&gt;Node11 -->
<g id="edge10" class="edge">
<title>Node1&#45;&gt;Node11</title>
<path fill="none" stroke="midnightblue" d="M225.96,-276.64C218.37,-232.99 194.84,-127.43 137,-62.5 133.82,-58.93 130.2,-55.65 126.32,-52.65"/>
<polygon fill="midnightblue" stroke="midnightblue" points="222.56,-277.49 227.63,-286.79 229.46,-276.35 222.56,-277.49"/>
</g>
</g>
</svg>
        <g id="navigator" transform="translate(0 0)" fill="#404254">
                <rect fill="#f2f5e9" fill-opacity="0.5" stroke="#606060" stroke-width=".5" x="0" y="0" width="60" height="60"/>
                <use id="zoomplus" xlink:href="#zoomPlus" x="17" y="9" onmousedown="handleZoom(evt,'in')"/>
                <use id="zoomminus" xlink:href="#zoomMin" x="42" y="9" onmousedown="handleZoom(evt,'out')"/>
                <use id="reset" xlink:href="#resetDef" x="30" y="36" onmousedown="handleReset()"/>
                <g id="arrowUp" xlink:href="#dirArrow" transform="translate(30 24)" onmousedown="handlePan(0,-1)">
                  <use xlink:href="#rim" fill="#404040">
                        <set attributeName="fill" to="#808080" begin="arrowUp.mouseover" end="arrowUp.mouseout"/>
                  </use>
                  <path fill="none" stroke="white" stroke-width="1.5" d="M0,-3.0v7 M-2.5,-0.5L0,-3.0L2.5,-0.5"/>
                </g>
                <g id="arrowRight" xlink:href="#dirArrow" transform="rotate(90) translate(36 -43)" onmousedown="handlePan(1,0)">
                  <use xlink:href="#rim" fill="#404040">
                        <set attributeName="fill" to="#808080" begin="arrowRight.mouseover" end="arrowRight.mouseout"/>
                  </use>
                  <path fill="none" stroke="white" stroke-width="1.5" d="M0,-3.0v7 M-2.5,-0.5L0,-3.0L2.5,-0.5"/>
                </g>
                <g id="arrowDown" xlink:href="#dirArrow" transform="rotate(180) translate(-30 -48)" onmousedown="handlePan(0,1)">
                  <use xlink:href="#rim" fill="#404040">
                        <set attributeName="fill" to="#808080" begin="arrowDown.mouseover" end="arrowDown.mouseout"/>
                  </use>
                  <path fill="none" stroke="white" stroke-width="1.5" d="M0,-3.0v7 M-2.5,-0.5L0,-3.0L2.5,-0.5"/>
                </g>
                <g id="arrowLeft" xlink:href="#dirArrow" transform="rotate(270) translate(-36 17)" onmousedown="handlePan(-1,0)">
                  <use xlink:href="#rim" fill="#404040">
                        <set attributeName="fill" to="#808080" begin="arrowLeft.mouseover" end="arrowLeft.mouseout"/>
                  </use>
                  <path fill="none" stroke="white" stroke-width="1.5" d="M0,-3.0v7 M-2.5,-0.5L0,-3.0L2.5,-0.5"/>
                </g>
        </g>
        <svg viewBox="0 0 15 15" width="100%" height="30px" preserveAspectRatio="xMaxYMin meet">
         <g id="arrow_out" transform="scale(0.3 0.3)">
          <a xlink:href="namespacesatella_1_1impl_a5682bccd49176d6be519ac4be5b189fe_icgraph_org.svg" target="_base">
           <rect id="button" ry="5" rx="5" y="6" x="6" height="38" width="38"
                fill="#f2f5e9" fill-opacity="0.5" stroke="#606060" stroke-width="1.0"/>
           <path id="arrow"
             d="M 11.500037,31.436501 C 11.940474,20.09759 22.043105,11.32322 32.158766,21.979434 L 37.068811,17.246167 C 37.068811,17.246167 37.088388,32 37.088388,32 L 22.160133,31.978069 C 22.160133,31.978069 26.997745,27.140456 26.997745,27.140456 C 18.528582,18.264221 13.291696,25.230495 11.500037,31.436501 z"
             style="fill:#404040;"/>
          </a>
         </g>
        </svg>
</svg>
