<?xml version="1.0" encoding="UTF-8" standalone="no"?>
<!DOCTYPE svg PUBLIC "-//W3C//DTD SVG 1.1//EN"
 "http://www.w3.org/Graphics/SVG/1.1/DTD/svg11.dtd">
<!-- Generated by graphviz version 2.44.1 (20200629.0800)
 -->
<!-- Title: include/satella/optional.hpp Pages: 1 -->
<!--zoomable 386 -->
<svg id="main" version="1.1" xmlns="http://www.w3.org/2000/svg" xmlns:xlink="http://www.w3.org/1999/xlink" xml:space="preserve" onload="init(evt)">
<style type="text/css"><![CDATA[
.edge:hover path { stroke: red; }
.edge:hover polygon { stroke: red; fill: red; }
]]></style>
<script type="text/javascript"><![CDATA[
var edges = document.getElementsByTagName('g');
if (edges && edges.length) {
  for (var i=0;i<edges.length;i++) {
    if (edges[i].id.substr(0,4)=='edge') {
      edges[i].setAttribute('class','edge');
    }
  }
}
]]></script>
        <defs>
                <circle id="rim" cx="0" cy="0" r="7"/>
                <circle id="rim2" cx="0" cy="0" r="3.5"/>
                <g id="zoomPlus">
                        <use xlink:href="#rim" fill="#404040">
                                <set attributeName="fill" to="#808080" begin="zoomplus.mouseover" end="zoomplus.mouseout"/>
                        </use>
                        <path d="M-4,0h8M0,-4v8" fill="none" stroke="white" stroke-width="1.5" pointer-events="none"/>
                </g>
                <g id="zoomMin">
                        <use xlink:href="#rim" fill="#404040">
                                <set attributeName="fill" to="#808080" begin="zoomminus.mouseover" end="zoomminus.mouseout"/>
                        </use>
                        <path d="M-4,0h8" fill="none" stroke="white" stroke-width="1.5" pointer-events="none"/>
                </g>
                <g id="dirArrow">
                        <path fill="none" stroke="white" stroke-width="1.5" d="M0,-3.0v7 M-2.5,-0.5L0,-3.0L2.5,-0.5"/>
                </g>
               <g id="resetDef">
                       <use xlink:href="#rim2" fill="#404040">
                               <set attributeName="fill" to="#808080" begin="reset.mouseover" end="reset.mouseout"/>
                       </use>
               </g>
        </defs>

<script type="text/javascript">
var viewWidth = 519;
var viewHeight = 386;
var sectionId = 'dynsection-1';
</script>
<script xlink:href="svgpan.js"/>
<svg id="graph" class="graph">
<g id="viewport">
<title>include/satella/optional.hpp</title>
<polygon fill="white" stroke="transparent" points="-4,4 -4,-382 514.96,-382 514.96,4 -4,4"/>
<!-- Node1 -->
<g id="node1" class="node">
<title>Node1</title>
<g id="a_node1"><a xlink:title=" ">
<polygon fill="#bfbfbf" stroke="black" points="316.96,-358.5 316.96,-377.5 450.96,-377.5 450.96,-358.5 316.96,-358.5"/>
<text text-anchor="middle" x="383.96" y="-365.5" font-family="Helvetica,sans-Serif" font-size="10.00">include/satella/optional.hpp</text>
</a>
</g>
</g>
<!-- Node2 -->
<g id="node2" class="node">
<title>Node2</title>
<g id="a_node2"><a xlink:href="blocking__queue_8hpp.html" target="_top" xlink:title=" ">
<polygon fill="white" stroke="black" points="392.96,-56.5 392.96,-86.5 510.96,-86.5 510.96,-56.5 392.96,-56.5"/>
<text text-anchor="start" x="400.96" y="-74.5" font-family="Helvetica,sans-Serif" font-size="10.00">include/satella/blocking</text>
<text text-anchor="middle" x="451.96" y="-63.5" font-family="Helvetica,sans-Serif" font-size="10.00">_queue.hpp</text>
</a>
</g>
</g>
<!-- Node1&#45;&gt;Node2 -->
<g id="edge1" class="edge">
<title>Node1&#45;&gt;Node2</title>
<path fill="none" stroke="midnightblue" d="M400.09,-350.9C418.46,-330.76 445.96,-294.38 445.96,-257 445.96,-257 445.96,-257 445.96,-193.5 445.96,-154.8 449.06,-109.22 450.8,-86.65"/>
<polygon fill="midnightblue" stroke="midnightblue" points="397.45,-348.59 393.11,-358.25 402.53,-353.41 397.45,-348.59"/>
</g>
<!-- Node4 -->
<g id="node4" class="node">
<title>Node4</title>
<g id="a_node4"><a xlink:href="state_8hpp.html" target="_top" xlink:title=" ">
<polygon fill="white" stroke="black" points="278.96,-302.5 278.96,-321.5 400.96,-321.5 400.96,-302.5 278.96,-302.5"/>
<text text-anchor="middle" x="339.96" y="-309.5" font-family="Helvetica,sans-Serif" font-size="10.00">include/satella/state.hpp</text>
</a>
</g>
</g>
<!-- Node1&#45;&gt;Node4 -->
<g id="edge3" class="edge">
<title>Node1&#45;&gt;Node4</title>
<path fill="none" stroke="midnightblue" d="M370.23,-350.14C362.56,-340.74 353.33,-329.4 347.09,-321.75"/>
<polygon fill="midnightblue" stroke="midnightblue" points="367.66,-352.54 376.69,-358.08 373.09,-348.12 367.66,-352.54"/>
</g>
<!-- Node3 -->
<g id="node3" class="node">
<title>Node3</title>
<g id="a_node3"><a xlink:href="satella_8hpp.html" target="_top" xlink:title=" ">
<polygon fill="white" stroke="black" points="134.46,-0.5 134.46,-19.5 263.46,-19.5 263.46,-0.5 134.46,-0.5"/>
<text text-anchor="middle" x="198.96" y="-7.5" font-family="Helvetica,sans-Serif" font-size="10.00">include/satella/satella.hpp</text>
</a>
</g>
</g>
<!-- Node2&#45;&gt;Node3 -->
<g id="edge2" class="edge">
<title>Node2&#45;&gt;Node3</title>
<path fill="none" stroke="midnightblue" d="M382.69,-54.21C335.01,-42.99 273.57,-28.55 235.22,-19.53"/>
<polygon fill="midnightblue" stroke="midnightblue" points="382.11,-57.67 392.64,-56.55 383.71,-50.85 382.11,-57.67"/>
</g>
<!-- Node5 -->
<g id="node5" class="node">
<title>Node5</title>
<g id="a_node5"><a xlink:href="future_8hpp.html" target="_top" xlink:title=" ">
<polygon fill="white" stroke="black" points="122.46,-246.5 122.46,-265.5 247.46,-265.5 247.46,-246.5 122.46,-246.5"/>
<text text-anchor="middle" x="184.96" y="-253.5" font-family="Helvetica,sans-Serif" font-size="10.00">include/satella/future.hpp</text>
</a>
</g>
</g>
<!-- Node4&#45;&gt;Node5 -->
<g id="edge4" class="edge">
<title>Node4&#45;&gt;Node5</title>
<path fill="none" stroke="midnightblue" d="M305.63,-299.04C276.46,-288.88 235.32,-274.55 209.41,-265.52"/>
<polygon fill="midnightblue" stroke="midnightblue" points="304.8,-302.46 315.4,-302.44 307.11,-295.85 304.8,-302.46"/>
</g>
<!-- Node7 -->
<g id="node7" class="node">
<title>Node7</title>
<g id="a_node7"><a xlink:href="promise_8hpp.html" target="_top" xlink:title=" ">
<polygon fill="white" stroke="black" points="104.46,-185 104.46,-204 239.46,-204 239.46,-185 104.46,-185"/>
<text text-anchor="middle" x="171.96" y="-192" font-family="Helvetica,sans-Serif" font-size="10.00">include/satella/promise.hpp</text>
</a>
</g>
</g>
<!-- Node4&#45;&gt;Node7 -->
<g id="edge18" class="edge">
<title>Node4&#45;&gt;Node7</title>
<path fill="none" stroke="midnightblue" d="M321.79,-295.94C305.08,-282.33 279.42,-262.05 255.96,-246 232.79,-230.15 204.59,-213.75 187.47,-204.1"/>
<polygon fill="midnightblue" stroke="midnightblue" points="319.7,-298.75 329.65,-302.38 324.14,-293.34 319.7,-298.75"/>
</g>
<!-- Node9 -->
<g id="node9" class="node">
<title>Node9</title>
<g id="a_node9"><a xlink:href="shared__future_8hpp.html" target="_top" xlink:title=" ">
<polygon fill="white" stroke="black" points="296.46,-179.5 296.46,-209.5 407.46,-209.5 407.46,-179.5 296.46,-179.5"/>
<text text-anchor="start" x="304.46" y="-197.5" font-family="Helvetica,sans-Serif" font-size="10.00">include/satella/shared</text>
<text text-anchor="middle" x="351.96" y="-186.5" font-family="Helvetica,sans-Serif" font-size="10.00">_future.hpp</text>
</a>
</g>
</g>
<!-- Node4&#45;&gt;Node9 -->
<g id="edge19" class="edge">
<title>Node4&#45;&gt;Node9</title>
<path fill="none" stroke="midnightblue" d="M341.93,-292.07C344.33,-268.9 348.35,-230.22 350.5,-209.55"/>
<polygon fill="midnightblue" stroke="midnightblue" points="338.41,-292.01 340.86,-302.32 345.38,-292.73 338.41,-292.01"/>
</g>
<!-- Node5&#45;&gt;Node3 -->
<g id="edge13" class="edge">
<title>Node5&#45;&gt;Node3</title>
<path fill="none" stroke="midnightblue" d="M140.63,-243.68C77.46,-225.16 -27.26,-184.2 6.96,-123 40.11,-63.72 118.43,-33.01 164.14,-19.61"/>
<polygon fill="midnightblue" stroke="midnightblue" points="139.81,-247.09 150.39,-246.46 141.73,-240.36 139.81,-247.09"/>
</g>
<!-- Node6 -->
<g id="node6" class="node">
<title>Node6</title>
<g id="a_node6"><a xlink:href="cancellation_8hpp.html" target="_top" xlink:title=" ">
<polygon fill="white" stroke="black" points="191.96,-123.5 191.96,-142.5 343.96,-142.5 343.96,-123.5 191.96,-123.5"/>
<text text-anchor="middle" x="267.96" y="-130.5" font-family="Helvetica,sans-Serif" font-size="10.00">include/satella/cancellation.hpp</text>
</a>
</g>
</g>
<!-- Node5&#45;&gt;Node6 -->
<g id="edge5" class="edge">
<title>Node5&#45;&gt;Node6</title>
<path fill="none" stroke="midnightblue" d="M211.94,-241.46C224.6,-233.83 238.87,-223.18 247.96,-210 262.53,-188.89 266.48,-157.8 267.56,-142.77"/>
<polygon fill="midnightblue" stroke="midnightblue" points="210.08,-238.49 203.11,-246.47 213.53,-244.58 210.08,-238.49"/>
</g>
<!-- Node5&#45;&gt;Node7 -->
<g id="edge8" class="edge">
<title>Node5&#45;&gt;Node7</title>
<path fill="none" stroke="midnightblue" d="M180.95,-236.66C178.57,-225.77 175.67,-212.49 173.82,-204.01"/>
<polygon fill="midnightblue" stroke="midnightblue" points="177.54,-237.45 183.1,-246.48 184.38,-235.96 177.54,-237.45"/>
</g>
<!-- Node8 -->
<g id="node8" class="node">
<title>Node8</title>
<g id="a_node8"><a xlink:href="task_8hpp.html" target="_top" xlink:title=" ">
<polygon fill="white" stroke="black" points="16.46,-123.5 16.46,-142.5 135.46,-142.5 135.46,-123.5 16.46,-123.5"/>
<text text-anchor="middle" x="75.96" y="-130.5" font-family="Helvetica,sans-Serif" font-size="10.00">include/satella/task.hpp</text>
</a>
</g>
</g>
<!-- Node5&#45;&gt;Node8 -->
<g id="edge17" class="edge">
<title>Node5&#45;&gt;Node8</title>
<path fill="none" stroke="midnightblue" d="M143.29,-242.83C126.03,-235.82 107.23,-225.29 94.96,-210 78.79,-189.84 76.16,-157.74 75.87,-142.53"/>
<polygon fill="midnightblue" stroke="midnightblue" points="142.07,-246.11 152.66,-246.37 144.54,-239.56 142.07,-246.11"/>
</g>
<!-- Node5&#45;&gt;Node9 -->
<g id="edge14" class="edge">
<title>Node5&#45;&gt;Node9</title>
<path fill="none" stroke="midnightblue" d="M218.35,-243.1C245.52,-233.42 283.93,-219.74 312.6,-209.52"/>
<polygon fill="midnightblue" stroke="midnightblue" points="217.13,-239.82 208.89,-246.48 219.48,-246.42 217.13,-239.82"/>
</g>
<!-- Node6&#45;&gt;Node2 -->
<g id="edge6" class="edge">
<title>Node6&#45;&gt;Node2</title>
<path fill="none" stroke="midnightblue" d="M303.97,-120.36C333.95,-110.66 376.73,-96.83 408.59,-86.52"/>
<polygon fill="midnightblue" stroke="midnightblue" points="302.76,-117.07 294.32,-123.48 304.91,-123.73 302.76,-117.07"/>
</g>
<!-- Node6&#45;&gt;Node3 -->
<g id="edge7" class="edge">
<title>Node6&#45;&gt;Node3</title>
<path fill="none" stroke="midnightblue" d="M257.92,-114.4C242.9,-88.05 215.12,-39.34 203.88,-19.62"/>
<polygon fill="midnightblue" stroke="midnightblue" points="255,-116.34 263,-123.3 261.08,-112.88 255,-116.34"/>
</g>
<!-- Node7&#45;&gt;Node3 -->
<g id="edge10" class="edge">
<title>Node7&#45;&gt;Node3</title>
<path fill="none" stroke="midnightblue" d="M174.74,-174.72C180.49,-135.82 193.53,-47.71 197.67,-19.71"/>
<polygon fill="midnightblue" stroke="midnightblue" points="171.26,-174.29 173.26,-184.7 178.19,-175.32 171.26,-174.29"/>
</g>
<!-- Node7&#45;&gt;Node6 -->
<g id="edge9" class="edge">
<title>Node7&#45;&gt;Node6</title>
<path fill="none" stroke="midnightblue" d="M194.41,-179.59C212.93,-168.1 238.63,-152.18 254.23,-142.51"/>
<polygon fill="midnightblue" stroke="midnightblue" points="192.37,-176.73 185.71,-184.98 196.06,-182.68 192.37,-176.73"/>
</g>
<!-- Node7&#45;&gt;Node8 -->
<g id="edge11" class="edge">
<title>Node7&#45;&gt;Node8</title>
<path fill="none" stroke="midnightblue" d="M149.51,-179.59C130.99,-168.1 105.29,-152.18 89.69,-142.51"/>
<polygon fill="midnightblue" stroke="midnightblue" points="147.86,-182.68 158.21,-184.98 151.55,-176.73 147.86,-182.68"/>
</g>
<!-- Node8&#45;&gt;Node3 -->
<g id="edge12" class="edge">
<title>Node8&#45;&gt;Node3</title>
<path fill="none" stroke="midnightblue" d="M90.9,-116.14C105.68,-100.59 129.04,-76.32 149.96,-56 163.22,-43.12 179.04,-28.77 189.05,-19.81"/>
<polygon fill="midnightblue" stroke="midnightblue" points="88.35,-113.75 84.02,-123.41 93.44,-118.56 88.35,-113.75"/>
</g>
<!-- Node9&#45;&gt;Node3 -->
<g id="edge16" class="edge">
<title>Node9&#45;&gt;Node3</title>
<path fill="none" stroke="midnightblue" d="M357.7,-169.35C359.81,-155.11 360.17,-137.17 352.96,-123 325.28,-68.65 257.51,-34.46 221.81,-19.61"/>
<polygon fill="midnightblue" stroke="midnightblue" points="354.22,-168.92 355.84,-179.39 361.1,-170.19 354.22,-168.92"/>
</g>
<!-- Node9&#45;&gt;Node6 -->
<g id="edge15" class="edge">
<title>Node9&#45;&gt;Node6</title>
<path fill="none" stroke="midnightblue" d="M323.7,-173.48C308.9,-163 291.55,-150.71 280.18,-142.66"/>
<polygon fill="midnightblue" stroke="midnightblue" points="321.87,-176.48 332.05,-179.4 325.92,-170.76 321.87,-176.48"/>
</g>
</g>
</svg>
        <g id="navigator" transform="translate(0 0)" fill="#404254">
                <rect fill="#f2f5e9" fill-opacity="0.5" stroke="#606060" stroke-width=".5" x="0" y="0" width="60" height="60"/>
                <use id="zoomplus" xlink:href="#zoomPlus" x="17" y="9" onmousedown="handleZoom(evt,'in')"/>
                <use id="zoomminus" xlink:href="#zoomMin" x="42" y="9" onmousedown="handleZoom(evt,'out')"/>
                <use id="reset" xlink:href="#resetDef" x="30" y="36" onmousedown="handleReset()"/>
                <g id="arrowUp" xlink:href="#dirArrow" transform="translate(30 24)" onmousedown="handlePan(0,-1)">
                  <use xlink:href="#rim" fill="#404040">
                        <set attributeName="fill" to="#808080" begin="arrowUp.mouseover" end="arrowUp.mouseout"/>
                  </use>
                  <path fill="none" stroke="white" stroke-width="1.5" d="M0,-3.0v7 M-2.5,-0.5L0,-3.0L2.5,-0.5"/>
                </g>
                <g id="arrowRight" xlink:href="#dirArrow" transform="rotate(90) translate(36 -43)" onmousedown="handlePan(1,0)">
                  <use xlink:href="#rim" fill="#404040">
                        <set attributeName="fill" to="#808080" begin="arrowRight.mouseover" end="arrowRight.mouseout"/>
                  </use>
                  <path fill="none" stroke="white" stroke-width="1.5" d="M0,-3.0v7 M-2.5,-0.5L0,-3.0L2.5,-0.5"/>
                </g>
                <g id="arrowDown" xlink:href="#dirArrow" transform="rotate(180) translate(-30 -48)" onmousedown="handlePan(0,1)">
                  <use xlink:href="#rim" fill="#404040">
                        <set attributeName="fill" to="#808080" begin="arrowDown.mouseover" end="arrowDown.mouseout"/>
                  </use>
                  <path fill="none" stroke="white" stroke-width="1.5" d="M0,-3.0v7 M-2.5,-0.5L0,-3.0L2.5,-0.5"/>
                </g>
                <g id="arrowLeft" xlink:href="#dirArrow" transform="rotate(270) translate(-36 17)" onmousedown="handlePan(-1,0)">
                  <use xlink:href="#rim" fill="#404040">
                        <set attributeName="fill" to="#808080" begin="arrowLeft.mouseover" end="arrowLeft.mouseout"/>
                  </use>
                  <path fill="none" stroke="white" stroke-width="1.5" d="M0,-3.0v7 M-2.5,-0.5L0,-3.0L2.5,-0.5"/>
                </g>
        </g>
        <svg viewBox="0 0 15 15" width="100%" height="30px" preserveAspectRatio="xMaxYMin meet">
         <g id="arrow_out" transform="scale(0.3 0.3)">
          <a xlink:href="optional_8hpp__dep__incl_org.svg" target="_base">
           <rect id="button" ry="5" rx="5" y="6" x="6" height="38" width="38"
                fill="#f2f5e9" fill-opacity="0.5" stroke="#606060" stroke-width="1.0"/>
           <path id="arrow"
             d="M 11.500037,31.436501 C 11.940474,20.09759 22.043105,11.32322 32.158766,21.979434 L 37.068811,17.246167 C 37.068811,17.246167 37.088388,32 37.088388,32 L 22.160133,31.978069 C 22.160133,31.978069 26.997745,27.140456 26.997745,27.140456 C 18.528582,18.264221 13.291696,25.230495 11.500037,31.436501 z"
             style="fill:#404040;"/>
          </a>
         </g>
        </svg>
</svg>
