<?xml version="1.0" encoding="UTF-8" standalone="no"?>
<!DOCTYPE svg PUBLIC "-//W3C//DTD SVG 1.1//EN"
 "http://www.w3.org/Graphics/SVG/1.1/DTD/svg11.dtd">
<!-- Generated by graphviz version 2.44.1 (20200629.0800)
 -->
<!-- Title: include/satella/promise.hpp Pages: 1 -->
<svg width="732pt" height="252pt"
 viewBox="0.00 0.00 732.00 252.00" xmlns="http://www.w3.org/2000/svg" xmlns:xlink="http://www.w3.org/1999/xlink">
<g id="graph0" class="graph" transform="scale(1 1) rotate(0) translate(4 248)">
<title>include/satella/promise.hpp</title>
<polygon fill="white" stroke="transparent" points="-4,4 -4,-248 728,-248 728,4 -4,4"/>
<!-- Node1 -->
<g id="node1" class="node">
<title>Node1</title>
<g id="a_node1"><a xlink:title=" ">
<polygon fill="#bfbfbf" stroke="black" points="210,-224.5 210,-243.5 345,-243.5 345,-224.5 210,-224.5"/>
<text text-anchor="middle" x="277.5" y="-231.5" font-family="Helvetica,sans-Serif" font-size="10.00">include/satella/promise.hpp</text>
</a>
</g>
</g>
<!-- Node2 -->
<g id="node2" class="node">
<title>Node2</title>
<g id="a_node2"><a xlink:title=" ">
<polygon fill="white" stroke="#bfbfbf" points="0,-56.5 0,-75.5 41,-75.5 41,-56.5 0,-56.5"/>
<text text-anchor="middle" x="20.5" y="-63.5" font-family="Helvetica,sans-Serif" font-size="10.00">future</text>
</a>
</g>
</g>
<!-- Node1&#45;&gt;Node2 -->
<g id="edge1" class="edge">
<title>Node1&#45;&gt;Node2</title>
<path fill="none" stroke="midnightblue" d="M264.04,-224.31C222.15,-197.25 93.77,-114.32 42.24,-81.04"/>
<polygon fill="midnightblue" stroke="midnightblue" points="44.12,-78.09 33.82,-75.61 40.32,-83.97 44.12,-78.09"/>
</g>
<!-- Node3 -->
<g id="node3" class="node">
<title>Node3</title>
<g id="a_node3"><a xlink:title=" ">
<polygon fill="white" stroke="#bfbfbf" points="194.5,-112.5 194.5,-131.5 246.5,-131.5 246.5,-112.5 194.5,-112.5"/>
<text text-anchor="middle" x="220.5" y="-119.5" font-family="Helvetica,sans-Serif" font-size="10.00">memory</text>
</a>
</g>
</g>
<!-- Node1&#45;&gt;Node3 -->
<g id="edge2" class="edge">
<title>Node1&#45;&gt;Node3</title>
<path fill="none" stroke="midnightblue" d="M267.78,-224.27C258.94,-215.81 246.12,-202.21 238.5,-188 230.72,-173.49 226.06,-155.31 223.43,-141.86"/>
<polygon fill="midnightblue" stroke="midnightblue" points="226.86,-141.12 221.68,-131.87 219.96,-142.33 226.86,-141.12"/>
</g>
<!-- Node4 -->
<g id="node4" class="node">
<title>Node4</title>
<g id="a_node4"><a xlink:href="future_8hpp.html" target="_top" xlink:title=" ">
<polygon fill="white" stroke="black" points="248,-168.5 248,-187.5 307,-187.5 307,-168.5 248,-168.5"/>
<text text-anchor="middle" x="277.5" y="-175.5" font-family="Helvetica,sans-Serif" font-size="10.00">future.hpp</text>
</a>
</g>
</g>
<!-- Node1&#45;&gt;Node4 -->
<g id="edge3" class="edge">
<title>Node1&#45;&gt;Node4</title>
<path fill="none" stroke="midnightblue" d="M277.5,-224.08C277.5,-217.01 277.5,-206.86 277.5,-197.99"/>
<polygon fill="midnightblue" stroke="midnightblue" points="281,-197.75 277.5,-187.75 274,-197.75 281,-197.75"/>
</g>
<!-- Node5 -->
<g id="node5" class="node">
<title>Node5</title>
<g id="a_node5"><a xlink:href="state_8hpp.html" target="_top" xlink:title=" ">
<polygon fill="white" stroke="black" points="305,-112.5 305,-131.5 362,-131.5 362,-112.5 305,-112.5"/>
<text text-anchor="middle" x="333.5" y="-119.5" font-family="Helvetica,sans-Serif" font-size="10.00">state.hpp</text>
</a>
</g>
</g>
<!-- Node1&#45;&gt;Node5 -->
<g id="edge22" class="edge">
<title>Node1&#45;&gt;Node5</title>
<path fill="none" stroke="midnightblue" d="M286.96,-224.22C295.57,-215.73 308.05,-202.11 315.5,-188 323.19,-173.44 327.86,-155.26 330.51,-141.83"/>
<polygon fill="midnightblue" stroke="midnightblue" points="333.98,-142.31 332.28,-131.86 327.09,-141.09 333.98,-142.31"/>
</g>
<!-- Node14 -->
<g id="node14" class="node">
<title>Node14</title>
<g id="a_node14"><a xlink:href="util_8hpp.html" target="_top" xlink:title=" ">
<polygon fill="white" stroke="black" points="631.5,-56.5 631.5,-75.5 679.5,-75.5 679.5,-56.5 631.5,-56.5"/>
<text text-anchor="middle" x="655.5" y="-63.5" font-family="Helvetica,sans-Serif" font-size="10.00">util.hpp</text>
</a>
</g>
</g>
<!-- Node1&#45;&gt;Node14 -->
<g id="edge23" class="edge">
<title>Node1&#45;&gt;Node14</title>
<path fill="none" stroke="midnightblue" d="M297.03,-224.42C359.24,-197.1 553.03,-112 626.69,-79.65"/>
<polygon fill="midnightblue" stroke="midnightblue" points="628.11,-82.85 635.86,-75.62 625.3,-76.44 628.11,-82.85"/>
</g>
<!-- Node4&#45;&gt;Node2 -->
<g id="edge4" class="edge">
<title>Node4&#45;&gt;Node2</title>
<path fill="none" stroke="midnightblue" d="M277.24,-168.31C276.31,-154.2 272.32,-126.43 255.5,-112 187.7,-53.82 143.6,-94.34 51.08,-75.72"/>
<polygon fill="midnightblue" stroke="midnightblue" points="51.59,-72.25 41.07,-73.52 50.08,-79.09 51.59,-72.25"/>
</g>
<!-- Node4&#45;&gt;Node3 -->
<g id="edge5" class="edge">
<title>Node4&#45;&gt;Node3</title>
<path fill="none" stroke="midnightblue" d="M268.34,-168.32C260,-160.42 247.47,-148.55 237.32,-138.94"/>
<polygon fill="midnightblue" stroke="midnightblue" points="239.49,-136.17 229.82,-131.83 234.68,-141.25 239.49,-136.17"/>
</g>
<!-- Node4&#45;&gt;Node5 -->
<g id="edge6" class="edge">
<title>Node4&#45;&gt;Node5</title>
<path fill="none" stroke="midnightblue" d="M286.5,-168.32C294.69,-160.42 307.01,-148.55 316.97,-138.94"/>
<polygon fill="midnightblue" stroke="midnightblue" points="319.57,-141.29 324.34,-131.83 314.71,-136.26 319.57,-141.29"/>
</g>
<!-- Node4&#45;&gt;Node14 -->
<g id="edge21" class="edge">
<title>Node4&#45;&gt;Node14</title>
<path fill="none" stroke="midnightblue" d="M306.85,-168.46C375.93,-148.36 548.5,-98.14 621.76,-76.82"/>
<polygon fill="midnightblue" stroke="midnightblue" points="622.79,-80.16 631.42,-74.01 620.84,-73.44 622.79,-80.16"/>
</g>
<!-- Node5&#45;&gt;Node2 -->
<g id="edge9" class="edge">
<title>Node5&#45;&gt;Node2</title>
<path fill="none" stroke="midnightblue" d="M304.86,-114.77C300.08,-113.79 295.15,-112.84 290.5,-112 187.45,-93.5 157.5,-99.19 50.92,-75.79"/>
<polygon fill="midnightblue" stroke="midnightblue" points="51.58,-72.35 41.05,-73.59 50.05,-79.18 51.58,-72.35"/>
</g>
<!-- Node6 -->
<g id="node6" class="node">
<title>Node6</title>
<g id="a_node6"><a xlink:title=" ">
<polygon fill="white" stroke="#bfbfbf" points="383.5,-56.5 383.5,-75.5 439.5,-75.5 439.5,-56.5 383.5,-56.5"/>
<text text-anchor="middle" x="411.5" y="-63.5" font-family="Helvetica,sans-Serif" font-size="10.00">algorithm</text>
</a>
</g>
</g>
<!-- Node5&#45;&gt;Node6 -->
<g id="edge7" class="edge">
<title>Node5&#45;&gt;Node6</title>
<path fill="none" stroke="midnightblue" d="M346.03,-112.32C358.09,-103.98 376.53,-91.21 390.77,-81.35"/>
<polygon fill="midnightblue" stroke="midnightblue" points="392.77,-84.22 399,-75.65 388.78,-78.47 392.77,-84.22"/>
</g>
<!-- Node7 -->
<g id="node7" class="node">
<title>Node7</title>
<g id="a_node7"><a xlink:title=" ">
<polygon fill="white" stroke="#bfbfbf" points="458,-56.5 458,-75.5 551,-75.5 551,-56.5 458,-56.5"/>
<text text-anchor="middle" x="504.5" y="-63.5" font-family="Helvetica,sans-Serif" font-size="10.00">condition_variable</text>
</a>
</g>
</g>
<!-- Node5&#45;&gt;Node7 -->
<g id="edge8" class="edge">
<title>Node5&#45;&gt;Node7</title>
<path fill="none" stroke="midnightblue" d="M360.6,-112.44C389.49,-103.32 435.42,-88.81 467.61,-78.65"/>
<polygon fill="midnightblue" stroke="midnightblue" points="469.05,-81.87 477.53,-75.52 466.94,-75.19 469.05,-81.87"/>
</g>
<!-- Node8 -->
<g id="node8" class="node">
<title>Node8</title>
<g id="a_node8"><a xlink:title=" ">
<polygon fill="white" stroke="#bfbfbf" points="569.5,-56.5 569.5,-75.5 613.5,-75.5 613.5,-56.5 569.5,-56.5"/>
<text text-anchor="middle" x="591.5" y="-63.5" font-family="Helvetica,sans-Serif" font-size="10.00">mutex</text>
</a>
</g>
</g>
<!-- Node5&#45;&gt;Node8 -->
<g id="edge10" class="edge">
<title>Node5&#45;&gt;Node8</title>
<path fill="none" stroke="midnightblue" d="M362.34,-116.11C403.85,-108.9 483.01,-94.47 559.42,-76.1"/>
<polygon fill="midnightblue" stroke="midnightblue" points="560.32,-79.48 569.21,-73.72 558.67,-72.68 560.32,-79.48"/>
</g>
<!-- Node9 -->
<g id="node9" class="node">
<title>Node9</title>
<g id="a_node9"><a xlink:title=" ">
<polygon fill="white" stroke="#bfbfbf" points="59.5,-56.5 59.5,-75.5 101.5,-75.5 101.5,-56.5 59.5,-56.5"/>
<text text-anchor="middle" x="80.5" y="-63.5" font-family="Helvetica,sans-Serif" font-size="10.00">vector</text>
</a>
</g>
</g>
<!-- Node5&#45;&gt;Node9 -->
<g id="edge11" class="edge">
<title>Node5&#45;&gt;Node9</title>
<path fill="none" stroke="midnightblue" d="M304.83,-114.96C300.04,-113.96 295.13,-112.95 290.5,-112 213.69,-96.28 191.38,-95.76 111.74,-76.13"/>
<polygon fill="midnightblue" stroke="midnightblue" points="112.29,-72.66 101.74,-73.64 110.6,-79.45 112.29,-72.66"/>
</g>
<!-- Node10 -->
<g id="node10" class="node">
<title>Node10</title>
<g id="a_node10"><a xlink:href="functional_8hpp.html" target="_top" xlink:title=" ">
<polygon fill="white" stroke="black" points="120,-56.5 120,-75.5 197,-75.5 197,-56.5 120,-56.5"/>
<text text-anchor="middle" x="158.5" y="-63.5" font-family="Helvetica,sans-Serif" font-size="10.00">functional.hpp</text>
</a>
</g>
</g>
<!-- Node5&#45;&gt;Node10 -->
<g id="edge12" class="edge">
<title>Node5&#45;&gt;Node10</title>
<path fill="none" stroke="midnightblue" d="M305.77,-112.44C276.07,-103.28 228.78,-88.69 195.83,-78.52"/>
<polygon fill="midnightblue" stroke="midnightblue" points="196.69,-75.12 186.1,-75.52 194.62,-81.81 196.69,-75.12"/>
</g>
<!-- Node12 -->
<g id="node12" class="node">
<title>Node12</title>
<g id="a_node12"><a xlink:href="optional_8hpp.html" target="_top" xlink:title=" ">
<polygon fill="white" stroke="black" points="215,-56.5 215,-75.5 284,-75.5 284,-56.5 215,-56.5"/>
<text text-anchor="middle" x="249.5" y="-63.5" font-family="Helvetica,sans-Serif" font-size="10.00">optional.hpp</text>
</a>
</g>
</g>
<!-- Node5&#45;&gt;Node12 -->
<g id="edge14" class="edge">
<title>Node5&#45;&gt;Node12</title>
<path fill="none" stroke="midnightblue" d="M320,-112.32C306.9,-103.9 286.79,-90.97 271.39,-81.07"/>
<polygon fill="midnightblue" stroke="midnightblue" points="273.27,-78.12 262.96,-75.65 269.48,-84.01 273.27,-78.12"/>
</g>
<!-- Node5&#45;&gt;Node14 -->
<g id="edge16" class="edge">
<title>Node5&#45;&gt;Node14</title>
<path fill="none" stroke="midnightblue" d="M362.41,-117.59C412.97,-111.38 520.9,-97.11 621.41,-76.03"/>
<polygon fill="midnightblue" stroke="midnightblue" points="622.37,-79.4 631.43,-73.9 620.92,-72.56 622.37,-79.4"/>
</g>
<!-- Node17 -->
<g id="node17" class="node">
<title>Node17</title>
<g id="a_node17"><a xlink:href="variant_8hpp.html" target="_top" xlink:title=" ">
<polygon fill="white" stroke="black" points="302,-56.5 302,-75.5 365,-75.5 365,-56.5 302,-56.5"/>
<text text-anchor="middle" x="333.5" y="-63.5" font-family="Helvetica,sans-Serif" font-size="10.00">variant.hpp</text>
</a>
</g>
</g>
<!-- Node5&#45;&gt;Node17 -->
<g id="edge19" class="edge">
<title>Node5&#45;&gt;Node17</title>
<path fill="none" stroke="midnightblue" d="M333.5,-112.08C333.5,-105.01 333.5,-94.86 333.5,-85.99"/>
<polygon fill="midnightblue" stroke="midnightblue" points="337,-85.75 333.5,-75.75 330,-85.75 337,-85.75"/>
</g>
<!-- Node11 -->
<g id="node11" class="node">
<title>Node11</title>
<g id="a_node11"><a xlink:title=" ">
<polygon fill="white" stroke="#bfbfbf" points="95.5,-0.5 95.5,-19.5 211.5,-19.5 211.5,-0.5 95.5,-0.5"/>
<text text-anchor="middle" x="153.5" y="-7.5" font-family="Helvetica,sans-Serif" font-size="10.00">function2/function2.hpp</text>
</a>
</g>
</g>
<!-- Node10&#45;&gt;Node11 -->
<g id="edge13" class="edge">
<title>Node10&#45;&gt;Node11</title>
<path fill="none" stroke="midnightblue" d="M157.67,-56.08C157.02,-49.01 156.08,-38.86 155.26,-29.99"/>
<polygon fill="midnightblue" stroke="midnightblue" points="158.72,-29.39 154.31,-19.75 151.75,-30.03 158.72,-29.39"/>
</g>
<!-- Node13 -->
<g id="node13" class="node">
<title>Node13</title>
<g id="a_node13"><a xlink:title=" ">
<polygon fill="white" stroke="#bfbfbf" points="229.5,-0.5 229.5,-19.5 279.5,-19.5 279.5,-0.5 229.5,-0.5"/>
<text text-anchor="middle" x="254.5" y="-7.5" font-family="Helvetica,sans-Serif" font-size="10.00">optional</text>
</a>
</g>
</g>
<!-- Node12&#45;&gt;Node13 -->
<g id="edge15" class="edge">
<title>Node12&#45;&gt;Node13</title>
<path fill="none" stroke="midnightblue" d="M250.33,-56.08C250.98,-49.01 251.92,-38.86 252.74,-29.99"/>
<polygon fill="midnightblue" stroke="midnightblue" points="256.25,-30.03 253.69,-19.75 249.28,-29.39 256.25,-30.03"/>
</g>
<!-- Node15 -->
<g id="node15" class="node">
<title>Node15</title>
<g id="a_node15"><a xlink:title=" ">
<polygon fill="white" stroke="#bfbfbf" points="665,-0.5 665,-19.5 724,-19.5 724,-0.5 665,-0.5"/>
<text text-anchor="middle" x="694.5" y="-7.5" font-family="Helvetica,sans-Serif" font-size="10.00">stdexcept</text>
</a>
</g>
</g>
<!-- Node14&#45;&gt;Node15 -->
<g id="edge17" class="edge">
<title>Node14&#45;&gt;Node15</title>
<path fill="none" stroke="midnightblue" d="M661.94,-56.08C667.45,-48.46 675.53,-37.26 682.26,-27.94"/>
<polygon fill="midnightblue" stroke="midnightblue" points="685.16,-29.91 688.18,-19.75 679.49,-25.81 685.16,-29.91"/>
</g>
<!-- Node16 -->
<g id="node16" class="node">
<title>Node16</title>
<g id="a_node16"><a xlink:title=" ">
<polygon fill="white" stroke="#bfbfbf" points="584.5,-0.5 584.5,-19.5 646.5,-19.5 646.5,-0.5 584.5,-0.5"/>
<text text-anchor="middle" x="615.5" y="-7.5" font-family="Helvetica,sans-Serif" font-size="10.00">type_traits</text>
</a>
</g>
</g>
<!-- Node14&#45;&gt;Node16 -->
<g id="edge18" class="edge">
<title>Node14&#45;&gt;Node16</title>
<path fill="none" stroke="midnightblue" d="M648.89,-56.08C643.24,-48.46 634.96,-37.26 628.05,-27.94"/>
<polygon fill="midnightblue" stroke="midnightblue" points="630.75,-25.7 621.98,-19.75 625.12,-29.87 630.75,-25.7"/>
</g>
<!-- Node18 -->
<g id="node18" class="node">
<title>Node18</title>
<g id="a_node18"><a xlink:title=" ">
<polygon fill="white" stroke="#bfbfbf" points="311.5,-0.5 311.5,-19.5 355.5,-19.5 355.5,-0.5 311.5,-0.5"/>
<text text-anchor="middle" x="333.5" y="-7.5" font-family="Helvetica,sans-Serif" font-size="10.00">variant</text>
</a>
</g>
</g>
<!-- Node17&#45;&gt;Node18 -->
<g id="edge20" class="edge">
<title>Node17&#45;&gt;Node18</title>
<path fill="none" stroke="midnightblue" d="M333.5,-56.08C333.5,-49.01 333.5,-38.86 333.5,-29.99"/>
<polygon fill="midnightblue" stroke="midnightblue" points="337,-29.75 333.5,-19.75 330,-29.75 337,-29.75"/>
</g>
</g>
</svg>
