<?xml version="1.0" encoding="UTF-8" standalone="no"?>
<!DOCTYPE svg PUBLIC "-//W3C//DTD SVG 1.1//EN"
 "http://www.w3.org/Graphics/SVG/1.1/DTD/svg11.dtd">
<!-- Generated by graphviz version 2.44.1 (20200629.0800)
 -->
<!-- Title: include/satella/promise.hpp Pages: 1 -->
<svg width="340pt" height="207pt"
 viewBox="0.00 0.00 339.50 207.00" xmlns="http://www.w3.org/2000/svg" xmlns:xlink="http://www.w3.org/1999/xlink">
<g id="graph0" class="graph" transform="scale(1 1) rotate(0) translate(4 203)">
<title>include/satella/promise.hpp</title>
<polygon fill="white" stroke="transparent" points="-4,4 -4,-203 335.5,-203 335.5,4 -4,4"/>
<!-- Node1 -->
<g id="node1" class="node">
<title>Node1</title>
<g id="a_node1"><a xlink:title=" ">
<polygon fill="#bfbfbf" stroke="black" points="116.5,-179.5 116.5,-198.5 251.5,-198.5 251.5,-179.5 116.5,-179.5"/>
<text text-anchor="middle" x="184" y="-186.5" font-family="Helvetica,sans-Serif" font-size="10.00">include/satella/promise.hpp</text>
</a>
</g>
</g>
<!-- Node2 -->
<g id="node2" class="node">
<title>Node2</title>
<g id="a_node2"><a xlink:href="cancellation_8hpp.html" target="_top" xlink:title=" ">
<polygon fill="white" stroke="black" points="4,-123.5 4,-142.5 156,-142.5 156,-123.5 4,-123.5"/>
<text text-anchor="middle" x="80" y="-130.5" font-family="Helvetica,sans-Serif" font-size="10.00">include/satella/cancellation.hpp</text>
</a>
</g>
</g>
<!-- Node1&#45;&gt;Node2 -->
<g id="edge1" class="edge">
<title>Node1&#45;&gt;Node2</title>
<path fill="none" stroke="midnightblue" d="M158.17,-174.59C138.94,-164.61 113.26,-151.27 96.67,-142.65"/>
<polygon fill="midnightblue" stroke="midnightblue" points="156.8,-177.82 167.29,-179.32 160.03,-171.61 156.8,-177.82"/>
</g>
<!-- Node4 -->
<g id="node4" class="node">
<title>Node4</title>
<g id="a_node4"><a xlink:href="satella_8hpp.html" target="_top" xlink:title=" ">
<polygon fill="white" stroke="black" points="100.5,-0.5 100.5,-19.5 229.5,-19.5 229.5,-0.5 100.5,-0.5"/>
<text text-anchor="middle" x="165" y="-7.5" font-family="Helvetica,sans-Serif" font-size="10.00">include/satella/satella.hpp</text>
</a>
</g>
</g>
<!-- Node1&#45;&gt;Node4 -->
<g id="edge5" class="edge">
<title>Node1&#45;&gt;Node4</title>
<path fill="none" stroke="midnightblue" d="M182,-169.35C177.95,-131.6 168.9,-47.36 165.95,-19.87"/>
<polygon fill="midnightblue" stroke="midnightblue" points="178.54,-169.89 183.08,-179.46 185.5,-169.15 178.54,-169.89"/>
</g>
<!-- Node5 -->
<g id="node5" class="node">
<title>Node5</title>
<g id="a_node5"><a xlink:href="task_8hpp.html" target="_top" xlink:title=" ">
<polygon fill="white" stroke="black" points="212.5,-62 212.5,-81 331.5,-81 331.5,-62 212.5,-62"/>
<text text-anchor="middle" x="272" y="-69" font-family="Helvetica,sans-Serif" font-size="10.00">include/satella/task.hpp</text>
</a>
</g>
</g>
<!-- Node1&#45;&gt;Node5 -->
<g id="edge6" class="edge">
<title>Node1&#45;&gt;Node5</title>
<path fill="none" stroke="midnightblue" d="M196.82,-171.17C215.8,-146.26 250.71,-100.44 265.31,-81.28"/>
<polygon fill="midnightblue" stroke="midnightblue" points="193.89,-169.24 190.61,-179.32 199.46,-173.49 193.89,-169.24"/>
</g>
<!-- Node3 -->
<g id="node3" class="node">
<title>Node3</title>
<g id="a_node3"><a xlink:href="blocking__queue_8hpp.html" target="_top" xlink:title=" ">
<polygon fill="white" stroke="black" points="0,-56.5 0,-86.5 118,-86.5 118,-56.5 0,-56.5"/>
<text text-anchor="start" x="8" y="-74.5" font-family="Helvetica,sans-Serif" font-size="10.00">include/satella/blocking</text>
<text text-anchor="middle" x="59" y="-63.5" font-family="Helvetica,sans-Serif" font-size="10.00">_queue.hpp</text>
</a>
</g>
</g>
<!-- Node2&#45;&gt;Node3 -->
<g id="edge2" class="edge">
<title>Node2&#45;&gt;Node3</title>
<path fill="none" stroke="midnightblue" d="M73.58,-113.82C70.49,-105.04 66.83,-94.68 63.95,-86.52"/>
<polygon fill="midnightblue" stroke="midnightblue" points="70.36,-115.21 76.99,-123.48 76.96,-112.88 70.36,-115.21"/>
</g>
<!-- Node2&#45;&gt;Node4 -->
<g id="edge4" class="edge">
<title>Node2&#45;&gt;Node4</title>
<path fill="none" stroke="midnightblue" d="M98.74,-116.76C108.01,-108.6 118.91,-97.97 127,-87 143.46,-64.68 156.24,-34.15 161.86,-19.51"/>
<polygon fill="midnightblue" stroke="midnightblue" points="96.46,-114.11 91.12,-123.26 101,-119.43 96.46,-114.11"/>
</g>
<!-- Node3&#45;&gt;Node4 -->
<g id="edge3" class="edge">
<title>Node3&#45;&gt;Node4</title>
<path fill="none" stroke="midnightblue" d="M93.1,-51.36C112.1,-40.69 134.83,-27.93 149.58,-19.66"/>
<polygon fill="midnightblue" stroke="midnightblue" points="91.13,-48.45 84.12,-56.4 94.55,-54.56 91.13,-48.45"/>
</g>
<!-- Node5&#45;&gt;Node4 -->
<g id="edge7" class="edge">
<title>Node5&#45;&gt;Node4</title>
<path fill="none" stroke="midnightblue" d="M247.82,-57.06C227.12,-45.54 197.93,-29.31 180.3,-19.51"/>
<polygon fill="midnightblue" stroke="midnightblue" points="246.23,-60.17 256.67,-61.98 249.63,-54.06 246.23,-60.17"/>
</g>
</g>
</svg>
