<?xml version="1.0" encoding="UTF-8" standalone="no"?>
<!DOCTYPE svg PUBLIC "-//W3C//DTD SVG 1.1//EN"
 "http://www.w3.org/Graphics/SVG/1.1/DTD/svg11.dtd">
<!-- Generated by graphviz version 2.44.1 (20200629.0800)
 -->
<!-- Title: include/satella/satella.hpp Pages: 1 -->
<svg width="837pt" height="420pt"
 viewBox="0.00 0.00 836.79 420.00" xmlns="http://www.w3.org/2000/svg" xmlns:xlink="http://www.w3.org/1999/xlink">
<g id="graph0" class="graph" transform="scale(1 1) rotate(0) translate(4 416)">
<title>include/satella/satella.hpp</title>
<polygon fill="white" stroke="transparent" points="-4,4 -4,-416 832.79,-416 832.79,4 -4,4"/>
<!-- Node1 -->
<g id="node1" class="node">
<title>Node1</title>
<g id="a_node1"><a xlink:title=" ">
<polygon fill="#bfbfbf" stroke="black" points="190.79,-392.5 190.79,-411.5 319.79,-411.5 319.79,-392.5 190.79,-392.5"/>
<text text-anchor="middle" x="255.29" y="-399.5" font-family="Helvetica,sans-Serif" font-size="10.00">include/satella/satella.hpp</text>
</a>
</g>
</g>
<!-- Node2 -->
<g id="node2" class="node">
<title>Node2</title>
<g id="a_node2"><a xlink:href="blocking__queue_8hpp.html" target="_top" xlink:title=" ">
<polygon fill="white" stroke="black" points="553.79,-336.5 553.79,-355.5 656.79,-355.5 656.79,-336.5 553.79,-336.5"/>
<text text-anchor="middle" x="605.29" y="-343.5" font-family="Helvetica,sans-Serif" font-size="10.00">blocking_queue.hpp</text>
</a>
</g>
</g>
<!-- Node1&#45;&gt;Node2 -->
<g id="edge1" class="edge">
<title>Node1&#45;&gt;Node2</title>
<path fill="none" stroke="midnightblue" d="M310.75,-392.44C374.05,-382.68 477.34,-366.74 543.26,-356.57"/>
<polygon fill="midnightblue" stroke="midnightblue" points="544.16,-359.97 553.51,-354.99 543.09,-353.05 544.16,-359.97"/>
</g>
<!-- Node6 -->
<g id="node6" class="node">
<title>Node6</title>
<g id="a_node6"><a xlink:href="cancellation_8hpp.html" target="_top" xlink:title=" ">
<polygon fill="white" stroke="black" points="309.79,-280.5 309.79,-299.5 396.79,-299.5 396.79,-280.5 309.79,-280.5"/>
<text text-anchor="middle" x="353.29" y="-287.5" font-family="Helvetica,sans-Serif" font-size="10.00">cancellation.hpp</text>
</a>
</g>
</g>
<!-- Node1&#45;&gt;Node6 -->
<g id="edge38" class="edge">
<title>Node1&#45;&gt;Node6</title>
<path fill="none" stroke="midnightblue" d="M262.98,-392.37C279.29,-374.05 317.61,-331.05 338.71,-307.36"/>
<polygon fill="midnightblue" stroke="midnightblue" points="341.59,-309.39 345.63,-299.59 336.37,-304.73 341.59,-309.39"/>
</g>
<!-- Node9 -->
<g id="node9" class="node">
<title>Node9</title>
<g id="a_node9"><a xlink:href="future_8hpp.html" target="_top" xlink:title=" ">
<polygon fill="white" stroke="black" points="185.79,-168.5 185.79,-187.5 244.79,-187.5 244.79,-168.5 185.79,-168.5"/>
<text text-anchor="middle" x="215.29" y="-175.5" font-family="Helvetica,sans-Serif" font-size="10.00">future.hpp</text>
</a>
</g>
</g>
<!-- Node1&#45;&gt;Node9 -->
<g id="edge39" class="edge">
<title>Node1&#45;&gt;Node9</title>
<path fill="none" stroke="midnightblue" d="M248.7,-392.44C231.73,-369.79 186.77,-305.77 171.29,-244 169.13,-235.38 167.93,-232.23 171.29,-224 176.09,-212.23 185.62,-201.86 194.58,-194.05"/>
<polygon fill="midnightblue" stroke="midnightblue" points="196.94,-196.64 202.51,-187.63 192.53,-191.2 196.94,-196.64"/>
</g>
<!-- Node22 -->
<g id="node22" class="node">
<title>Node22</title>
<g id="a_node22"><a xlink:href="promise_8hpp.html" target="_top" xlink:title=" ">
<polygon fill="white" stroke="black" points="180.29,-224.5 180.29,-243.5 250.29,-243.5 250.29,-224.5 180.29,-224.5"/>
<text text-anchor="middle" x="215.29" y="-231.5" font-family="Helvetica,sans-Serif" font-size="10.00">promise.hpp</text>
</a>
</g>
</g>
<!-- Node1&#45;&gt;Node22 -->
<g id="edge40" class="edge">
<title>Node1&#45;&gt;Node22</title>
<path fill="none" stroke="midnightblue" d="M253.14,-392.08C246.84,-365.95 228.35,-289.21 219.76,-253.58"/>
<polygon fill="midnightblue" stroke="midnightblue" points="223.1,-252.47 217.35,-243.57 216.29,-254.11 223.1,-252.47"/>
</g>
<!-- Node23 -->
<g id="node23" class="node">
<title>Node23</title>
<g id="a_node23"><a xlink:href="shared__future_8hpp.html" target="_top" xlink:title=" ">
<polygon fill="white" stroke="black" points="306.29,-224.5 306.29,-243.5 400.29,-243.5 400.29,-224.5 306.29,-224.5"/>
<text text-anchor="middle" x="353.29" y="-231.5" font-family="Helvetica,sans-Serif" font-size="10.00">shared_future.hpp</text>
</a>
</g>
</g>
<!-- Node1&#45;&gt;Node23 -->
<g id="edge41" class="edge">
<title>Node1&#45;&gt;Node23</title>
<path fill="none" stroke="midnightblue" d="M256.92,-392.38C261.18,-371.51 274.17,-317.25 300.29,-280 308.52,-268.26 320.51,-257.73 331.02,-249.81"/>
<polygon fill="midnightblue" stroke="midnightblue" points="333.29,-252.49 339.37,-243.81 329.21,-246.8 333.29,-252.49"/>
</g>
<!-- Node24 -->
<g id="node24" class="node">
<title>Node24</title>
<g id="a_node24"><a xlink:href="task_8hpp.html" target="_top" xlink:title=" ">
<polygon fill="white" stroke="black" points="60.29,-280.5 60.29,-299.5 114.29,-299.5 114.29,-280.5 60.29,-280.5"/>
<text text-anchor="middle" x="87.29" y="-287.5" font-family="Helvetica,sans-Serif" font-size="10.00">task.hpp</text>
</a>
</g>
</g>
<!-- Node1&#45;&gt;Node24 -->
<g id="edge42" class="edge">
<title>Node1&#45;&gt;Node24</title>
<path fill="none" stroke="midnightblue" d="M218.76,-392.43C194.32,-385.44 162.35,-373.78 138.29,-356 121.04,-343.26 106.54,-323.23 97.47,-308.77"/>
<polygon fill="midnightblue" stroke="midnightblue" points="100.23,-306.58 92.08,-299.81 94.23,-310.19 100.23,-306.58"/>
</g>
<!-- Node3 -->
<g id="node3" class="node">
<title>Node3</title>
<g id="a_node3"><a xlink:title=" ">
<polygon fill="white" stroke="#bfbfbf" points="585.79,-56.5 585.79,-75.5 678.79,-75.5 678.79,-56.5 585.79,-56.5"/>
<text text-anchor="middle" x="632.29" y="-63.5" font-family="Helvetica,sans-Serif" font-size="10.00">condition_variable</text>
</a>
</g>
</g>
<!-- Node2&#45;&gt;Node3 -->
<g id="edge2" class="edge">
<title>Node2&#45;&gt;Node3</title>
<path fill="none" stroke="midnightblue" d="M605.29,-336.44C605.29,-317.94 605.29,-272.81 605.29,-235 605.29,-235 605.29,-235 605.29,-177 605.29,-143.86 616.99,-106.68 624.98,-85.14"/>
<polygon fill="midnightblue" stroke="midnightblue" points="628.31,-86.25 628.65,-75.66 621.78,-83.73 628.31,-86.25"/>
</g>
<!-- Node4 -->
<g id="node4" class="node">
<title>Node4</title>
<g id="a_node4"><a xlink:title=" ">
<polygon fill="white" stroke="#bfbfbf" points="697.29,-56.5 697.29,-75.5 741.29,-75.5 741.29,-56.5 697.29,-56.5"/>
<text text-anchor="middle" x="719.29" y="-63.5" font-family="Helvetica,sans-Serif" font-size="10.00">mutex</text>
</a>
</g>
</g>
<!-- Node2&#45;&gt;Node4 -->
<g id="edge3" class="edge">
<title>Node2&#45;&gt;Node4</title>
<path fill="none" stroke="midnightblue" d="M610.57,-336.23C621.01,-318.04 643.29,-274.6 643.29,-235 643.29,-235 643.29,-235 643.29,-177 643.29,-146.2 649.76,-137.32 667.29,-112 675.46,-100.19 687.44,-89.54 697.84,-81.57"/>
<polygon fill="midnightblue" stroke="midnightblue" points="700.08,-84.27 706.08,-75.54 695.95,-78.62 700.08,-84.27"/>
</g>
<!-- Node5 -->
<g id="node5" class="node">
<title>Node5</title>
<g id="a_node5"><a xlink:title=" ">
<polygon fill="white" stroke="#bfbfbf" points="709.79,-280.5 709.79,-299.5 752.79,-299.5 752.79,-280.5 709.79,-280.5"/>
<text text-anchor="middle" x="731.29" y="-287.5" font-family="Helvetica,sans-Serif" font-size="10.00">queue</text>
</a>
</g>
</g>
<!-- Node2&#45;&gt;Node5 -->
<g id="edge4" class="edge">
<title>Node2&#45;&gt;Node5</title>
<path fill="none" stroke="midnightblue" d="M625.25,-336.44C645.9,-327.6 678.35,-313.69 701.92,-303.59"/>
<polygon fill="midnightblue" stroke="midnightblue" points="703.6,-306.67 711.42,-299.52 700.85,-300.24 703.6,-306.67"/>
</g>
<!-- Node2&#45;&gt;Node6 -->
<g id="edge5" class="edge">
<title>Node2&#45;&gt;Node6</title>
<path fill="none" stroke="midnightblue" d="M565.36,-336.44C521.4,-327.02 450.66,-311.87 403.1,-301.68"/>
<polygon fill="midnightblue" stroke="midnightblue" points="403.54,-298.19 393.03,-299.52 402.08,-305.03 403.54,-298.19"/>
</g>
<!-- Node15 -->
<g id="node15" class="node">
<title>Node15</title>
<g id="a_node15"><a xlink:href="optional_8hpp.html" target="_top" xlink:title=" ">
<polygon fill="white" stroke="black" points="759.79,-56.5 759.79,-75.5 828.79,-75.5 828.79,-56.5 759.79,-56.5"/>
<text text-anchor="middle" x="794.29" y="-63.5" font-family="Helvetica,sans-Serif" font-size="10.00">optional.hpp</text>
</a>
</g>
</g>
<!-- Node2&#45;&gt;Node15 -->
<g id="edge36" class="edge">
<title>Node2&#45;&gt;Node15</title>
<path fill="none" stroke="midnightblue" d="M616.83,-336.43C638.09,-319.57 681.29,-279.8 681.29,-235 681.29,-235 681.29,-235 681.29,-177 681.29,-130.4 731.23,-97.14 764.72,-80.08"/>
<polygon fill="midnightblue" stroke="midnightblue" points="766.64,-83.04 774.09,-75.51 763.56,-76.75 766.64,-83.04"/>
</g>
<!-- Node17 -->
<g id="node17" class="node">
<title>Node17</title>
<g id="a_node17"><a xlink:href="util_8hpp.html" target="_top" xlink:title=" ">
<polygon fill="white" stroke="black" points="209.29,-56.5 209.29,-75.5 257.29,-75.5 257.29,-56.5 209.29,-56.5"/>
<text text-anchor="middle" x="233.29" y="-63.5" font-family="Helvetica,sans-Serif" font-size="10.00">util.hpp</text>
</a>
</g>
</g>
<!-- Node2&#45;&gt;Node17 -->
<g id="edge37" class="edge">
<title>Node2&#45;&gt;Node17</title>
<path fill="none" stroke="midnightblue" d="M597.23,-336.33C566.23,-303.39 450.72,-184.2 336.29,-112 314.49,-98.25 287.77,-86.71 267,-78.76"/>
<polygon fill="midnightblue" stroke="midnightblue" points="268.22,-75.48 257.63,-75.26 265.77,-82.03 268.22,-75.48"/>
</g>
<!-- Node7 -->
<g id="node7" class="node">
<title>Node7</title>
<g id="a_node7"><a xlink:href="functional_8hpp.html" target="_top" xlink:title=" ">
<polygon fill="white" stroke="black" points="490.79,-56.5 490.79,-75.5 567.79,-75.5 567.79,-56.5 490.79,-56.5"/>
<text text-anchor="middle" x="529.29" y="-63.5" font-family="Helvetica,sans-Serif" font-size="10.00">functional.hpp</text>
</a>
</g>
</g>
<!-- Node6&#45;&gt;Node7 -->
<g id="edge6" class="edge">
<title>Node6&#45;&gt;Node7</title>
<path fill="none" stroke="midnightblue" d="M370.39,-280.44C385.71,-272.3 408.31,-259.07 425.29,-244 473.03,-201.59 487.83,-189.65 515.29,-132 522.27,-117.34 525.8,-99.18 527.57,-85.78"/>
<polygon fill="midnightblue" stroke="midnightblue" points="531.05,-86.15 528.68,-75.82 524.1,-85.38 531.05,-86.15"/>
</g>
<!-- Node6&#45;&gt;Node9 -->
<g id="edge8" class="edge">
<title>Node6&#45;&gt;Node9</title>
<path fill="none" stroke="midnightblue" d="M342.46,-280.37C318.98,-261.65 263.15,-217.15 233.9,-193.83"/>
<polygon fill="midnightblue" stroke="midnightblue" points="236.07,-191.09 226.07,-187.59 231.7,-196.56 236.07,-191.09"/>
</g>
<!-- Node6&#45;&gt;Node17 -->
<g id="edge35" class="edge">
<title>Node6&#45;&gt;Node17</title>
<path fill="none" stroke="midnightblue" d="M370.45,-280.35C390.54,-268.93 419.82,-247.52 409.29,-224 378.23,-154.67 299.73,-103.36 258.88,-80.37"/>
<polygon fill="midnightblue" stroke="midnightblue" points="260.51,-77.28 250.06,-75.52 257.14,-83.41 260.51,-77.28"/>
</g>
<!-- Node6&#45;&gt;Node22 -->
<g id="edge26" class="edge">
<title>Node6&#45;&gt;Node22</title>
<path fill="none" stroke="midnightblue" d="M331.42,-280.44C308.51,-271.48 272.31,-257.31 246.42,-247.18"/>
<polygon fill="midnightblue" stroke="midnightblue" points="247.64,-243.9 237.05,-243.52 245.09,-250.42 247.64,-243.9"/>
</g>
<!-- Node6&#45;&gt;Node23 -->
<g id="edge32" class="edge">
<title>Node6&#45;&gt;Node23</title>
<path fill="none" stroke="midnightblue" d="M353.29,-280.08C353.29,-273.01 353.29,-262.86 353.29,-253.99"/>
<polygon fill="midnightblue" stroke="midnightblue" points="356.79,-253.75 353.29,-243.75 349.79,-253.75 356.79,-253.75"/>
</g>
<!-- Node8 -->
<g id="node8" class="node">
<title>Node8</title>
<g id="a_node8"><a xlink:title=" ">
<polygon fill="white" stroke="#bfbfbf" points="476.29,-0.5 476.29,-19.5 592.29,-19.5 592.29,-0.5 476.29,-0.5"/>
<text text-anchor="middle" x="534.29" y="-7.5" font-family="Helvetica,sans-Serif" font-size="10.00">function2/function2.hpp</text>
</a>
</g>
</g>
<!-- Node7&#45;&gt;Node8 -->
<g id="edge7" class="edge">
<title>Node7&#45;&gt;Node8</title>
<path fill="none" stroke="midnightblue" d="M530.11,-56.08C530.77,-49.01 531.71,-38.86 532.53,-29.99"/>
<polygon fill="midnightblue" stroke="midnightblue" points="536.04,-30.03 533.48,-19.75 529.07,-29.39 536.04,-30.03"/>
</g>
<!-- Node10 -->
<g id="node10" class="node">
<title>Node10</title>
<g id="a_node10"><a xlink:title=" ">
<polygon fill="white" stroke="#bfbfbf" points="149.79,-56.5 149.79,-75.5 190.79,-75.5 190.79,-56.5 149.79,-56.5"/>
<text text-anchor="middle" x="170.29" y="-63.5" font-family="Helvetica,sans-Serif" font-size="10.00">future</text>
</a>
</g>
</g>
<!-- Node9&#45;&gt;Node10 -->
<g id="edge9" class="edge">
<title>Node9&#45;&gt;Node10</title>
<path fill="none" stroke="midnightblue" d="M211.76,-168.37C204.43,-150.46 187.44,-108.92 177.63,-84.95"/>
<polygon fill="midnightblue" stroke="midnightblue" points="180.83,-83.52 173.8,-75.59 174.35,-86.17 180.83,-83.52"/>
</g>
<!-- Node11 -->
<g id="node11" class="node">
<title>Node11</title>
<g id="a_node11"><a xlink:title=" ">
<polygon fill="white" stroke="#bfbfbf" points="77.29,-112.5 77.29,-131.5 129.29,-131.5 129.29,-112.5 77.29,-112.5"/>
<text text-anchor="middle" x="103.29" y="-119.5" font-family="Helvetica,sans-Serif" font-size="10.00">memory</text>
</a>
</g>
</g>
<!-- Node9&#45;&gt;Node11 -->
<g id="edge10" class="edge">
<title>Node9&#45;&gt;Node11</title>
<path fill="none" stroke="midnightblue" d="M197.29,-168.32C179.25,-159.62 151.24,-146.12 130.48,-136.11"/>
<polygon fill="midnightblue" stroke="midnightblue" points="131.77,-132.84 121.24,-131.65 128.73,-139.15 131.77,-132.84"/>
</g>
<!-- Node12 -->
<g id="node12" class="node">
<title>Node12</title>
<g id="a_node12"><a xlink:href="state_8hpp.html" target="_top" xlink:title=" ">
<polygon fill="white" stroke="black" points="449.79,-112.5 449.79,-131.5 506.79,-131.5 506.79,-112.5 449.79,-112.5"/>
<text text-anchor="middle" x="478.29" y="-119.5" font-family="Helvetica,sans-Serif" font-size="10.00">state.hpp</text>
</a>
</g>
</g>
<!-- Node9&#45;&gt;Node12 -->
<g id="edge11" class="edge">
<title>Node9&#45;&gt;Node12</title>
<path fill="none" stroke="midnightblue" d="M244.95,-170.91C292.68,-161.11 386.54,-141.84 439.51,-130.96"/>
<polygon fill="midnightblue" stroke="midnightblue" points="440.45,-134.34 449.54,-128.9 439.04,-127.49 440.45,-134.34"/>
</g>
<!-- Node9&#45;&gt;Node17 -->
<g id="edge25" class="edge">
<title>Node9&#45;&gt;Node17</title>
<path fill="none" stroke="midnightblue" d="M216.7,-168.37C219.6,-150.62 226.31,-109.67 230.24,-85.6"/>
<polygon fill="midnightblue" stroke="midnightblue" points="233.72,-86.03 231.88,-75.59 226.81,-84.89 233.72,-86.03"/>
</g>
<!-- Node12&#45;&gt;Node3 -->
<g id="edge13" class="edge">
<title>Node12&#45;&gt;Node3</title>
<path fill="none" stroke="midnightblue" d="M502.69,-112.44C528.48,-103.4 569.36,-89.06 598.31,-78.92"/>
<polygon fill="midnightblue" stroke="midnightblue" points="599.72,-82.13 608,-75.52 597.4,-75.52 599.72,-82.13"/>
</g>
<!-- Node12&#45;&gt;Node4 -->
<g id="edge15" class="edge">
<title>Node12&#45;&gt;Node4</title>
<path fill="none" stroke="midnightblue" d="M506.97,-115.53C545.72,-107.99 617.14,-93.59 687.13,-76.16"/>
<polygon fill="midnightblue" stroke="midnightblue" points="688.14,-79.51 696.99,-73.68 686.44,-72.72 688.14,-79.51"/>
</g>
<!-- Node12&#45;&gt;Node7 -->
<g id="edge17" class="edge">
<title>Node12&#45;&gt;Node7</title>
<path fill="none" stroke="midnightblue" d="M486.71,-112.08C494.14,-104.22 505.14,-92.57 514.1,-83.08"/>
<polygon fill="midnightblue" stroke="midnightblue" points="516.7,-85.42 521.02,-75.75 511.61,-80.62 516.7,-85.42"/>
</g>
<!-- Node12&#45;&gt;Node10 -->
<g id="edge14" class="edge">
<title>Node12&#45;&gt;Node10</title>
<path fill="none" stroke="midnightblue" d="M449.63,-117.62C400.64,-111.57 297.49,-97.67 200.79,-75.83"/>
<polygon fill="midnightblue" stroke="midnightblue" points="201.38,-72.38 190.85,-73.56 199.81,-79.2 201.38,-72.38"/>
</g>
<!-- Node13 -->
<g id="node13" class="node">
<title>Node13</title>
<g id="a_node13"><a xlink:title=" ">
<polygon fill="white" stroke="#bfbfbf" points="335.29,-56.5 335.29,-75.5 391.29,-75.5 391.29,-56.5 335.29,-56.5"/>
<text text-anchor="middle" x="363.29" y="-63.5" font-family="Helvetica,sans-Serif" font-size="10.00">algorithm</text>
</a>
</g>
</g>
<!-- Node12&#45;&gt;Node13 -->
<g id="edge12" class="edge">
<title>Node12&#45;&gt;Node13</title>
<path fill="none" stroke="midnightblue" d="M460.07,-112.44C441.39,-103.68 412.13,-89.94 390.67,-79.86"/>
<polygon fill="midnightblue" stroke="midnightblue" points="391.96,-76.6 381.42,-75.52 388.99,-82.93 391.96,-76.6"/>
</g>
<!-- Node14 -->
<g id="node14" class="node">
<title>Node14</title>
<g id="a_node14"><a xlink:title=" ">
<polygon fill="white" stroke="#bfbfbf" points="275.29,-56.5 275.29,-75.5 317.29,-75.5 317.29,-56.5 275.29,-56.5"/>
<text text-anchor="middle" x="296.29" y="-63.5" font-family="Helvetica,sans-Serif" font-size="10.00">vector</text>
</a>
</g>
</g>
<!-- Node12&#45;&gt;Node14 -->
<g id="edge16" class="edge">
<title>Node12&#45;&gt;Node14</title>
<path fill="none" stroke="midnightblue" d="M449.7,-112.57C421.06,-104.12 375.44,-90.63 327.26,-76.28"/>
<polygon fill="midnightblue" stroke="midnightblue" points="328.17,-72.9 317.59,-73.4 326.17,-79.61 328.17,-72.9"/>
</g>
<!-- Node12&#45;&gt;Node15 -->
<g id="edge18" class="edge">
<title>Node12&#45;&gt;Node15</title>
<path fill="none" stroke="midnightblue" d="M506.94,-116.63C554.89,-109.22 654.68,-93.49 749.66,-76.06"/>
<polygon fill="midnightblue" stroke="midnightblue" points="750.53,-79.45 759.72,-74.2 749.26,-72.57 750.53,-79.45"/>
</g>
<!-- Node12&#45;&gt;Node17 -->
<g id="edge20" class="edge">
<title>Node12&#45;&gt;Node17</title>
<path fill="none" stroke="midnightblue" d="M449.43,-114.92C400.09,-104.52 302.08,-83.83 267.54,-76.09"/>
<polygon fill="midnightblue" stroke="midnightblue" points="267.93,-72.59 257.4,-73.75 266.35,-79.41 267.93,-72.59"/>
</g>
<!-- Node20 -->
<g id="node20" class="node">
<title>Node20</title>
<g id="a_node20"><a xlink:href="variant_8hpp.html" target="_top" xlink:title=" ">
<polygon fill="white" stroke="black" points="409.79,-56.5 409.79,-75.5 472.79,-75.5 472.79,-56.5 409.79,-56.5"/>
<text text-anchor="middle" x="441.29" y="-63.5" font-family="Helvetica,sans-Serif" font-size="10.00">variant.hpp</text>
</a>
</g>
</g>
<!-- Node12&#45;&gt;Node20 -->
<g id="edge23" class="edge">
<title>Node12&#45;&gt;Node20</title>
<path fill="none" stroke="midnightblue" d="M472.18,-112.08C467.01,-104.53 459.44,-93.49 453.09,-84.23"/>
<polygon fill="midnightblue" stroke="midnightblue" points="455.82,-82.02 447.28,-75.75 450.05,-85.98 455.82,-82.02"/>
</g>
<!-- Node16 -->
<g id="node16" class="node">
<title>Node16</title>
<g id="a_node16"><a xlink:title=" ">
<polygon fill="white" stroke="#bfbfbf" points="769.29,-0.5 769.29,-19.5 819.29,-19.5 819.29,-0.5 769.29,-0.5"/>
<text text-anchor="middle" x="794.29" y="-7.5" font-family="Helvetica,sans-Serif" font-size="10.00">optional</text>
</a>
</g>
</g>
<!-- Node15&#45;&gt;Node16 -->
<g id="edge19" class="edge">
<title>Node15&#45;&gt;Node16</title>
<path fill="none" stroke="midnightblue" d="M794.29,-56.08C794.29,-49.01 794.29,-38.86 794.29,-29.99"/>
<polygon fill="midnightblue" stroke="midnightblue" points="797.79,-29.75 794.29,-19.75 790.79,-29.75 797.79,-29.75"/>
</g>
<!-- Node18 -->
<g id="node18" class="node">
<title>Node18</title>
<g id="a_node18"><a xlink:title=" ">
<polygon fill="white" stroke="#bfbfbf" points="164.79,-0.5 164.79,-19.5 223.79,-19.5 223.79,-0.5 164.79,-0.5"/>
<text text-anchor="middle" x="194.29" y="-7.5" font-family="Helvetica,sans-Serif" font-size="10.00">stdexcept</text>
</a>
</g>
</g>
<!-- Node17&#45;&gt;Node18 -->
<g id="edge21" class="edge">
<title>Node17&#45;&gt;Node18</title>
<path fill="none" stroke="midnightblue" d="M226.85,-56.08C221.34,-48.46 213.26,-37.26 206.52,-27.94"/>
<polygon fill="midnightblue" stroke="midnightblue" points="209.3,-25.81 200.61,-19.75 203.63,-29.91 209.3,-25.81"/>
</g>
<!-- Node19 -->
<g id="node19" class="node">
<title>Node19</title>
<g id="a_node19"><a xlink:title=" ">
<polygon fill="white" stroke="#bfbfbf" points="242.29,-0.5 242.29,-19.5 304.29,-19.5 304.29,-0.5 242.29,-0.5"/>
<text text-anchor="middle" x="273.29" y="-7.5" font-family="Helvetica,sans-Serif" font-size="10.00">type_traits</text>
</a>
</g>
</g>
<!-- Node17&#45;&gt;Node19 -->
<g id="edge22" class="edge">
<title>Node17&#45;&gt;Node19</title>
<path fill="none" stroke="midnightblue" d="M239.89,-56.08C245.54,-48.46 253.83,-37.26 260.74,-27.94"/>
<polygon fill="midnightblue" stroke="midnightblue" points="263.67,-29.87 266.81,-19.75 258.04,-25.7 263.67,-29.87"/>
</g>
<!-- Node21 -->
<g id="node21" class="node">
<title>Node21</title>
<g id="a_node21"><a xlink:title=" ">
<polygon fill="white" stroke="#bfbfbf" points="414.29,-0.5 414.29,-19.5 458.29,-19.5 458.29,-0.5 414.29,-0.5"/>
<text text-anchor="middle" x="436.29" y="-7.5" font-family="Helvetica,sans-Serif" font-size="10.00">variant</text>
</a>
</g>
</g>
<!-- Node20&#45;&gt;Node21 -->
<g id="edge24" class="edge">
<title>Node20&#45;&gt;Node21</title>
<path fill="none" stroke="midnightblue" d="M440.46,-56.08C439.81,-49.01 438.87,-38.86 438.05,-29.99"/>
<polygon fill="midnightblue" stroke="midnightblue" points="441.5,-29.39 437.1,-19.75 434.53,-30.03 441.5,-29.39"/>
</g>
<!-- Node22&#45;&gt;Node9 -->
<g id="edge29" class="edge">
<title>Node22&#45;&gt;Node9</title>
<path fill="none" stroke="midnightblue" d="M215.29,-224.08C215.29,-217.01 215.29,-206.86 215.29,-197.99"/>
<polygon fill="midnightblue" stroke="midnightblue" points="218.79,-197.75 215.29,-187.75 211.79,-197.75 218.79,-197.75"/>
</g>
<!-- Node22&#45;&gt;Node10 -->
<g id="edge27" class="edge">
<title>Node22&#45;&gt;Node10</title>
<path fill="none" stroke="midnightblue" d="M204.47,-224.3C195.13,-216.06 182.22,-202.77 176.29,-188 162.62,-153.96 164.79,-110.15 167.56,-85.68"/>
<polygon fill="midnightblue" stroke="midnightblue" points="171.05,-85.98 168.86,-75.62 164.11,-85.09 171.05,-85.98"/>
</g>
<!-- Node22&#45;&gt;Node11 -->
<g id="edge28" class="edge">
<title>Node22&#45;&gt;Node11</title>
<path fill="none" stroke="midnightblue" d="M196.8,-224.47C181.2,-216.61 158.97,-203.79 143.29,-188 129.61,-174.23 118.49,-154.94 111.48,-140.96"/>
<polygon fill="midnightblue" stroke="midnightblue" points="114.6,-139.37 107.12,-131.86 108.29,-142.39 114.6,-139.37"/>
</g>
<!-- Node22&#45;&gt;Node12 -->
<g id="edge30" class="edge">
<title>Node22&#45;&gt;Node12</title>
<path fill="none" stroke="midnightblue" d="M235.92,-224.37C282.21,-205.01 394.45,-158.06 448.38,-135.51"/>
<polygon fill="midnightblue" stroke="midnightblue" points="449.87,-138.68 457.75,-131.59 447.17,-132.22 449.87,-138.68"/>
</g>
<!-- Node22&#45;&gt;Node17 -->
<g id="edge31" class="edge">
<title>Node22&#45;&gt;Node17</title>
<path fill="none" stroke="midnightblue" d="M226,-224.3C235.23,-216.07 247.88,-202.79 253.29,-188 266.09,-152.99 252.03,-109.27 241.86,-85.13"/>
<polygon fill="midnightblue" stroke="midnightblue" points="244.96,-83.5 237.7,-75.79 238.57,-86.35 244.96,-83.5"/>
</g>
<!-- Node23&#45;&gt;Node9 -->
<g id="edge33" class="edge">
<title>Node23&#45;&gt;Node9</title>
<path fill="none" stroke="midnightblue" d="M331.42,-224.44C308.51,-215.48 272.31,-201.31 246.42,-191.18"/>
<polygon fill="midnightblue" stroke="midnightblue" points="247.64,-187.9 237.05,-187.52 245.09,-194.42 247.64,-187.9"/>
</g>
<!-- Node23&#45;&gt;Node12 -->
<g id="edge34" class="edge">
<title>Node23&#45;&gt;Node12</title>
<path fill="none" stroke="midnightblue" d="M375.32,-224.42C392.96,-216.78 417.61,-204.28 435.29,-188 450.03,-174.43 462.1,-154.81 469.66,-140.68"/>
<polygon fill="midnightblue" stroke="midnightblue" points="472.91,-142.03 474.34,-131.53 466.67,-138.84 472.91,-142.03"/>
</g>
<!-- Node24&#45;&gt;Node7 -->
<g id="edge44" class="edge">
<title>Node24&#45;&gt;Node7</title>
<path fill="none" stroke="midnightblue" d="M82.31,-280.21C66.9,-251.68 23.6,-160.76 68.29,-112 97.89,-79.7 403.54,-81.93 480.58,-75.64"/>
<polygon fill="midnightblue" stroke="midnightblue" points="480.99,-79.12 490.57,-74.6 480.26,-72.15 480.99,-79.12"/>
</g>
<!-- Node24&#45;&gt;Node9 -->
<g id="edge45" class="edge">
<title>Node24&#45;&gt;Node9</title>
<path fill="none" stroke="midnightblue" d="M92.68,-280.15C101.14,-266.77 118.61,-241.16 138.29,-224 152.98,-211.19 171.84,-200.1 187.21,-192.13"/>
<polygon fill="midnightblue" stroke="midnightblue" points="188.9,-195.2 196.27,-187.59 185.76,-188.94 188.9,-195.2"/>
</g>
<!-- Node24&#45;&gt;Node11 -->
<g id="edge43" class="edge">
<title>Node24&#45;&gt;Node11</title>
<path fill="none" stroke="midnightblue" d="M88.15,-280.08C90.67,-253.95 98.06,-177.21 101.5,-141.58"/>
<polygon fill="midnightblue" stroke="midnightblue" points="104.99,-141.86 102.46,-131.57 98.02,-141.19 104.99,-141.86"/>
</g>
<!-- Node24&#45;&gt;Node17 -->
<g id="edge47" class="edge">
<title>Node24&#45;&gt;Node17</title>
<path fill="none" stroke="midnightblue" d="M66.44,-280.43C51.71,-273.13 33.08,-261.09 24.29,-244 -2.56,-191.84 -12.78,-157.47 24.29,-112 74.46,-50.45 121.99,-94.17 199.29,-76 199.39,-75.98 199.49,-75.95 199.59,-75.93"/>
<polygon fill="midnightblue" stroke="midnightblue" points="200.31,-79.36 209.18,-73.56 198.64,-72.56 200.31,-79.36"/>
</g>
<!-- Node24&#45;&gt;Node22 -->
<g id="edge46" class="edge">
<title>Node24&#45;&gt;Node22</title>
<path fill="none" stroke="midnightblue" d="M107.57,-280.44C128.63,-271.56 161.8,-257.56 185.77,-247.45"/>
<polygon fill="midnightblue" stroke="midnightblue" points="187.25,-250.63 195.1,-243.52 184.53,-244.18 187.25,-250.63"/>
</g>
</g>
</svg>
