<?xml version="1.0" encoding="UTF-8" standalone="no"?>
<!DOCTYPE svg PUBLIC "-//W3C//DTD SVG 1.1//EN"
 "http://www.w3.org/Graphics/SVG/1.1/DTD/svg11.dtd">
<!-- Generated by graphviz version 2.44.1 (20200629.0800)
 -->
<!-- Title: include/satella/shared_future.hpp Pages: 1 -->
<svg width="219pt" height="218pt"
 viewBox="0.00 0.00 218.50 218.00" xmlns="http://www.w3.org/2000/svg" xmlns:xlink="http://www.w3.org/1999/xlink">
<g id="graph0" class="graph" transform="scale(1 1) rotate(0) translate(4 214)">
<title>include/satella/shared_future.hpp</title>
<polygon fill="white" stroke="transparent" points="-4,4 -4,-214 214.5,-214 214.5,4 -4,4"/>
<!-- Node1 -->
<g id="node1" class="node">
<title>Node1</title>
<g id="a_node1"><a xlink:title=" ">
<polygon fill="#bfbfbf" stroke="black" points="76.5,-179.5 76.5,-209.5 187.5,-209.5 187.5,-179.5 76.5,-179.5"/>
<text text-anchor="start" x="84.5" y="-197.5" font-family="Helvetica,sans-Serif" font-size="10.00">include/satella/shared</text>
<text text-anchor="middle" x="132" y="-186.5" font-family="Helvetica,sans-Serif" font-size="10.00">_future.hpp</text>
</a>
</g>
</g>
<!-- Node2 -->
<g id="node2" class="node">
<title>Node2</title>
<g id="a_node2"><a xlink:href="cancellation_8hpp.html" target="_top" xlink:title=" ">
<polygon fill="white" stroke="black" points="4,-123.5 4,-142.5 156,-142.5 156,-123.5 4,-123.5"/>
<text text-anchor="middle" x="80" y="-130.5" font-family="Helvetica,sans-Serif" font-size="10.00">include/satella/cancellation.hpp</text>
</a>
</g>
</g>
<!-- Node1&#45;&gt;Node2 -->
<g id="edge1" class="edge">
<title>Node1&#45;&gt;Node2</title>
<path fill="none" stroke="midnightblue" d="M112.95,-171.7C104.15,-161.64 94.21,-150.26 87.57,-142.66"/>
<polygon fill="midnightblue" stroke="midnightblue" points="110.46,-174.17 119.68,-179.4 115.73,-169.57 110.46,-174.17"/>
</g>
<!-- Node4 -->
<g id="node4" class="node">
<title>Node4</title>
<g id="a_node4"><a xlink:href="satella_8hpp.html" target="_top" xlink:title=" ">
<polygon fill="white" stroke="black" points="81.5,-0.5 81.5,-19.5 210.5,-19.5 210.5,-0.5 81.5,-0.5"/>
<text text-anchor="middle" x="146" y="-7.5" font-family="Helvetica,sans-Serif" font-size="10.00">include/satella/satella.hpp</text>
</a>
</g>
</g>
<!-- Node1&#45;&gt;Node4 -->
<g id="edge5" class="edge">
<title>Node1&#45;&gt;Node4</title>
<path fill="none" stroke="midnightblue" d="M150.59,-171.14C156.38,-162.83 162.03,-152.98 165,-143 178.48,-97.73 158.41,-40.79 149.7,-19.52"/>
<polygon fill="midnightblue" stroke="midnightblue" points="147.77,-169.07 144.61,-179.19 153.39,-173.25 147.77,-169.07"/>
</g>
<!-- Node3 -->
<g id="node3" class="node">
<title>Node3</title>
<g id="a_node3"><a xlink:href="blocking__queue_8hpp.html" target="_top" xlink:title=" ">
<polygon fill="white" stroke="black" points="0,-56.5 0,-86.5 118,-86.5 118,-56.5 0,-56.5"/>
<text text-anchor="start" x="8" y="-74.5" font-family="Helvetica,sans-Serif" font-size="10.00">include/satella/blocking</text>
<text text-anchor="middle" x="59" y="-63.5" font-family="Helvetica,sans-Serif" font-size="10.00">_queue.hpp</text>
</a>
</g>
</g>
<!-- Node2&#45;&gt;Node3 -->
<g id="edge2" class="edge">
<title>Node2&#45;&gt;Node3</title>
<path fill="none" stroke="midnightblue" d="M73.58,-113.82C70.49,-105.04 66.83,-94.68 63.95,-86.52"/>
<polygon fill="midnightblue" stroke="midnightblue" points="70.36,-115.21 76.99,-123.48 76.96,-112.88 70.36,-115.21"/>
</g>
<!-- Node2&#45;&gt;Node4 -->
<g id="edge4" class="edge">
<title>Node2&#45;&gt;Node4</title>
<path fill="none" stroke="midnightblue" d="M100.15,-117.14C109.6,-109.19 120.24,-98.64 127,-87 139.84,-64.89 144.07,-34.27 145.41,-19.56"/>
<polygon fill="midnightblue" stroke="midnightblue" points="97.91,-114.45 92.28,-123.43 102.28,-119.92 97.91,-114.45"/>
</g>
<!-- Node3&#45;&gt;Node4 -->
<g id="edge3" class="edge">
<title>Node3&#45;&gt;Node4</title>
<path fill="none" stroke="midnightblue" d="M88.27,-50.48C103.59,-40 121.57,-27.71 133.34,-19.66"/>
<polygon fill="midnightblue" stroke="midnightblue" points="85.9,-47.87 79.62,-56.4 89.85,-53.64 85.9,-47.87"/>
</g>
</g>
</svg>
