<?xml version="1.0" encoding="UTF-8" standalone="no"?>
<!DOCTYPE svg PUBLIC "-//W3C//DTD SVG 1.1//EN"
 "http://www.w3.org/Graphics/SVG/1.1/DTD/svg11.dtd">
<!-- Generated by graphviz version 2.44.1 (20200629.0800)
 -->
<!-- Title: include/satella/state.hpp Pages: 1 -->
<svg width="411pt" height="330pt"
 viewBox="0.00 0.00 411.07 330.00" xmlns="http://www.w3.org/2000/svg" xmlns:xlink="http://www.w3.org/1999/xlink">
<g id="graph0" class="graph" transform="scale(1 1) rotate(0) translate(4 326)">
<title>include/satella/state.hpp</title>
<polygon fill="white" stroke="transparent" points="-4,4 -4,-326 407.07,-326 407.07,4 -4,4"/>
<!-- Node1 -->
<g id="node1" class="node">
<title>Node1</title>
<g id="a_node1"><a xlink:title=" ">
<polygon fill="#bfbfbf" stroke="black" points="197.57,-302.5 197.57,-321.5 319.57,-321.5 319.57,-302.5 197.57,-302.5"/>
<text text-anchor="middle" x="258.57" y="-309.5" font-family="Helvetica,sans-Serif" font-size="10.00">include/satella/state.hpp</text>
</a>
</g>
</g>
<!-- Node2 -->
<g id="node2" class="node">
<title>Node2</title>
<g id="a_node2"><a xlink:href="future_8hpp.html" target="_top" xlink:title=" ">
<polygon fill="white" stroke="black" points="105.07,-246.5 105.07,-265.5 230.07,-265.5 230.07,-246.5 105.07,-246.5"/>
<text text-anchor="middle" x="167.57" y="-253.5" font-family="Helvetica,sans-Serif" font-size="10.00">include/satella/future.hpp</text>
</a>
</g>
</g>
<!-- Node1&#45;&gt;Node2 -->
<g id="edge1" class="edge">
<title>Node1&#45;&gt;Node2</title>
<path fill="none" stroke="midnightblue" d="M235.28,-297.18C218.53,-287.24 196.47,-274.15 182.16,-265.65"/>
<polygon fill="midnightblue" stroke="midnightblue" points="233.57,-300.23 243.95,-302.32 237.14,-294.21 233.57,-300.23"/>
</g>
<!-- Node6 -->
<g id="node6" class="node">
<title>Node6</title>
<g id="a_node6"><a xlink:href="promise_8hpp.html" target="_top" xlink:title=" ">
<polygon fill="white" stroke="black" points="100.07,-185 100.07,-204 235.07,-204 235.07,-185 100.07,-185"/>
<text text-anchor="middle" x="167.57" y="-192" font-family="Helvetica,sans-Serif" font-size="10.00">include/satella/promise.hpp</text>
</a>
</g>
</g>
<!-- Node1&#45;&gt;Node6 -->
<g id="edge16" class="edge">
<title>Node1&#45;&gt;Node6</title>
<path fill="none" stroke="midnightblue" d="M256.06,-291.95C253.48,-278.15 248.4,-259.61 238.57,-246 224.84,-226.99 201.71,-212.49 185.6,-204"/>
<polygon fill="midnightblue" stroke="midnightblue" points="252.66,-292.88 257.68,-302.21 259.57,-291.79 252.66,-292.88"/>
</g>
<!-- Node8 -->
<g id="node8" class="node">
<title>Node8</title>
<g id="a_node8"><a xlink:href="shared__future_8hpp.html" target="_top" xlink:title=" ">
<polygon fill="white" stroke="black" points="292.07,-179.5 292.07,-209.5 403.07,-209.5 403.07,-179.5 292.07,-179.5"/>
<text text-anchor="start" x="300.07" y="-197.5" font-family="Helvetica,sans-Serif" font-size="10.00">include/satella/shared</text>
<text text-anchor="middle" x="347.57" y="-186.5" font-family="Helvetica,sans-Serif" font-size="10.00">_future.hpp</text>
</a>
</g>
</g>
<!-- Node1&#45;&gt;Node8 -->
<g id="edge17" class="edge">
<title>Node1&#45;&gt;Node8</title>
<path fill="none" stroke="midnightblue" d="M271.49,-294.24C289.09,-271.39 320.31,-230.88 336.75,-209.55"/>
<polygon fill="midnightblue" stroke="midnightblue" points="268.59,-292.26 265.26,-302.32 274.14,-296.53 268.59,-292.26"/>
</g>
<!-- Node3 -->
<g id="node3" class="node">
<title>Node3</title>
<g id="a_node3"><a xlink:href="cancellation_8hpp.html" target="_top" xlink:title=" ">
<polygon fill="white" stroke="black" points="191.57,-123.5 191.57,-142.5 343.57,-142.5 343.57,-123.5 191.57,-123.5"/>
<text text-anchor="middle" x="267.57" y="-130.5" font-family="Helvetica,sans-Serif" font-size="10.00">include/satella/cancellation.hpp</text>
</a>
</g>
</g>
<!-- Node2&#45;&gt;Node3 -->
<g id="edge2" class="edge">
<title>Node2&#45;&gt;Node3</title>
<path fill="none" stroke="midnightblue" d="M200.05,-242.3C215.17,-234.91 232.28,-224.22 243.57,-210 259.75,-189.63 265.11,-158.19 266.82,-142.93"/>
<polygon fill="midnightblue" stroke="midnightblue" points="198.58,-239.12 190.95,-246.47 201.5,-245.48 198.58,-239.12"/>
</g>
<!-- Node5 -->
<g id="node5" class="node">
<title>Node5</title>
<g id="a_node5"><a xlink:href="satella_8hpp.html" target="_top" xlink:title=" ">
<polygon fill="white" stroke="black" points="118.07,-0.5 118.07,-19.5 247.07,-19.5 247.07,-0.5 118.07,-0.5"/>
<text text-anchor="middle" x="182.57" y="-7.5" font-family="Helvetica,sans-Serif" font-size="10.00">include/satella/satella.hpp</text>
</a>
</g>
</g>
<!-- Node2&#45;&gt;Node5 -->
<g id="edge11" class="edge">
<title>Node2&#45;&gt;Node5</title>
<path fill="none" stroke="midnightblue" d="M128.81,-243.34C71.6,-223.92 -25.41,-181.26 6.57,-123 38.03,-65.69 112.62,-33.52 153.89,-19.53"/>
<polygon fill="midnightblue" stroke="midnightblue" points="127.71,-246.66 138.3,-246.48 129.91,-240.02 127.71,-246.66"/>
</g>
<!-- Node2&#45;&gt;Node6 -->
<g id="edge6" class="edge">
<title>Node2&#45;&gt;Node6</title>
<path fill="none" stroke="midnightblue" d="M167.57,-236.32C167.57,-225.5 167.57,-212.4 167.57,-204.01"/>
<polygon fill="midnightblue" stroke="midnightblue" points="164.07,-236.48 167.57,-246.48 171.07,-236.48 164.07,-236.48"/>
</g>
<!-- Node7 -->
<g id="node7" class="node">
<title>Node7</title>
<g id="a_node7"><a xlink:href="task_8hpp.html" target="_top" xlink:title=" ">
<polygon fill="white" stroke="black" points="16.07,-123.5 16.07,-142.5 135.07,-142.5 135.07,-123.5 16.07,-123.5"/>
<text text-anchor="middle" x="75.57" y="-130.5" font-family="Helvetica,sans-Serif" font-size="10.00">include/satella/task.hpp</text>
</a>
</g>
</g>
<!-- Node2&#45;&gt;Node7 -->
<g id="edge15" class="edge">
<title>Node2&#45;&gt;Node7</title>
<path fill="none" stroke="midnightblue" d="M132.66,-242.31C117.51,-235.08 100.9,-224.52 90.57,-210 75.91,-189.4 74.7,-158.07 75.08,-142.88"/>
<polygon fill="midnightblue" stroke="midnightblue" points="131.28,-245.52 141.84,-246.38 134.12,-239.13 131.28,-245.52"/>
</g>
<!-- Node2&#45;&gt;Node8 -->
<g id="edge12" class="edge">
<title>Node2&#45;&gt;Node8</title>
<path fill="none" stroke="midnightblue" d="M203.18,-243.23C232.49,-233.54 274.12,-219.78 305.15,-209.52"/>
<polygon fill="midnightblue" stroke="midnightblue" points="201.76,-240.01 193.36,-246.48 203.96,-246.66 201.76,-240.01"/>
</g>
<!-- Node4 -->
<g id="node4" class="node">
<title>Node4</title>
<g id="a_node4"><a xlink:href="blocking__queue_8hpp.html" target="_top" xlink:title=" ">
<polygon fill="white" stroke="black" points="229.57,-56.5 229.57,-86.5 347.57,-86.5 347.57,-56.5 229.57,-56.5"/>
<text text-anchor="start" x="237.57" y="-74.5" font-family="Helvetica,sans-Serif" font-size="10.00">include/satella/blocking</text>
<text text-anchor="middle" x="288.57" y="-63.5" font-family="Helvetica,sans-Serif" font-size="10.00">_queue.hpp</text>
</a>
</g>
</g>
<!-- Node3&#45;&gt;Node4 -->
<g id="edge3" class="edge">
<title>Node3&#45;&gt;Node4</title>
<path fill="none" stroke="midnightblue" d="M273.99,-113.82C277.09,-105.04 280.75,-94.68 283.62,-86.52"/>
<polygon fill="midnightblue" stroke="midnightblue" points="270.61,-112.88 270.58,-123.48 277.21,-115.21 270.61,-112.88"/>
</g>
<!-- Node3&#45;&gt;Node5 -->
<g id="edge5" class="edge">
<title>Node3&#45;&gt;Node5</title>
<path fill="none" stroke="midnightblue" d="M248.84,-116.76C239.57,-108.6 228.66,-97.97 220.57,-87 204.11,-64.68 191.33,-34.15 185.71,-19.51"/>
<polygon fill="midnightblue" stroke="midnightblue" points="246.57,-119.43 256.45,-123.26 251.11,-114.11 246.57,-119.43"/>
</g>
<!-- Node4&#45;&gt;Node5 -->
<g id="edge4" class="edge">
<title>Node4&#45;&gt;Node5</title>
<path fill="none" stroke="midnightblue" d="M254.47,-51.36C235.47,-40.69 212.74,-27.93 198,-19.66"/>
<polygon fill="midnightblue" stroke="midnightblue" points="253.02,-54.56 263.45,-56.4 256.44,-48.45 253.02,-54.56"/>
</g>
<!-- Node6&#45;&gt;Node3 -->
<g id="edge7" class="edge">
<title>Node6&#45;&gt;Node3</title>
<path fill="none" stroke="midnightblue" d="M190.69,-179.74C210.01,-168.25 236.95,-152.22 253.27,-142.51"/>
<polygon fill="midnightblue" stroke="midnightblue" points="188.7,-176.85 181.9,-184.98 192.28,-182.87 188.7,-176.85"/>
</g>
<!-- Node6&#45;&gt;Node5 -->
<g id="edge8" class="edge">
<title>Node6&#45;&gt;Node5</title>
<path fill="none" stroke="midnightblue" d="M169.12,-174.72C172.31,-135.82 179.55,-47.71 181.86,-19.71"/>
<polygon fill="midnightblue" stroke="midnightblue" points="165.63,-174.44 168.3,-184.7 172.6,-175.02 165.63,-174.44"/>
</g>
<!-- Node6&#45;&gt;Node7 -->
<g id="edge9" class="edge">
<title>Node6&#45;&gt;Node7</title>
<path fill="none" stroke="midnightblue" d="M145.82,-179.43C128.08,-167.96 103.61,-152.13 88.73,-142.51"/>
<polygon fill="midnightblue" stroke="midnightblue" points="144.09,-182.48 154.39,-184.98 147.89,-176.61 144.09,-182.48"/>
</g>
<!-- Node7&#45;&gt;Node5 -->
<g id="edge10" class="edge">
<title>Node7&#45;&gt;Node5</title>
<path fill="none" stroke="midnightblue" d="M89.92,-115.77C112.91,-89.78 157.2,-39.69 174.95,-19.62"/>
<polygon fill="midnightblue" stroke="midnightblue" points="87.27,-113.49 83.27,-123.3 92.51,-118.13 87.27,-113.49"/>
</g>
<!-- Node8&#45;&gt;Node3 -->
<g id="edge13" class="edge">
<title>Node8&#45;&gt;Node3</title>
<path fill="none" stroke="midnightblue" d="M320.26,-173.19C306.26,-162.77 289.94,-150.63 279.21,-142.66"/>
<polygon fill="midnightblue" stroke="midnightblue" points="318.5,-176.24 328.61,-179.4 322.68,-170.62 318.5,-176.24"/>
</g>
<!-- Node8&#45;&gt;Node5 -->
<g id="edge14" class="edge">
<title>Node8&#45;&gt;Node5</title>
<path fill="none" stroke="midnightblue" d="M357.86,-169.65C368.95,-139.8 381.86,-88.66 356.57,-56 343.01,-38.48 290.96,-26.55 247.29,-19.4"/>
<polygon fill="midnightblue" stroke="midnightblue" points="354.48,-168.66 354.07,-179.25 360.99,-171.23 354.48,-168.66"/>
</g>
</g>
</svg>
