<?xml version="1.0" encoding="UTF-8" standalone="no"?>
<!DOCTYPE svg PUBLIC "-//W3C//DTD SVG 1.1//EN"
 "http://www.w3.org/Graphics/SVG/1.1/DTD/svg11.dtd">
<!-- Generated by graphviz version 2.44.1 (20200629.0800)
 -->
<!-- Title: include/satella/task.hpp Pages: 1 -->
<svg width="771pt" height="308pt"
 viewBox="0.00 0.00 770.50 308.00" xmlns="http://www.w3.org/2000/svg" xmlns:xlink="http://www.w3.org/1999/xlink">
<g id="graph0" class="graph" transform="scale(1 1) rotate(0) translate(4 304)">
<title>include/satella/task.hpp</title>
<polygon fill="white" stroke="transparent" points="-4,4 -4,-304 766.5,-304 766.5,4 -4,4"/>
<!-- Node1 -->
<g id="node1" class="node">
<title>Node1</title>
<g id="a_node1"><a xlink:title=" ">
<polygon fill="#bfbfbf" stroke="black" points="180.5,-280.5 180.5,-299.5 299.5,-299.5 299.5,-280.5 180.5,-280.5"/>
<text text-anchor="middle" x="240" y="-287.5" font-family="Helvetica,sans-Serif" font-size="10.00">include/satella/task.hpp</text>
</a>
</g>
</g>
<!-- Node2 -->
<g id="node2" class="node">
<title>Node2</title>
<g id="a_node2"><a xlink:title=" ">
<polygon fill="white" stroke="#bfbfbf" points="236,-112.5 236,-131.5 288,-131.5 288,-112.5 236,-112.5"/>
<text text-anchor="middle" x="262" y="-119.5" font-family="Helvetica,sans-Serif" font-size="10.00">memory</text>
</a>
</g>
</g>
<!-- Node1&#45;&gt;Node2 -->
<g id="edge1" class="edge">
<title>Node1&#45;&gt;Node2</title>
<path fill="none" stroke="midnightblue" d="M241.18,-280.08C244.65,-253.95 254.82,-177.21 259.54,-141.58"/>
<polygon fill="midnightblue" stroke="midnightblue" points="263.02,-141.94 260.86,-131.57 256.08,-141.02 263.02,-141.94"/>
</g>
<!-- Node3 -->
<g id="node3" class="node">
<title>Node3</title>
<g id="a_node3"><a xlink:href="functional_8hpp.html" target="_top" xlink:title=" ">
<polygon fill="white" stroke="black" points="82.5,-56.5 82.5,-75.5 159.5,-75.5 159.5,-56.5 82.5,-56.5"/>
<text text-anchor="middle" x="121" y="-63.5" font-family="Helvetica,sans-Serif" font-size="10.00">functional.hpp</text>
</a>
</g>
</g>
<!-- Node1&#45;&gt;Node3 -->
<g id="edge2" class="edge">
<title>Node1&#45;&gt;Node3</title>
<path fill="none" stroke="midnightblue" d="M235.34,-280.3C217.68,-247.36 154.72,-129.9 130.54,-84.81"/>
<polygon fill="midnightblue" stroke="midnightblue" points="133.57,-83.04 125.76,-75.88 127.4,-86.35 133.57,-83.04"/>
</g>
<!-- Node5 -->
<g id="node5" class="node">
<title>Node5</title>
<g id="a_node5"><a xlink:href="future_8hpp.html" target="_top" xlink:title=" ">
<polygon fill="white" stroke="black" points="382.5,-168.5 382.5,-187.5 441.5,-187.5 441.5,-168.5 382.5,-168.5"/>
<text text-anchor="middle" x="412" y="-175.5" font-family="Helvetica,sans-Serif" font-size="10.00">future.hpp</text>
</a>
</g>
</g>
<!-- Node1&#45;&gt;Node5 -->
<g id="edge4" class="edge">
<title>Node1&#45;&gt;Node5</title>
<path fill="none" stroke="midnightblue" d="M285.48,-280.46C311.62,-273.84 343.94,-262.56 368,-244 384.13,-231.56 396.43,-211.48 403.87,-196.93"/>
<polygon fill="midnightblue" stroke="midnightblue" points="407.03,-198.43 408.23,-187.9 400.73,-195.38 407.03,-198.43"/>
</g>
<!-- Node14 -->
<g id="node14" class="node">
<title>Node14</title>
<g id="a_node14"><a xlink:href="util_8hpp.html" target="_top" xlink:title=" ">
<polygon fill="white" stroke="black" points="178,-56.5 178,-75.5 226,-75.5 226,-56.5 178,-56.5"/>
<text text-anchor="middle" x="202" y="-63.5" font-family="Helvetica,sans-Serif" font-size="10.00">util.hpp</text>
</a>
</g>
</g>
<!-- Node1&#45;&gt;Node14 -->
<g id="edge28" class="edge">
<title>Node1&#45;&gt;Node14</title>
<path fill="none" stroke="midnightblue" d="M238.51,-280.3C232.92,-247.63 213.1,-131.87 205.24,-85.96"/>
<polygon fill="midnightblue" stroke="midnightblue" points="208.66,-85.15 203.52,-75.88 201.76,-86.33 208.66,-85.15"/>
</g>
<!-- Node19 -->
<g id="node19" class="node">
<title>Node19</title>
<g id="a_node19"><a xlink:href="promise_8hpp.html" target="_top" xlink:title=" ">
<polygon fill="white" stroke="black" points="289,-224.5 289,-243.5 359,-243.5 359,-224.5 289,-224.5"/>
<text text-anchor="middle" x="324" y="-231.5" font-family="Helvetica,sans-Serif" font-size="10.00">promise.hpp</text>
</a>
</g>
</g>
<!-- Node1&#45;&gt;Node19 -->
<g id="edge22" class="edge">
<title>Node1&#45;&gt;Node19</title>
<path fill="none" stroke="midnightblue" d="M253.5,-280.32C266.6,-271.9 286.71,-258.97 302.11,-249.07"/>
<polygon fill="midnightblue" stroke="midnightblue" points="304.02,-252.01 310.54,-243.65 300.23,-246.12 304.02,-252.01"/>
</g>
<!-- Node4 -->
<g id="node4" class="node">
<title>Node4</title>
<g id="a_node4"><a xlink:title=" ">
<polygon fill="white" stroke="#bfbfbf" points="0,-0.5 0,-19.5 116,-19.5 116,-0.5 0,-0.5"/>
<text text-anchor="middle" x="58" y="-7.5" font-family="Helvetica,sans-Serif" font-size="10.00">function2/function2.hpp</text>
</a>
</g>
</g>
<!-- Node3&#45;&gt;Node4 -->
<g id="edge3" class="edge">
<title>Node3&#45;&gt;Node4</title>
<path fill="none" stroke="midnightblue" d="M110.88,-56.32C101.47,-48.26 87.26,-36.08 75.93,-26.37"/>
<polygon fill="midnightblue" stroke="midnightblue" points="78.18,-23.68 68.31,-19.83 73.62,-29 78.18,-23.68"/>
</g>
<!-- Node5&#45;&gt;Node2 -->
<g id="edge6" class="edge">
<title>Node5&#45;&gt;Node2</title>
<path fill="none" stroke="midnightblue" d="M388.23,-168.44C363.11,-159.4 323.29,-145.06 295.1,-134.92"/>
<polygon fill="midnightblue" stroke="midnightblue" points="296.25,-131.61 285.66,-131.52 293.88,-138.2 296.25,-131.61"/>
</g>
<!-- Node6 -->
<g id="node6" class="node">
<title>Node6</title>
<g id="a_node6"><a xlink:title=" ">
<polygon fill="white" stroke="#bfbfbf" points="721.5,-56.5 721.5,-75.5 762.5,-75.5 762.5,-56.5 721.5,-56.5"/>
<text text-anchor="middle" x="742" y="-63.5" font-family="Helvetica,sans-Serif" font-size="10.00">future</text>
</a>
</g>
</g>
<!-- Node5&#45;&gt;Node6 -->
<g id="edge5" class="edge">
<title>Node5&#45;&gt;Node6</title>
<path fill="none" stroke="midnightblue" d="M437.62,-168.46C497.71,-148.43 647.46,-98.51 711.82,-77.06"/>
<polygon fill="midnightblue" stroke="midnightblue" points="713.01,-80.35 721.39,-73.87 710.8,-73.71 713.01,-80.35"/>
</g>
<!-- Node7 -->
<g id="node7" class="node">
<title>Node7</title>
<g id="a_node7"><a xlink:href="state_8hpp.html" target="_top" xlink:title=" ">
<polygon fill="white" stroke="black" points="383.5,-112.5 383.5,-131.5 440.5,-131.5 440.5,-112.5 383.5,-112.5"/>
<text text-anchor="middle" x="412" y="-119.5" font-family="Helvetica,sans-Serif" font-size="10.00">state.hpp</text>
</a>
</g>
</g>
<!-- Node5&#45;&gt;Node7 -->
<g id="edge7" class="edge">
<title>Node5&#45;&gt;Node7</title>
<path fill="none" stroke="midnightblue" d="M412,-168.08C412,-161.01 412,-150.86 412,-141.99"/>
<polygon fill="midnightblue" stroke="midnightblue" points="415.5,-141.75 412,-131.75 408.5,-141.75 415.5,-141.75"/>
</g>
<!-- Node5&#45;&gt;Node14 -->
<g id="edge21" class="edge">
<title>Node5&#45;&gt;Node14</title>
<path fill="none" stroke="midnightblue" d="M403.13,-168.3C388.82,-154.66 359.27,-128.15 330,-112 313.58,-102.94 268.05,-87.74 235.98,-77.54"/>
<polygon fill="midnightblue" stroke="midnightblue" points="236.69,-74.09 226.1,-74.42 234.58,-80.77 236.69,-74.09"/>
</g>
<!-- Node7&#45;&gt;Node3 -->
<g id="edge13" class="edge">
<title>Node7&#45;&gt;Node3</title>
<path fill="none" stroke="midnightblue" d="M383.19,-115.69C339.42,-107.61 253.29,-91.7 169.45,-76.08"/>
<polygon fill="midnightblue" stroke="midnightblue" points="169.98,-72.62 159.51,-74.23 168.7,-79.5 169.98,-72.62"/>
</g>
<!-- Node7&#45;&gt;Node6 -->
<g id="edge10" class="edge">
<title>Node7&#45;&gt;Node6</title>
<path fill="none" stroke="midnightblue" d="M440.91,-118.16C493.18,-112.72 606.95,-99.41 711.14,-76.15"/>
<polygon fill="midnightblue" stroke="midnightblue" points="712.22,-79.5 721.19,-73.87 710.67,-72.67 712.22,-79.5"/>
</g>
<!-- Node8 -->
<g id="node8" class="node">
<title>Node8</title>
<g id="a_node8"><a xlink:title=" ">
<polygon fill="white" stroke="#bfbfbf" points="326,-56.5 326,-75.5 382,-75.5 382,-56.5 326,-56.5"/>
<text text-anchor="middle" x="354" y="-63.5" font-family="Helvetica,sans-Serif" font-size="10.00">algorithm</text>
</a>
</g>
</g>
<!-- Node7&#45;&gt;Node8 -->
<g id="edge8" class="edge">
<title>Node7&#45;&gt;Node8</title>
<path fill="none" stroke="midnightblue" d="M402.68,-112.32C394.11,-104.34 381.19,-92.31 370.81,-82.65"/>
<polygon fill="midnightblue" stroke="midnightblue" points="373.19,-80.09 363.49,-75.83 368.42,-85.21 373.19,-80.09"/>
</g>
<!-- Node9 -->
<g id="node9" class="node">
<title>Node9</title>
<g id="a_node9"><a xlink:title=" ">
<polygon fill="white" stroke="#bfbfbf" points="400.5,-56.5 400.5,-75.5 493.5,-75.5 493.5,-56.5 400.5,-56.5"/>
<text text-anchor="middle" x="447" y="-63.5" font-family="Helvetica,sans-Serif" font-size="10.00">condition_variable</text>
</a>
</g>
</g>
<!-- Node7&#45;&gt;Node9 -->
<g id="edge9" class="edge">
<title>Node7&#45;&gt;Node9</title>
<path fill="none" stroke="midnightblue" d="M417.78,-112.08C422.67,-104.53 429.83,-93.49 435.83,-84.23"/>
<polygon fill="midnightblue" stroke="midnightblue" points="438.83,-86.05 441.33,-75.75 432.95,-82.24 438.83,-86.05"/>
</g>
<!-- Node10 -->
<g id="node10" class="node">
<title>Node10</title>
<g id="a_node10"><a xlink:title=" ">
<polygon fill="white" stroke="#bfbfbf" points="512,-56.5 512,-75.5 556,-75.5 556,-56.5 512,-56.5"/>
<text text-anchor="middle" x="534" y="-63.5" font-family="Helvetica,sans-Serif" font-size="10.00">mutex</text>
</a>
</g>
</g>
<!-- Node7&#45;&gt;Node10 -->
<g id="edge11" class="edge">
<title>Node7&#45;&gt;Node10</title>
<path fill="none" stroke="midnightblue" d="M431.33,-112.44C451.32,-103.6 482.74,-89.69 505.56,-79.59"/>
<polygon fill="midnightblue" stroke="midnightblue" points="507.03,-82.76 514.76,-75.52 504.2,-76.36 507.03,-82.76"/>
</g>
<!-- Node11 -->
<g id="node11" class="node">
<title>Node11</title>
<g id="a_node11"><a xlink:title=" ">
<polygon fill="white" stroke="#bfbfbf" points="574,-56.5 574,-75.5 616,-75.5 616,-56.5 574,-56.5"/>
<text text-anchor="middle" x="595" y="-63.5" font-family="Helvetica,sans-Serif" font-size="10.00">vector</text>
</a>
</g>
</g>
<!-- Node7&#45;&gt;Node11 -->
<g id="edge12" class="edge">
<title>Node7&#45;&gt;Node11</title>
<path fill="none" stroke="midnightblue" d="M440.78,-112.59C469.62,-104.14 515.54,-90.67 563.98,-76.29"/>
<polygon fill="midnightblue" stroke="midnightblue" points="565.11,-79.61 573.7,-73.41 563.12,-72.9 565.11,-79.61"/>
</g>
<!-- Node12 -->
<g id="node12" class="node">
<title>Node12</title>
<g id="a_node12"><a xlink:href="optional_8hpp.html" target="_top" xlink:title=" ">
<polygon fill="white" stroke="black" points="634.5,-56.5 634.5,-75.5 703.5,-75.5 703.5,-56.5 634.5,-56.5"/>
<text text-anchor="middle" x="669" y="-63.5" font-family="Helvetica,sans-Serif" font-size="10.00">optional.hpp</text>
</a>
</g>
</g>
<!-- Node7&#45;&gt;Node12 -->
<g id="edge14" class="edge">
<title>Node7&#45;&gt;Node12</title>
<path fill="none" stroke="midnightblue" d="M440.98,-114.91C485.66,-105.52 571.68,-87.45 624.35,-76.38"/>
<polygon fill="midnightblue" stroke="midnightblue" points="625.35,-79.75 634.41,-74.27 623.91,-72.9 625.35,-79.75"/>
</g>
<!-- Node7&#45;&gt;Node14 -->
<g id="edge16" class="edge">
<title>Node7&#45;&gt;Node14</title>
<path fill="none" stroke="midnightblue" d="M383.45,-113.9C350.35,-105.64 293.89,-91.44 236.16,-76.27"/>
<polygon fill="midnightblue" stroke="midnightblue" points="236.7,-72.8 226.14,-73.63 234.92,-79.57 236.7,-72.8"/>
</g>
<!-- Node17 -->
<g id="node17" class="node">
<title>Node17</title>
<g id="a_node17"><a xlink:href="variant_8hpp.html" target="_top" xlink:title=" ">
<polygon fill="white" stroke="black" points="244.5,-56.5 244.5,-75.5 307.5,-75.5 307.5,-56.5 244.5,-56.5"/>
<text text-anchor="middle" x="276" y="-63.5" font-family="Helvetica,sans-Serif" font-size="10.00">variant.hpp</text>
</a>
</g>
</g>
<!-- Node7&#45;&gt;Node17 -->
<g id="edge19" class="edge">
<title>Node7&#45;&gt;Node17</title>
<path fill="none" stroke="midnightblue" d="M390.45,-112.44C367.97,-103.52 332.51,-89.44 307.02,-79.32"/>
<polygon fill="midnightblue" stroke="midnightblue" points="308.03,-75.95 297.45,-75.52 305.45,-82.46 308.03,-75.95"/>
</g>
<!-- Node13 -->
<g id="node13" class="node">
<title>Node13</title>
<g id="a_node13"><a xlink:title=" ">
<polygon fill="white" stroke="#bfbfbf" points="644,-0.5 644,-19.5 694,-19.5 694,-0.5 644,-0.5"/>
<text text-anchor="middle" x="669" y="-7.5" font-family="Helvetica,sans-Serif" font-size="10.00">optional</text>
</a>
</g>
</g>
<!-- Node12&#45;&gt;Node13 -->
<g id="edge15" class="edge">
<title>Node12&#45;&gt;Node13</title>
<path fill="none" stroke="midnightblue" d="M669,-56.08C669,-49.01 669,-38.86 669,-29.99"/>
<polygon fill="midnightblue" stroke="midnightblue" points="672.5,-29.75 669,-19.75 665.5,-29.75 672.5,-29.75"/>
</g>
<!-- Node15 -->
<g id="node15" class="node">
<title>Node15</title>
<g id="a_node15"><a xlink:title=" ">
<polygon fill="white" stroke="#bfbfbf" points="214.5,-0.5 214.5,-19.5 273.5,-19.5 273.5,-0.5 214.5,-0.5"/>
<text text-anchor="middle" x="244" y="-7.5" font-family="Helvetica,sans-Serif" font-size="10.00">stdexcept</text>
</a>
</g>
</g>
<!-- Node14&#45;&gt;Node15 -->
<g id="edge17" class="edge">
<title>Node14&#45;&gt;Node15</title>
<path fill="none" stroke="midnightblue" d="M208.94,-56.08C214.93,-48.38 223.75,-37.03 231.05,-27.65"/>
<polygon fill="midnightblue" stroke="midnightblue" points="233.82,-29.79 237.19,-19.75 228.29,-25.5 233.82,-29.79"/>
</g>
<!-- Node16 -->
<g id="node16" class="node">
<title>Node16</title>
<g id="a_node16"><a xlink:title=" ">
<polygon fill="white" stroke="#bfbfbf" points="134,-0.5 134,-19.5 196,-19.5 196,-0.5 134,-0.5"/>
<text text-anchor="middle" x="165" y="-7.5" font-family="Helvetica,sans-Serif" font-size="10.00">type_traits</text>
</a>
</g>
</g>
<!-- Node14&#45;&gt;Node16 -->
<g id="edge18" class="edge">
<title>Node14&#45;&gt;Node16</title>
<path fill="none" stroke="midnightblue" d="M195.89,-56.08C190.72,-48.53 183.15,-37.49 176.81,-28.23"/>
<polygon fill="midnightblue" stroke="midnightblue" points="179.54,-26.02 171,-19.75 173.76,-29.98 179.54,-26.02"/>
</g>
<!-- Node18 -->
<g id="node18" class="node">
<title>Node18</title>
<g id="a_node18"><a xlink:title=" ">
<polygon fill="white" stroke="#bfbfbf" points="292,-0.5 292,-19.5 336,-19.5 336,-0.5 292,-0.5"/>
<text text-anchor="middle" x="314" y="-7.5" font-family="Helvetica,sans-Serif" font-size="10.00">variant</text>
</a>
</g>
</g>
<!-- Node17&#45;&gt;Node18 -->
<g id="edge20" class="edge">
<title>Node17&#45;&gt;Node18</title>
<path fill="none" stroke="midnightblue" d="M282.27,-56.08C287.64,-48.46 295.52,-37.26 302.08,-27.94"/>
<polygon fill="midnightblue" stroke="midnightblue" points="304.95,-29.94 307.84,-19.75 299.22,-25.91 304.95,-29.94"/>
</g>
<!-- Node19&#45;&gt;Node2 -->
<g id="edge24" class="edge">
<title>Node19&#45;&gt;Node2</title>
<path fill="none" stroke="midnightblue" d="M319.13,-224.37C308.95,-206.3 285.21,-164.18 271.76,-140.31"/>
<polygon fill="midnightblue" stroke="midnightblue" points="274.8,-138.58 266.84,-131.59 268.7,-142.02 274.8,-138.58"/>
</g>
<!-- Node19&#45;&gt;Node5 -->
<g id="edge25" class="edge">
<title>Node19&#45;&gt;Node5</title>
<path fill="none" stroke="midnightblue" d="M338.14,-224.32C351.87,-215.9 372.94,-202.97 389.06,-193.07"/>
<polygon fill="midnightblue" stroke="midnightblue" points="391.2,-195.87 397.9,-187.65 387.54,-189.9 391.2,-195.87"/>
</g>
<!-- Node19&#45;&gt;Node6 -->
<g id="edge23" class="edge">
<title>Node19&#45;&gt;Node6</title>
<path fill="none" stroke="midnightblue" d="M348.93,-224.5C374.61,-215.66 415.76,-201.29 451,-188 548.4,-151.28 661.74,-102.32 713.54,-79.58"/>
<polygon fill="midnightblue" stroke="midnightblue" points="715.02,-82.75 722.77,-75.52 712.21,-76.35 715.02,-82.75"/>
</g>
<!-- Node19&#45;&gt;Node7 -->
<g id="edge26" class="edge">
<title>Node19&#45;&gt;Node7</title>
<path fill="none" stroke="midnightblue" d="M330.35,-224.49C339.73,-211.98 357.92,-187.95 374,-168 381.8,-158.33 390.75,-147.7 398.01,-139.2"/>
<polygon fill="midnightblue" stroke="midnightblue" points="400.74,-141.4 404.6,-131.53 395.43,-136.84 400.74,-141.4"/>
</g>
<!-- Node19&#45;&gt;Node14 -->
<g id="edge27" class="edge">
<title>Node19&#45;&gt;Node14</title>
<path fill="none" stroke="midnightblue" d="M324.5,-224.3C325.28,-202.77 324.4,-146.31 297,-112 288.74,-101.66 259.35,-88.59 235.43,-79.21"/>
<polygon fill="midnightblue" stroke="midnightblue" points="236.51,-75.88 225.92,-75.56 234,-82.41 236.51,-75.88"/>
</g>
</g>
</svg>
