<?xml version="1.0" encoding="UTF-8" standalone="no"?>
<!DOCTYPE svg PUBLIC "-//W3C//DTD SVG 1.1//EN"
 "http://www.w3.org/Graphics/SVG/1.1/DTD/svg11.dtd">
<!-- Generated by graphviz version 2.44.1 (20200629.0800)
 -->
<!-- Title: include/satella/util.hpp Pages: 1 -->
<svg width="545pt" height="386pt"
 viewBox="0.00 0.00 544.50 386.00" xmlns="http://www.w3.org/2000/svg" xmlns:xlink="http://www.w3.org/1999/xlink">
<g id="graph0" class="graph" transform="scale(1 1) rotate(0) translate(4 382)">
<title>include/satella/util.hpp</title>
<polygon fill="white" stroke="transparent" points="-4,4 -4,-382 540.5,-382 540.5,4 -4,4"/>
<!-- Node1 -->
<g id="node1" class="node">
<title>Node1</title>
<g id="a_node1"><a xlink:title=" ">
<polygon fill="#bfbfbf" stroke="black" points="253.5,-358.5 253.5,-377.5 366.5,-377.5 366.5,-358.5 253.5,-358.5"/>
<text text-anchor="middle" x="310" y="-365.5" font-family="Helvetica,sans-Serif" font-size="10.00">include/satella/util.hpp</text>
</a>
</g>
</g>
<!-- Node2 -->
<g id="node2" class="node">
<title>Node2</title>
<g id="a_node2"><a xlink:href="blocking__queue_8hpp.html" target="_top" xlink:title=" ">
<polygon fill="white" stroke="black" points="0,-56.5 0,-86.5 118,-86.5 118,-56.5 0,-56.5"/>
<text text-anchor="start" x="8" y="-74.5" font-family="Helvetica,sans-Serif" font-size="10.00">include/satella/blocking</text>
<text text-anchor="middle" x="59" y="-63.5" font-family="Helvetica,sans-Serif" font-size="10.00">_queue.hpp</text>
</a>
</g>
</g>
<!-- Node1&#45;&gt;Node2 -->
<g id="edge1" class="edge">
<title>Node1&#45;&gt;Node2</title>
<path fill="none" stroke="midnightblue" d="M243.21,-364.84C170.36,-358.5 64,-335.75 64,-257 64,-257 64,-257 64,-193.5 64,-154.81 61.42,-109.23 59.96,-86.65"/>
<polygon fill="midnightblue" stroke="midnightblue" points="243.01,-368.34 253.25,-365.63 243.56,-361.36 243.01,-368.34"/>
</g>
<!-- Node4 -->
<g id="node4" class="node">
<title>Node4</title>
<g id="a_node4"><a xlink:href="cancellation_8hpp.html" target="_top" xlink:title=" ">
<polygon fill="white" stroke="black" points="171,-123.5 171,-142.5 323,-142.5 323,-123.5 171,-123.5"/>
<text text-anchor="middle" x="247" y="-130.5" font-family="Helvetica,sans-Serif" font-size="10.00">include/satella/cancellation.hpp</text>
</a>
</g>
</g>
<!-- Node1&#45;&gt;Node4 -->
<g id="edge3" class="edge">
<title>Node1&#45;&gt;Node4</title>
<path fill="none" stroke="midnightblue" d="M284.25,-353.23C256.3,-336.68 213.11,-306.06 194,-266 177.35,-231.09 175.44,-213.95 192,-179 199.77,-162.61 216.75,-150.21 229.8,-142.61"/>
<polygon fill="midnightblue" stroke="midnightblue" points="282.67,-356.35 293.09,-358.29 286.15,-350.28 282.67,-356.35"/>
</g>
<!-- Node5 -->
<g id="node5" class="node">
<title>Node5</title>
<g id="a_node5"><a xlink:href="future_8hpp.html" target="_top" xlink:title=" ">
<polygon fill="white" stroke="black" points="202.5,-246.5 202.5,-265.5 327.5,-265.5 327.5,-246.5 202.5,-246.5"/>
<text text-anchor="middle" x="265" y="-253.5" font-family="Helvetica,sans-Serif" font-size="10.00">include/satella/future.hpp</text>
</a>
</g>
</g>
<!-- Node1&#45;&gt;Node5 -->
<g id="edge6" class="edge">
<title>Node1&#45;&gt;Node5</title>
<path fill="none" stroke="midnightblue" d="M299.27,-349.69C294.48,-341.5 289.03,-331.46 285,-322 276.67,-302.45 270.17,-278.26 267.04,-265.62"/>
<polygon fill="midnightblue" stroke="midnightblue" points="296.3,-351.55 304.45,-358.31 302.3,-347.94 296.3,-351.55"/>
</g>
<!-- Node6 -->
<g id="node6" class="node">
<title>Node6</title>
<g id="a_node6"><a xlink:href="promise_8hpp.html" target="_top" xlink:title=" ">
<polygon fill="white" stroke="black" points="377.5,-185 377.5,-204 512.5,-204 512.5,-185 377.5,-185"/>
<text text-anchor="middle" x="445" y="-192" font-family="Helvetica,sans-Serif" font-size="10.00">include/satella/promise.hpp</text>
</a>
</g>
</g>
<!-- Node1&#45;&gt;Node6 -->
<g id="edge18" class="edge">
<title>Node1&#45;&gt;Node6</title>
<path fill="none" stroke="midnightblue" d="M372.06,-355.53C391.73,-348.89 411.78,-338.44 425,-322 453.7,-286.31 449.16,-226.15 446.29,-204.01"/>
<polygon fill="midnightblue" stroke="midnightblue" points="370.99,-352.19 362.46,-358.49 373.05,-358.88 370.99,-352.19"/>
</g>
<!-- Node7 -->
<g id="node7" class="node">
<title>Node7</title>
<g id="a_node7"><a xlink:href="task_8hpp.html" target="_top" xlink:title=" ">
<polygon fill="white" stroke="black" points="417.5,-123.5 417.5,-142.5 536.5,-142.5 536.5,-123.5 417.5,-123.5"/>
<text text-anchor="middle" x="477" y="-130.5" font-family="Helvetica,sans-Serif" font-size="10.00">include/satella/task.hpp</text>
</a>
</g>
</g>
<!-- Node1&#45;&gt;Node7 -->
<g id="edge23" class="edge">
<title>Node1&#45;&gt;Node7</title>
<path fill="none" stroke="midnightblue" d="M368.54,-355.97C393.55,-349.18 421.98,-338.5 444,-322 492.54,-285.62 503.83,-267.88 522,-210 526.13,-196.85 527.27,-191.73 522,-179 515.57,-163.48 500.91,-150.53 490.06,-142.56"/>
<polygon fill="midnightblue" stroke="midnightblue" points="367.6,-352.6 358.79,-358.48 369.34,-359.38 367.6,-352.6"/>
</g>
<!-- Node9 -->
<g id="node9" class="node">
<title>Node9</title>
<g id="a_node9"><a xlink:href="state_8hpp.html" target="_top" xlink:title=" ">
<polygon fill="white" stroke="black" points="294,-302.5 294,-321.5 416,-321.5 416,-302.5 294,-302.5"/>
<text text-anchor="middle" x="355" y="-309.5" font-family="Helvetica,sans-Serif" font-size="10.00">include/satella/state.hpp</text>
</a>
</g>
</g>
<!-- Node1&#45;&gt;Node9 -->
<g id="edge19" class="edge">
<title>Node1&#45;&gt;Node9</title>
<path fill="none" stroke="midnightblue" d="M324.05,-350.14C331.89,-340.74 341.33,-329.4 347.71,-321.75"/>
<polygon fill="midnightblue" stroke="midnightblue" points="321.14,-348.16 317.43,-358.08 326.52,-352.64 321.14,-348.16"/>
</g>
<!-- Node3 -->
<g id="node3" class="node">
<title>Node3</title>
<g id="a_node3"><a xlink:href="satella_8hpp.html" target="_top" xlink:title=" ">
<polygon fill="white" stroke="black" points="260.5,-0.5 260.5,-19.5 389.5,-19.5 389.5,-0.5 260.5,-0.5"/>
<text text-anchor="middle" x="325" y="-7.5" font-family="Helvetica,sans-Serif" font-size="10.00">include/satella/satella.hpp</text>
</a>
</g>
</g>
<!-- Node2&#45;&gt;Node3 -->
<g id="edge2" class="edge">
<title>Node2&#45;&gt;Node3</title>
<path fill="none" stroke="midnightblue" d="M127.92,-55.08C178.48,-43.77 245.28,-28.83 286.68,-19.57"/>
<polygon fill="midnightblue" stroke="midnightblue" points="127.03,-51.7 118.03,-57.3 128.56,-58.53 127.03,-51.7"/>
</g>
<!-- Node4&#45;&gt;Node2 -->
<g id="edge4" class="edge">
<title>Node4&#45;&gt;Node2</title>
<path fill="none" stroke="midnightblue" d="M210.21,-120.36C179.58,-110.66 135.86,-96.83 103.31,-86.52"/>
<polygon fill="midnightblue" stroke="midnightblue" points="209.47,-123.79 220.06,-123.48 211.59,-117.12 209.47,-123.79"/>
</g>
<!-- Node4&#45;&gt;Node3 -->
<g id="edge5" class="edge">
<title>Node4&#45;&gt;Node3</title>
<path fill="none" stroke="midnightblue" d="M258.12,-114.75C275.05,-88.48 306.67,-39.43 319.44,-19.62"/>
<polygon fill="midnightblue" stroke="midnightblue" points="255.09,-113 252.61,-123.3 260.97,-116.79 255.09,-113"/>
</g>
<!-- Node5&#45;&gt;Node3 -->
<g id="edge13" class="edge">
<title>Node5&#45;&gt;Node3</title>
<path fill="none" stroke="midnightblue" d="M235.27,-241.88C220.72,-234.27 203.83,-223.5 192,-210 165.04,-179.24 142.95,-159.2 162,-123 191.26,-67.4 261.98,-34.06 299.93,-19.56"/>
<polygon fill="midnightblue" stroke="midnightblue" points="233.9,-245.11 244.41,-246.42 237.01,-238.84 233.9,-245.11"/>
</g>
<!-- Node5&#45;&gt;Node4 -->
<g id="edge7" class="edge">
<title>Node5&#45;&gt;Node4</title>
<path fill="none" stroke="midnightblue" d="M234.45,-241.56C221.67,-234.22 208.15,-223.77 201,-210 194.65,-197.77 195.66,-191.7 201,-179 207.5,-163.55 222.17,-150.76 233.21,-142.81"/>
<polygon fill="midnightblue" stroke="midnightblue" points="233.04,-244.77 243.52,-246.36 236.32,-238.59 233.04,-244.77"/>
</g>
<!-- Node5&#45;&gt;Node6 -->
<g id="edge8" class="edge">
<title>Node5&#45;&gt;Node6</title>
<path fill="none" stroke="midnightblue" d="M300.6,-243.23C335.59,-231.67 388.14,-214.3 419.26,-204.01"/>
<polygon fill="midnightblue" stroke="midnightblue" points="299.19,-240.01 290.79,-246.48 301.38,-246.66 299.19,-240.01"/>
</g>
<!-- Node5&#45;&gt;Node7 -->
<g id="edge17" class="edge">
<title>Node5&#45;&gt;Node7</title>
<path fill="none" stroke="midnightblue" d="M286.7,-240.51C299.45,-231.85 315.81,-220.53 330,-210 347.78,-196.8 349.93,-190.25 369,-179 395.41,-163.41 428.24,-150.55 450.73,-142.63"/>
<polygon fill="midnightblue" stroke="midnightblue" points="284.46,-237.79 278.13,-246.28 288.38,-243.59 284.46,-237.79"/>
</g>
<!-- Node8 -->
<g id="node8" class="node">
<title>Node8</title>
<g id="a_node8"><a xlink:href="shared__future_8hpp.html" target="_top" xlink:title=" ">
<polygon fill="white" stroke="black" points="209.5,-179.5 209.5,-209.5 320.5,-209.5 320.5,-179.5 209.5,-179.5"/>
<text text-anchor="start" x="217.5" y="-197.5" font-family="Helvetica,sans-Serif" font-size="10.00">include/satella/shared</text>
<text text-anchor="middle" x="265" y="-186.5" font-family="Helvetica,sans-Serif" font-size="10.00">_future.hpp</text>
</a>
</g>
</g>
<!-- Node5&#45;&gt;Node8 -->
<g id="edge14" class="edge">
<title>Node5&#45;&gt;Node8</title>
<path fill="none" stroke="midnightblue" d="M265,-236.23C265,-227.59 265,-217.5 265,-209.52"/>
<polygon fill="midnightblue" stroke="midnightblue" points="261.5,-236.48 265,-246.48 268.5,-236.48 261.5,-236.48"/>
</g>
<!-- Node6&#45;&gt;Node3 -->
<g id="edge10" class="edge">
<title>Node6&#45;&gt;Node3</title>
<path fill="none" stroke="midnightblue" d="M432.4,-176.32C425.38,-166.63 416.55,-154.24 409,-143 383.49,-105.03 378.61,-94.56 354,-56 345.9,-43.31 336.44,-28.66 330.58,-19.61"/>
<polygon fill="midnightblue" stroke="midnightblue" points="429.76,-178.64 438.48,-184.66 435.41,-174.52 429.76,-178.64"/>
</g>
<!-- Node6&#45;&gt;Node4 -->
<g id="edge9" class="edge">
<title>Node6&#45;&gt;Node4</title>
<path fill="none" stroke="midnightblue" d="M406.83,-182.03C368.34,-170.46 309.84,-152.88 275.32,-142.51"/>
<polygon fill="midnightblue" stroke="midnightblue" points="406.05,-185.45 416.63,-184.98 408.06,-178.75 406.05,-185.45"/>
</g>
<!-- Node6&#45;&gt;Node7 -->
<g id="edge11" class="edge">
<title>Node6&#45;&gt;Node7</title>
<path fill="none" stroke="midnightblue" d="M454.5,-175.83C460.42,-164.83 467.77,-151.16 472.42,-142.51"/>
<polygon fill="midnightblue" stroke="midnightblue" points="451.24,-174.51 449.58,-184.98 457.4,-177.83 451.24,-174.51"/>
</g>
<!-- Node7&#45;&gt;Node3 -->
<g id="edge12" class="edge">
<title>Node7&#45;&gt;Node3</title>
<path fill="none" stroke="midnightblue" d="M463.42,-115.61C449.38,-99.28 426.27,-74.1 403,-56 383.87,-41.12 359.31,-27.76 342.91,-19.54"/>
<polygon fill="midnightblue" stroke="midnightblue" points="460.76,-117.89 469.9,-123.26 466.11,-113.37 460.76,-117.89"/>
</g>
<!-- Node8&#45;&gt;Node3 -->
<g id="edge16" class="edge">
<title>Node8&#45;&gt;Node3</title>
<path fill="none" stroke="midnightblue" d="M303.34,-173.75C314.68,-165.83 325.73,-155.57 332,-143 352.99,-100.9 335.87,-41.58 328.22,-19.62"/>
<polygon fill="midnightblue" stroke="midnightblue" points="301.19,-170.97 294.69,-179.34 304.98,-176.85 301.19,-170.97"/>
</g>
<!-- Node8&#45;&gt;Node4 -->
<g id="edge15" class="edge">
<title>Node8&#45;&gt;Node4</title>
<path fill="none" stroke="midnightblue" d="M257.77,-169.59C254.89,-160.08 251.76,-149.73 249.62,-142.66"/>
<polygon fill="midnightblue" stroke="midnightblue" points="254.49,-170.84 260.73,-179.4 261.19,-168.81 254.49,-170.84"/>
</g>
<!-- Node9&#45;&gt;Node5 -->
<g id="edge20" class="edge">
<title>Node9&#45;&gt;Node5</title>
<path fill="none" stroke="midnightblue" d="M331.96,-297.18C315.4,-287.24 293.58,-274.15 279.42,-265.65"/>
<polygon fill="midnightblue" stroke="midnightblue" points="330.16,-300.18 340.54,-302.32 333.77,-294.18 330.16,-300.18"/>
</g>
<!-- Node9&#45;&gt;Node6 -->
<g id="edge21" class="edge">
<title>Node9&#45;&gt;Node6</title>
<path fill="none" stroke="midnightblue" d="M368.11,-294.17C387.53,-269.26 423.23,-223.44 438.16,-204.28"/>
<polygon fill="midnightblue" stroke="midnightblue" points="365.15,-292.28 361.76,-302.32 370.67,-296.58 365.15,-292.28"/>
</g>
<!-- Node9&#45;&gt;Node8 -->
<g id="edge22" class="edge">
<title>Node9&#45;&gt;Node8</title>
<path fill="none" stroke="midnightblue" d="M353.18,-291.95C351.09,-278.15 346.6,-259.6 337,-246 326.08,-230.53 308.85,-218.2 293.98,-209.6"/>
<polygon fill="midnightblue" stroke="midnightblue" points="349.75,-292.71 354.44,-302.21 356.7,-291.86 349.75,-292.71"/>
</g>
</g>
</svg>
